{
.appVersion = "1192";
copyright = "Copyright 2011 The Londrina Solid Authors (https://github.com/marcelommp/Londrina-Typeface), with Reserved Font Name \"Londrina Solid\"";
customParameters = (
{
name = description;
value = "";
},
{
name = licenseURL;
value = "http://scripts.sil.org/OFL";
},
{
name = license;
value = "This Font Software is licensed under the SIL Open Font License, Version 1.1. This license is available with a FAQ at: http://scripts.sil.org/OFL";
},
{
name = vendorID;
value = PYRS;
},
{
name = panose;
value = (
0,
0,
5,
0,
0,
0,
0,
0,
0,
0
);
},
{
name = unicodeRanges;
value = (
0,
1
);
},
{
name = codePageRanges;
value = (
1252
);
},
{
name = blueScale;
value = 0.037;
},
{
name = glyphOrder;
value = (
.notdef,
A,
Aacute,
Acircumflex,
Adieresis,
Agrave,
Aring,
Atilde,
AE,
B,
C,
Ccedilla,
D,
Eth,
E,
Eacute,
Ecircumflex,
Edieresis,
Egrave,
F,
G,
H,
I,
Iacute,
Icircumflex,
Idieresis,
Igrave,
J,
K,
L,
M,
N,
Ntilde,
O,
Oacute,
Ocircumflex,
Odieresis,
Ograve,
Oslash,
Otilde,
OE,
P,
Thorn,
Q,
R,
S,
Scaron,
T,
U,
Uacute,
Ucircumflex,
Udieresis,
Ugrave,
V,
W,
X,
Y,
Yacute,
Ydieresis,
Z,
Zcaron,
a,
aacute,
acircumflex,
adieresis,
agrave,
aring,
atilde,
ae,
b,
c,
ccedilla,
d,
eth,
e,
eacute,
ecircumflex,
edieresis,
egrave,
f,
g,
h,
i,
iacute,
icircumflex,
idieresis,
igrave,
ij,
j,
k,
l,
m,
n,
ntilde,
o,
oacute,
ocircumflex,
odieresis,
ograve,
oslash,
otilde,
oe,
p,
thorn,
q,
r,
s,
scaron,
germandbls,
t,
u,
uacute,
ucircumflex,
udieresis,
ugrave,
v,
w,
x,
y,
yacute,
ydieresis,
z,
zcaron,
f_f,
f_f_i,
f_f_l,
fi,
fl,
ordfeminine,
ordmasculine,
zero,
one,
two,
three,
four,
five,
six,
seven,
eight,
nine,
uni00B9,
uni00B2,
uni00B3,
onehalf,
onequarter,
threequarters,
oneeighth,
threeeighths,
fiveeighths,
seveneighths,
asterisk,
backslash,
periodcentered,
bullet,
colon,
comma,
ellipsis,
exclam,
exclamdown,
numbersign,
period,
question,
questiondown,
quotedbl,
quotesingle,
semicolon,
slash,
underscore,
braceleft,
braceright,
bracketleft,
bracketright,
parenleft,

glyphs = (
{
glyphname = A;
layers = (
{
hints = (
{
horizontal = 1;
place = "{-5.23, 710.23}";
type = Stem;
},
{
place = "{225.37, 34.63}";
type = Stem;
}
);
layerId = "9B0E9E80-6738-4704-8EC6-A4FB4E6479F4";
paths = (
{
closed = 1;
nodes = (
"437 1 LINE",
"437 0 LINE",
"271 -4 OFFCURVE",
"395 -6 OFFCURVE",
"371 -5 CURVE SMOOTH",
"347 -4 OFFCURVE",
"324 -1 OFFCURVE",
"303 4 CURVE",
"302 4 LINE",
"298 15 OFFCURVE",
"294 27 OFFCURVE",
"291 42 CURVE",
"287 57 OFFCURVE",
"283 72 OFFCURVE",
"280 87 CURVE",
"276 102 OFFCURVE",
"272 117 OFFCURVE",
"268 131 CURVE SMOOTH",
"264 145 OFFCURVE",
"260 157 OFFCURVE",
"255 167 CURVE",
"246 168 OFFCURVE",
"240 169 OFFCURVE",
"235 169 CURVE SMOOTH",
"230 169 OFFCURVE",
"226 169 OFFCURVE",
"223 169 CURVE SMOOTH",
"219 169 OFFCURVE",
"215 169 OFFCURVE",
"211 169 CURVE",
"206 168 OFFCURVE",
"200 168 OFFCURVE",
"193 168 CURVE",
"188 157 OFFCURVE",
"185 145 OFFCURVE",
"182 131 CURVE SMOOTH",
"179 116 OFFCURVE",
"176 101 OFFCURVE",
"173 86 CURVE SMOOTH",
"170 70 OFFCURVE",
"166 55 OFFCURVE",
"163 40 CURVE SMOOTH",
"160 25 OFFCURVE",
"155 12 OFFCURVE",
"149 1 CURVE",
"148 1 OFFCURVE",
"148 1 OFFCURVE",
"148 1 CURVE",
"147 0 OFFCURVE",
"147 0 OFFCURVE",
"146 0 CURVE",
"141 -1 OFFCURVE",
"127 -1 OFFCURVE",
"106 0 CURVE SMOOTH",
"85 1 OFFCURVE",
"51 2 OFFCURVE",
"6 1 CURVE SMOOTH",
"5 1 OFFCURVE",
"5 1 OFFCURVE",
"4 2 CURVE",
"5 7 OFFCURVE",
"8 20 OFFCURVE",
"11 41 CURVE SMOOTH",
"14 62 OFFCURVE",
"19 90 OFFCURVE",
"25 124 CURVE SMOOTH",
"31 158 OFFCURVE",
"38 197 OFFCURVE",
"47 242 CURVE SMOOTH",
"55 286 OFFCURVE",
"65 333 OFFCURVE",
"76 383 CURVE SMOOTH",
"87 433 OFFCURVE",
"100 485 OFFCURVE",
"113 539 CURVE SMOOTH",
"126 593 OFFCURVE",
"141 647 OFFCURVE",
"157 700 CURVE",
"162 701 OFFCURVE",
"167 701 OFFCURVE",
"172 701 CURVE SMOOTH",
"177 701 OFFCURVE",
"184 701 OFFCURVE",
"193 701 CURVE SMOOTH",
"202 701 OFFCURVE",
"213 701 OFFCURVE",
"227 702 CURVE",
"240 702 OFFCURVE",
"258 703 OFFCURVE",
"280 705 CURVE",
"282 696 OFFCURVE",
"285 683 OFFCURVE",
"290 666 CURVE",
"294 648 OFFCURVE",
"299 628 OFFCURVE",
"304 606 CURVE SMOOTH",
"309 583 OFFCURVE",
"314 559 OFFCURVE",
"320 534 CURVE",
"325 509 OFFCURVE",
"331 484 OFFCURVE",
"336 461 CURVE SMOOTH",
"341 438 OFFCURVE",
"346 416 OFFCURVE",
"351 397 CURVE SMOOTH",
"356 378 OFFCURVE",
"359 362 OFFCURVE",
"362 351 CURVE"
);
},
{
closed = 1;
nodes = (
"256 307 OFFCURVE",
"209 285 OFFCURVE",
"222 286 CURVE",
"235 286 OFFCURVE",
"247 286 OFFCURVE",
"260 286 CURVE",
"253 343 OFFCURVE",
"248 388 OFFCURVE",
"243 420 CURVE SMOOTH",
"238 452 OFFCURVE",
"233 474 OFFCURVE",
"230 485 CURVE",
"226 496 OFFCURVE",
"222 499 OFFCURVE",
"219 493 CURVE",
"215 486 OFFCURVE",
"212 473 OFFCURVE",
"209 454 CURVE SMOOTH",
"206 435 OFFCURVE",
"202 410 OFFCURVE",
"199 381 CURVE SMOOTH",
"195 352 OFFCURVE",
"191 320 OFFCURVE",
"186 286 CURVE"
);
}
);
width = 434;
}
);
leftKerningGroup = A;
note = A;
rightKerningGroup = A;
unicode = 0041;
},
{
glyphname = Aacute;
layers = (
{
hints = (
{
horizontal = 1;
place = "{702, 46}";
type = Stem;
},
{
place = "{280, 26.85}";
type = Stem;
},
{
place = "{225.37, 34.63}";
type = Stem;
}
);
layerId = "9B0E9E80-6738-4704-8EC6-A4FB4E6479F4";
paths = (
{
closed = 1;
nodes = (
"368 847 LINE",
"367 846 LINE",
"240 559 OFFCURVE",
"355 835 OFFCURVE",
"345 826 CURVE SMOOTH",
"335 817 OFFCURVE",
"325 808 OFFCURVE",
"314 799 CURVE",
"303 789 OFFCURVE",
"293 780 OFFCURVE",
"284 771 CURVE SMOOTH",
"275 762 OFFCURVE",
"269 755 OFFCURVE",
"266 750 CURVE",
"255 749 OFFCURVE",
"243 748 OFFCURVE",
"230 748 CURVE",
"216 747 OFFCURVE",
"203 747 OFFCURVE",
"190 748 CURVE SMOOTH",
"177 749 OFFCURVE",
"165 750 OFFCURVE",
"155 751 CURVE SMOOTH",
"144 752 OFFCURVE",
"137 753 OFFCURVE",
"132 754 CURVE",
"143 765 OFFCURVE",
"156 778 OFFCURVE",
"171 793 CURVE SMOOTH",
"185 808 OFFCURVE",
"200 823 OFFCURVE",
"215 839 CURVE SMOOTH",
"230 854 OFFCURVE",
"244 869 OFFCURVE",
"259 883 CURVE",
"274 896 OFFCURVE",
"287 908 OFFCURVE",
"299 917 CURVE"
);
},
{
closed = 1;
nodes = (
"437 1 LINE",
"437 0 LINE",
"371 302 OFFCURVE",
"395 -6 OFFCURVE",
"371 -5 CURVE SMOOTH",
"347 -4 OFFCURVE",
"324 -1 OFFCURVE",
"303 4 CURVE",
"302 4 LINE",
"298 15 OFFCURVE",
"294 27 OFFCURVE",
"291 42 CURVE",
"287 57 OFFCURVE",
"283 72 OFFCURVE",
"280 87 CURVE",
"276 102 OFFCURVE",
"272 117 OFFCURVE",
"268 131 CURVE SMOOTH",
"264 145 OFFCURVE",
"260 157 OFFCURVE",
"255 167 CURVE",
"246 168 OFFCURVE",
"240 169 OFFCURVE",
"235 169 CURVE SMOOTH",
"230 169 OFFCURVE",
"226 169 OFFCURVE",
"223 169 CURVE SMOOTH",
"219 169 OFFCURVE",
"215 169 OFFCURVE",
"211 169 CURVE",
"206 168 OFFCURVE",
"200 168 OFFCURVE",
"193 168 CURVE",
"188 157 OFFCURVE",
"185 145 OFFCURVE",
"182 131 CURVE SMOOTH",
"179 116 OFFCURVE",
"176 101 OFFCURVE",
"173 86 CURVE SMOOTH",
"170 70 OFFCURVE",
"166 55 OFFCURVE",
"163 40 CURVE SMOOTH",
"160 25 OFFCURVE",
"155 12 OFFCURVE",
"149 1 CURVE",
"148 1 OFFCURVE",
"148 1 OFFCURVE",
"148 1 CURVE",
"147 0 OFFCURVE",
"147 0 OFFCURVE",
"146 0 CURVE",
"141 -1 OFFCURVE",
"127 -1 OFFCURVE",
"106 0 CURVE SMOOTH",
"85 1 OFFCURVE",
"51 2 OFFCURVE",
"6 1 CURVE SMOOTH",
"5 1 OFFCURVE",
"5 1 OFFCURVE",
"4 2 CURVE",
"5 7 OFFCURVE",
"7 20 OFFCURVE",
"11 41 CURVE",
"14 62 OFFCURVE",
"19 90 OFFCURVE",
"25 124 CURVE SMOOTH",
"31 158 OFFCURVE",
"38 197 OFFCURVE",
"47 242 CURVE SMOOTH",
"55 286 OFFCURVE",
"65 333 OFFCURVE",
"76 383 CURVE SMOOTH",
"87 433 OFFCURVE",
"100 485 OFFCURVE",
"113 539 CURVE SMOOTH",
"126 593 OFFCURVE",
"141 647 OFFCURVE",
"157 700 CURVE",
"162 701 OFFCURVE",
"167 701 OFFCURVE",
"172 701 CURVE SMOOTH",
"177 701 OFFCURVE",
"184 701 OFFCURVE",
"193 701 CURVE SMOOTH",
"202 701 OFFCURVE",
"213 701 OFFCURVE",
"227 702 CURVE",
"240 702 OFFCURVE",
"258 703 OFFCURVE",
"280 705 CURVE",
"283 696 OFFCURVE",
"286 683 OFFCURVE",
"290 666 CURVE SMOOTH",
"294 648 OFFCURVE",
"299 628 OFFCURVE",
"304 606 CURVE SMOOTH",
"309 583 OFFCURVE",
"314 559 OFFCURVE",
"320 534 CURVE",
"325 509 OFFCURVE",
"331 484 OFFCURVE",
"336 461 CURVE SMOOTH",
"341 438 OFFCURVE",
"346 416 OFFCURVE",
"351 397 CURVE SMOOTH",
"356 378 OFFCURVE",
"359 362 OFFCURVE",
"362 351 CURVE"
);
},
{
closed = 1;
nodes = (
"256 307 OFFCURVE",
"209 285 OFFCURVE",
"222 286 CURVE",
"235 286 OFFCURVE",
"247 286 OFFCURVE",
"260 286 CURVE",
"253 343 OFFCURVE",
"248 388 OFFCURVE",
"243 420 CURVE SMOOTH",
"238 452 OFFCURVE",
"233 474 OFFCURVE",
"230 485 CURVE",
"226 496 OFFCURVE",
"222 499 OFFCURVE",
"219 493 CURVE",
"215 486 OFFCURVE",
"212 473 OFFCURVE",
"209 454 CURVE SMOOTH",
"206 435 OFFCURVE",
"202 410 OFFCURVE",
"199 381 CURVE SMOOTH",
"195 352 OFFCURVE",
"191 320 OFFCURVE",
"186 286 CURVE"
);
}
);
width = 434;
}
);
leftKerningGroup = A;
note = Aacute;
rightKerningGroup = A;
unicode = 00C1;
},
{
glyphname = Acircumflex;
layers = (
{
hints = (
{
horizontal = 1;
place = "{701, 50}";
type = Stem;
},
{
place = "{280, 45.71}";
type = Stem;
},
{
horizontal = 1;
place = "{645, 104}";
type = Stem;
},
{
place = "{225.37, 34.63}";
type = Stem;
}
);
layerId = "9B0E9E80-6738-4704-8EC6-A4FB4E6479F4";
paths = (
{
closed = 1;
nodes = (
"384 756 LINE",
"255 505 OFFCURVE",
"380 757 OFFCURVE",
"374 756 CURVE SMOOTH",
"368 755 OFFCURVE",
"360 753 OFFCURVE",
"350 752 CURVE SMOOTH",
"339 751 OFFCURVE",
"327 750 OFFCURVE",
"314 749 CURVE SMOOTH",
"300 748 OFFCURVE",
"285 749 OFFCURVE",
"269 751 CURVE",
"267 751 OFFCURVE",
"264 753 OFFCURVE",
"259 758 CURVE",
"254 762 OFFCURVE",
"250 767 OFFCURVE",
"245 773 CURVE",
"240 778 OFFCURVE",
"235 784 OFFCURVE",
"230 789 CURVE SMOOTH",
"225 794 OFFCURVE",
"221 798 OFFCURVE",
"218 800 CURVE",
"215 799 OFFCURVE",
"212 796 OFFCURVE",
"207 791 CURVE SMOOTH",
"202 786 OFFCURVE",
"197 780 OFFCURVE",
"192 775 CURVE",
"187 769 OFFCURVE",
"182 764 OFFCURVE",
"177 759 CURVE SMOOTH",
"172 754 OFFCURVE",
"169 752 OFFCURVE",
"166 751 CURVE",
"160 750 OFFCURVE",
"155 750 OFFCURVE",
"152 750 CURVE SMOOTH",
"148 750 OFFCURVE",
"143 750 OFFCURVE",
"137 751 CURVE",
"130 751 OFFCURVE",
"121 751 OFFCURVE",
"110 752 CURVE SMOOTH",
"98 753 OFFCURVE",
"81 754 OFFCURVE",
"59 755 CURVE",
"82 786 OFFCURVE",
"107 814 OFFCURVE",
"135 839 CURVE SMOOTH",
"163 864 OFFCURVE",
"192 891 OFFCURVE",
"221 918 CURVE"
);
},
{
closed = 1;
nodes = (
"437 1 LINE",
"437 0 LINE",
"345 302 OFFCURVE",
"395 -6 OFFCURVE",
"371 -5 CURVE SMOOTH",
"347 -4 OFFCURVE",
"324 -1 OFFCURVE",
"303 4 CURVE",
"302 4 LINE",
"298 15 OFFCURVE",
"294 27 OFFCURVE",
"291 42 CURVE",
"287 57 OFFCURVE",
"283 72 OFFCURVE",
"280 87 CURVE",
"276 102 OFFCURVE",
"272 117 OFFCURVE",
"268 131 CURVE SMOOTH",
"264 145 OFFCURVE",
"260 157 OFFCURVE",
"255 167 CURVE",
"246 168 OFFCURVE",
"240 169 OFFCURVE",
"235 169 CURVE SMOOTH",
"230 169 OFFCURVE",
"226 169 OFFCURVE",
"223 169 CURVE SMOOTH",
"219 169 OFFCURVE",
"215 169 OFFCURVE",
"211 169 CURVE",
"206 168 OFFCURVE",
"200 168 OFFCURVE",
"193 168 CURVE",
"188 157 OFFCURVE",
"185 145 OFFCURVE",
"182 131 CURVE SMOOTH",
"179 116 OFFCURVE",
"176 101 OFFCURVE",
"173 86 CURVE SMOOTH",
"170 70 OFFCURVE",
"166 55 OFFCURVE",
"163 40 CURVE SMOOTH",
"160 25 OFFCURVE",
"155 12 OFFCURVE",
"149 1 CURVE",
"148 1 OFFCURVE",
"148 1 OFFCURVE",
"148 1 CURVE",
"147 0 OFFCURVE",
"147 0 OFFCURVE",
"146 0 CURVE",
"141 -1 OFFCURVE",
"127 -1 OFFCURVE",
"106 0 CURVE SMOOTH",
"85 1 OFFCURVE",
"51 2 OFFCURVE",
"6 1 CURVE SMOOTH",
"5 1 OFFCURVE",
"5 1 OFFCURVE",
"4 2 CURVE",
"5 7 OFFCURVE",
"8 20 OFFCURVE",
"11 41 CURVE SMOOTH",
"14 62 OFFCURVE",
"19 90 OFFCURVE",
"25 124 CURVE SMOOTH",
"31 158 OFFCURVE",
"38 197 OFFCURVE",
"47 242 CURVE SMOOTH",
"55 286 OFFCURVE",
"65 333 OFFCURVE",
"76 383 CURVE SMOOTH",
"87 433 OFFCURVE",
"100 485 OFFCURVE",
"113 539 CURVE SMOOTH",
"126 593 OFFCURVE",
"141 647 OFFCURVE",
"157 700 CURVE",
"162 701 OFFCURVE",
"167 701 OFFCURVE",
"172 701 CURVE SMOOTH",
"177 701 OFFCURVE",
"184 701 OFFCURVE",
"193 701 CURVE SMOOTH",
"202 701 OFFCURVE",
"213 701 OFFCURVE",
"227 702 CURVE",
"240 702 OFFCURVE",
"258 703 OFFCURVE",
"280 705 CURVE",
"282 696 OFFCURVE",
"285 683 OFFCURVE",
"290 666 CURVE",
"294 648 OFFCURVE",
"299 628 OFFCURVE",
"304 606 CURVE SMOOTH",
"309 583 OFFCURVE",
"314 559 OFFCURVE",
"320 534 CURVE",
"325 509 OFFCURVE",
"331 484 OFFCURVE",
"336 461 CURVE SMOOTH",
"341 438 OFFCURVE",
"346 416 OFFCURVE",
"351 397 CURVE SMOOTH",
"356 378 OFFCURVE",
"359 362 OFFCURVE",
"362 351 CURVE"
);
},
{
closed = 1;
nodes = (
"256 307 OFFCURVE",
"209 285 OFFCURVE",
"222 286 CURVE",
"235 286 OFFCURVE",
"247 286 OFFCURVE",
"260 286 CURVE",
"253 343 OFFCURVE",
"248 388 OFFCURVE",
"243 420 CURVE SMOOTH",
"238 452 OFFCURVE",
"233 474 OFFCURVE",
"230 485 CURVE",
"226 496 OFFCURVE",
"222 499 OFFCURVE",
"219 493 CURVE",
"215 486 OFFCURVE",
"212 473 OFFCURVE",
"209 454 CURVE SMOOTH",
"206 435 OFFCURVE",
"202 410 OFFCURVE",
"199 381 CURVE SMOOTH",
"195 352 OFFCURVE",
"191 320 OFFCURVE",
"186 286 CURVE"
);
}
);
width = 434;
}
);
leftKerningGroup = A;
note = Acircumflex;
rightKerningGroup = A;
unicode = 00C2;
},
{
glyphname = Adieresis;
layers = (
{
hints = (
{
horizontal = 1;
place = "{0, 21}";
target = up;
type = BottomGhost;
},
{
horizontal = 1;
place = "{701, 58}";
type = Stem;
},
{
place = "{171, 60.37}";
type = Stem;
},
{
place = "{225.37, 34.63}";
type = Stem;
}
);
layerId = "9B0E9E80-6738-4704-8EC6-A4FB4E6479F4";
paths = (
{
closed = 1;
nodes = (
"169 758 LINE",
"72 759 LINE",
"69 759 LINE",
"45 513 OFFCURVE",
"67 774 OFFCURVE",
"67 784 CURVE",
"66 793 OFFCURVE",
"66 803 OFFCURVE",
"67 813 CURVE",
"67 823 OFFCURVE",
"67 832 OFFCURVE",
"68 841 CURVE",
"68 850 OFFCURVE",
"68 856 OFFCURVE",
"68 860 CURVE",
"74 862 OFFCURVE",
"82 864 OFFCURVE",
"93 865 CURVE SMOOTH",
"103 866 OFFCURVE",
"114 867 OFFCURVE",
"125 867 CURVE SMOOTH",
"136 867 OFFCURVE",
"146 867 OFFCURVE",
"156 866 CURVE SMOOTH",
"165 865 OFFCURVE",
"172 863 OFFCURVE",
"177 861 CURVE",
"177 860 OFFCURVE",
"177 856 OFFCURVE",
"176 847 CURVE SMOOTH",
"175 838 OFFCURVE",
"175 828 OFFCURVE",
"174 817 CURVE SMOOTH",
"173 805 OFFCURVE",
"173 794 OFFCURVE",
"172 783 CURVE SMOOTH",
"171 772 OFFCURVE",
"171 765 OFFCURVE",
"171 760 CURVE SMOOTH",
"171 759 LINE",
"171 758 LINE"
);
},
{
closed = 1;
nodes = (
"343 758 LINE",
"246 759 LINE",
"243 759 LINE",
"218 766 OFFCURVE",
"241 774 OFFCURVE",
"241 784 CURVE",
"240 793 OFFCURVE",
"240 803 OFFCURVE",
"241 813 CURVE",
"241 823 OFFCURVE",
"241 832 OFFCURVE",
"242 841 CURVE",
"242 850 OFFCURVE",
"242 856 OFFCURVE",
"242 860 CURVE",
"248 862 OFFCURVE",
"256 864 OFFCURVE",
"267 865 CURVE SMOOTH",
"277 866 OFFCURVE",
"288 867 OFFCURVE",
"299 867 CURVE SMOOTH",
"310 867 OFFCURVE",
"320 867 OFFCURVE",
"330 866 CURVE SMOOTH",
"339 865 OFFCURVE",
"346 863 OFFCURVE",
"351 861 CURVE",
"351 860 OFFCURVE",
"351 856 OFFCURVE",
"350 847 CURVE SMOOTH",
"349 838 OFFCURVE",
"349 828 OFFCURVE",
"348 817 CURVE SMOOTH",
"347 805 OFFCURVE",
"347 794 OFFCURVE",
"346 783 CURVE SMOOTH",
"345 772 OFFCURVE",
"345 765 OFFCURVE",
"345 760 CURVE SMOOTH",
"345 759 LINE",
"345 758 LINE"
);
},
{
closed = 1;
nodes = (
"437 1 LINE",
"437 0 LINE",
"386 249 OFFCURVE",
"395 -6 OFFCURVE",
"371 -5 CURVE SMOOTH",
"347 -4 OFFCURVE",
"324 -1 OFFCURVE",
"303 4 CURVE",
"302 4 LINE",
"298 15 OFFCURVE",
"294 27 OFFCURVE",
"291 42 CURVE",
"287 57 OFFCURVE",
"283 72 OFFCURVE",
"280 87 CURVE",
"276 102 OFFCURVE",
"272 117 OFFCURVE",
"268 131 CURVE SMOOTH",
"264 145 OFFCURVE",
"260 157 OFFCURVE",
"255 167 CURVE",
"246 168 OFFCURVE",
"240 169 OFFCURVE",
"235 169 CURVE SMOOTH",
"230 169 OFFCURVE",
"226 169 OFFCURVE",
"223 169 CURVE SMOOTH",
"219 169 OFFCURVE",
"215 169 OFFCURVE",
"211 169 CURVE",
"206 168 OFFCURVE",
"200 168 OFFCURVE",
"193 168 CURVE",
"188 157 OFFCURVE",
"185 145 OFFCURVE",
"182 131 CURVE SMOOTH",
"179 116 OFFCURVE",
"176 101 OFFCURVE",
"173 86 CURVE SMOOTH",
"170 70 OFFCURVE",
"166 55 OFFCURVE",
"163 40 CURVE SMOOTH",
"160 25 OFFCURVE",
"155 12 OFFCURVE",
"149 1 CURVE",
"148 1 OFFCURVE",
"148 1 OFFCURVE",
"148 1 CURVE",
"147 0 OFFCURVE",
"147 0 OFFCURVE",
"146 0 CURVE",
"141 -1 OFFCURVE",
"127 -1 OFFCURVE",
"106 0 CURVE SMOOTH",
"85 1 OFFCURVE",
"51 2 OFFCURVE",
"6 1 CURVE SMOOTH",
"5 1 OFFCURVE",
"5 1 OFFCURVE",
"4 2 CURVE",
"5 7 OFFCURVE",
"8 20 OFFCURVE",
"11 41 CURVE SMOOTH",
"14 62 OFFCURVE",
"19 90 OFFCURVE",
"25 124 CURVE SMOOTH",
"31 158 OFFCURVE",
"38 197 OFFCURVE",
"47 242 CURVE SMOOTH",
"55 286 OFFCURVE",
"65 333 OFFCURVE",
"76 383 CURVE SMOOTH",
"87 433 OFFCURVE",
"100 485 OFFCURVE",
"113 539 CURVE SMOOTH",
"126 593 OFFCURVE",
"141 647 OFFCURVE",
"157 700 CURVE",
"162 701 OFFCURVE",
"167 701 OFFCURVE",
"172 701 CURVE SMOOTH",
"177 701 OFFCURVE",
"184 701 OFFCURVE",
"193 701 CURVE SMOOTH",
"202 701 OFFCURVE",
"213 701 OFFCURVE",
"227 702 CURVE",
"240 702 OFFCURVE",
"258 703 OFFCURVE",
"280 705 CURVE",
"282 696 OFFCURVE",
"285 683 OFFCURVE",
"290 666 CURVE",
"294 648 OFFCURVE",
"299 628 OFFCURVE",
"304 606 CURVE SMOOTH",
"309 583 OFFCURVE",
"314 559 OFFCURVE",
"320 534 CURVE",
"325 509 OFFCURVE",
"331 484 OFFCURVE",
"336 461 CURVE SMOOTH",
"341 438 OFFCURVE",
"346 416 OFFCURVE",
"351 397 CURVE SMOOTH",
"356 378 OFFCURVE",
"359 362 OFFCURVE",
"362 351 CURVE"
);
},
{
closed = 1;
nodes = (
"256 307 OFFCURVE",
"209 285 OFFCURVE",
"222 286 CURVE",
"235 286 OFFCURVE",
"247 286 OFFCURVE",
"260 286 CURVE",
"253 343 OFFCURVE",
"248 388 OFFCURVE",
"243 420 CURVE SMOOTH",
"238 452 OFFCURVE",
"233 474 OFFCURVE",
"230 485 CURVE",
"226 496 OFFCURVE",
"222 499 OFFCURVE",
"219 493 CURVE",
"215 486 OFFCURVE",
"212 473 OFFCURVE",
"209 454 CURVE SMOOTH",
"206 435 OFFCURVE",
"202 410 OFFCURVE",
"199 381 CURVE SMOOTH",
"195 352 OFFCURVE",
"191 320 OFFCURVE",
"186 286 CURVE"
);
}
);
width = 434;
}
);
leftKerningGroup = A;
note = Adieresis;
rightKerningGroup = A;
unicode = 00C4;
},
{
glyphname = Agrave;
layers = (
{
hints = (
{
horizontal = 1;
place = "{701, 47}";
type = Stem;
},
{
place = "{114.9, 8.1}";
type = Stem;
},
{
place = "{225.37, 34.63}";
type = Stem;
},
{
place = "{356.85, 80.15}";
type = Stem;
}
);
layerId = "9B0E9E80-6738-4704-8EC6-A4FB4E6479F4";
paths = (
{
closed = 1;
nodes = (
"54 847 LINE",
"123 917 LINE",
"94 602 OFFCURVE",
"148 896 OFFCURVE",
"163 883 CURVE",
"178 869 OFFCURVE",
"193 854 OFFCURVE",
"208 839 CURVE SMOOTH",
"223 823 OFFCURVE",
"237 808 OFFCURVE",
"252 793 CURVE SMOOTH",
"266 778 OFFCURVE",
"279 765 OFFCURVE",
"290 754 CURVE",
"285 753 OFFCURVE",
"278 752 OFFCURVE",
"267 751 CURVE SMOOTH",
"256 750 OFFCURVE",
"245 749 OFFCURVE",
"232 748 CURVE SMOOTH",
"219 747 OFFCURVE",
"205 747 OFFCURVE",
"192 748 CURVE",
"179 748 OFFCURVE",
"167 749 OFFCURVE",
"156 750 CURVE",
"153 755 OFFCURVE",
"147 762 OFFCURVE",
"138 771 CURVE SMOOTH",
"129 780 OFFCURVE",
"119 789 OFFCURVE",
"108 799 CURVE",
"97 808 OFFCURVE",
"87 817 OFFCURVE",
"77 826 CURVE SMOOTH",
"67 835 OFFCURVE",
"60 841 OFFCURVE",
"55 846 CURVE SMOOTH"
);
},
{
closed = 1;
nodes = (
"437 1 LINE",
"437 0 LINE",
"290 278 OFFCURVE",
"395 -6 OFFCURVE",
"371 -5 CURVE SMOOTH",
"347 -4 OFFCURVE",
"324 -1 OFFCURVE",
"303 4 CURVE",
"302 4 LINE",
"298 15 OFFCURVE",
"294 27 OFFCURVE",
"291 42 CURVE",
"287 57 OFFCURVE",
"283 72 OFFCURVE",
"280 87 CURVE",
"276 102 OFFCURVE",
"272 117 OFFCURVE",
"268 131 CURVE SMOOTH",
"264 145 OFFCURVE",
"260 157 OFFCURVE",
"255 167 CURVE",
"246 168 OFFCURVE",
"240 169 OFFCURVE",
"235 169 CURVE SMOOTH",
"230 169 OFFCURVE",
"226 169 OFFCURVE",
"223 169 CURVE SMOOTH",
"219 169 OFFCURVE",
"215 169 OFFCURVE",
"211 169 CURVE",
"206 168 OFFCURVE",
"200 168 OFFCURVE",
"193 168 CURVE",
"188 157 OFFCURVE",
"185 145 OFFCURVE",
"182 131 CURVE SMOOTH",
"179 116 OFFCURVE",
"176 101 OFFCURVE",
"173 86 CURVE SMOOTH",
"170 70 OFFCURVE",
"166 55 OFFCURVE",
"163 40 CURVE SMOOTH",
"160 25 OFFCURVE",
"155 12 OFFCURVE",
"149 1 CURVE",
"148 1 OFFCURVE",
"148 1 OFFCURVE",
"148 1 CURVE",
"147 0 OFFCURVE",
"147 0 OFFCURVE",
"146 0 CURVE",
"141 -1 OFFCURVE",
"127 -1 OFFCURVE",
"106 0 CURVE SMOOTH",
"85 1 OFFCURVE",
"51 2 OFFCURVE",
"6 1 CURVE SMOOTH",
"5 1 OFFCURVE",
"5 1 OFFCURVE",
"4 2 CURVE",
"5 7 OFFCURVE",
"7 20 OFFCURVE",
"11 41 CURVE",
"14 62 OFFCURVE",
"19 90 OFFCURVE",
"25 124 CURVE SMOOTH",
"31 158 OFFCURVE",
"38 197 OFFCURVE",
"47 242 CURVE SMOOTH",
"55 286 OFFCURVE",
"65 333 OFFCURVE",
"76 383 CURVE SMOOTH",
"87 433 OFFCURVE",
"100 485 OFFCURVE",
"113 539 CURVE SMOOTH",
"126 593 OFFCURVE",
"141 647 OFFCURVE",
"157 700 CURVE",
"162 701 OFFCURVE",
"167 701 OFFCURVE",
"172 701 CURVE SMOOTH",
"177 701 OFFCURVE",
"184 701 OFFCURVE",
"193 701 CURVE SMOOTH",
"202 701 OFFCURVE",
"213 701 OFFCURVE",
"227 702 CURVE",
"240 702 OFFCURVE",
"258 703 OFFCURVE",
"280 705 CURVE",
"283 696 OFFCURVE",
"286 683 OFFCURVE",
"290 666 CURVE SMOOTH",
"294 648 OFFCURVE",
"299 628 OFFCURVE",
"304 606 CURVE SMOOTH",
"309 583 OFFCURVE",
"314 559 OFFCURVE",
"320 534 CURVE",
"325 509 OFFCURVE",
"331 484 OFFCURVE",
"336 461 CURVE SMOOTH",
"341 438 OFFCURVE",
"346 416 OFFCURVE",
"351 397 CURVE SMOOTH",
"356 378 OFFCURVE",
"359 362 OFFCURVE",
"362 351 CURVE"
);
},
{
closed = 1;
nodes = (
"256 307 OFFCURVE",
"209 285 OFFCURVE",
"222 286 CURVE",
"235 286 OFFCURVE",
"247 286 OFFCURVE",
"260 286 CURVE",
"253 343 OFFCURVE",
"248 388 OFFCURVE",
"243 420 CURVE SMOOTH",
"238 452 OFFCURVE",
"233 474 OFFCURVE",
"230 485 CURVE",
"226 496 OFFCURVE",
"222 499 OFFCURVE",
"219 493 CURVE",
"215 486 OFFCURVE",
"212 473 OFFCURVE",
"209 454 CURVE SMOOTH",
"206 435 OFFCURVE",
"202 410 OFFCURVE",
"199 381 CURVE SMOOTH",
"195 352 OFFCURVE",
"191 320 OFFCURVE",
"186 286 CURVE"
);
}
);
width = 434;
}
);
leftKerningGroup = A;
note = Agrave;
rightKerningGroup = A;
unicode = 00C0;
},
{
glyphname = Aring;
layers = (
{
hints = (
{
horizontal = 1;
place = "{701, 50}";
type = Stem;
},
{
place = "{169, 92}";
type = Stem;
},
{
place = "{225.37, 34.63}";
type = Stem;
}
);
layerId = "9B0E9E80-6738-4704-8EC6-A4FB4E6479F4";
paths = (
{
closed = 1;
nodes = (
"205 583 OFFCURVE",
"307 864 OFFCURVE",
"306 841 CURVE SMOOTH",
"305 818 OFFCURVE",
"300 797 OFFCURVE",
"292 777 CURVE",
"286 768 OFFCURVE",
"277 762 OFFCURVE",
"266 759 CURVE SMOOTH",
"255 756 OFFCURVE",
"243 754 OFFCURVE",
"232 753 CURVE SMOOTH",
"223 752 OFFCURVE",
"213 751 OFFCURVE",
"204 751 CURVE SMOOTH",
"195 751 OFFCURVE",
"185 751 OFFCURVE",
"176 752 CURVE SMOOTH",
"167 753 OFFCURVE",
"158 756 OFFCURVE",
"149 761 CURVE SMOOTH",
"140 766 OFFCURVE",
"134 772 OFFCURVE",
"131 781 CURVE",
"128 800 OFFCURVE",
"126 819 OFFCURVE",
"125 839 CURVE SMOOTH",
"124 858 OFFCURVE",
"125 877 OFFCURVE",
"130 895 CURVE SMOOTH",
"132 902 OFFCURVE",
"136 908 OFFCURVE",
"141 915 CURVE",
"150 924 OFFCURVE",
"162 930 OFFCURVE",
"176 933 CURVE SMOOTH",
"189 936 OFFCURVE",
"204 936 OFFCURVE",
"219 935 CURVE SMOOTH",
"233 934 OFFCURVE",
"248 932 OFFCURVE",
"264 928 CURVE SMOOTH",
"279 924 OFFCURVE",
"291 917 OFFCURVE",
"298 906 CURVE"
);
},
{
closed = 1;
nodes = (
"232 896 OFFCURVE",
"195 889 OFFCURVE",
"186 885 CURVE",
"178 880 OFFCURVE",
"173 874 OFFCURVE",
"171 865 CURVE",
"170 858 OFFCURVE",
"169 853 OFFCURVE",
"169 848 CURVE SMOOTH",
"169 841 OFFCURVE",
"169 833 OFFCURVE",
"170 825 CURVE SMOOTH",
"171 816 OFFCURVE",
"174 809 OFFCURVE",
"179 804 CURVE",
"186 798 OFFCURVE",
"194 795 OFFCURVE",
"204 795 CURVE SMOOTH",
"214 795 LINE",
"218 796 OFFCURVE",
"230 797 OFFCURVE",
"239 798 CURVE SMOOTH",
"248 799 OFFCURVE",
"254 803 OFFCURVE",
"257 810 CURVE",
"258 817 OFFCURVE",
"260 824 OFFCURVE",
"261 832 CURVE SMOOTH",
"262 840 OFFCURVE",
"263 848 OFFCURVE",
"262 855 CURVE SMOOTH",
"261 864 OFFCURVE",
"258 872 OFFCURVE",
"255 877 CURVE",
"250 882 OFFCURVE",
"244 886 OFFCURVE",
"237 888 CURVE SMOOTH",
"230 890 OFFCURVE",
"223 891 OFFCURVE",
"216 891 CURVE"
);
},
{
closed = 1;
nodes = (
"437 1 LINE",
"437 0 LINE",
"343 293 OFFCURVE",
"395 -6 OFFCURVE",
"371 -5 CURVE SMOOTH",
"347 -4 OFFCURVE",
"324 -1 OFFCURVE",
"303 4 CURVE",
"302 4 LINE",
"298 15 OFFCURVE",
"294 27 OFFCURVE",
"291 42 CURVE",
"287 57 OFFCURVE",
"283 72 OFFCURVE",
"280 87 CURVE",
"276 102 OFFCURVE",
"272 117 OFFCURVE",
"268 131 CURVE SMOOTH",
"264 145 OFFCURVE",
"260 157 OFFCURVE",
"255 167 CURVE",
"246 168 OFFCURVE",
"240 169 OFFCURVE",
"235 169 CURVE SMOOTH",
"230 169 OFFCURVE",
"226 169 OFFCURVE",
"223 169 CURVE SMOOTH",
"219 169 OFFCURVE",
"215 169 OFFCURVE",
"211 169 CURVE",
"206 168 OFFCURVE",
"200 168 OFFCURVE",
"193 168 CURVE",
"188 157 OFFCURVE",
"185 145 OFFCURVE",
"182 131 CURVE SMOOTH",
"179 116 OFFCURVE",
"176 101 OFFCURVE",
"173 86 CURVE SMOOTH",
"170 70 OFFCURVE",
"166 55 OFFCURVE",
"163 40 CURVE SMOOTH",
"160 25 OFFCURVE",
"155 12 OFFCURVE",
"149 1 CURVE",
"148 1 OFFCURVE",
"148 1 OFFCURVE",
"148 1 CURVE",
"147 0 OFFCURVE",
"147 0 OFFCURVE",
"146 0 CURVE",
"141 -1 OFFCURVE",
"127 -1 OFFCURVE",
"106 0 CURVE SMOOTH",
"85 1 OFFCURVE",
"51 2 OFFCURVE",
"6 1 CURVE SMOOTH",
"5 1 OFFCURVE",
"5 1 OFFCURVE",
"4 2 CURVE",
"5 7 OFFCURVE",
"8 20 OFFCURVE",
"11 41 CURVE SMOOTH",
"14 62 OFFCURVE",
"19 90 OFFCURVE",
"25 124 CURVE SMOOTH",
"31 158 OFFCURVE",
"38 197 OFFCURVE",
"47 242 CURVE SMOOTH",
"55 286 OFFCURVE",
"65 333 OFFCURVE",
"76 383 CURVE SMOOTH",
"87 433 OFFCURVE",
"100 485 OFFCURVE",
"113 539 CURVE SMOOTH",
"126 593 OFFCURVE",
"141 647 OFFCURVE",
"157 700 CURVE",
"162 701 OFFCURVE",
"167 701 OFFCURVE",
"172 701 CURVE SMOOTH",
"177 701 OFFCURVE",
"184 701 OFFCURVE",
"193 701 CURVE SMOOTH",
"202 701 OFFCURVE",
"213 701 OFFCURVE",
"227 702 CURVE",
"240 702 OFFCURVE",
"258 703 OFFCURVE",
"280 705 CURVE",
"282 696 OFFCURVE",
"285 683 OFFCURVE",
"290 666 CURVE",
"294 648 OFFCURVE",
"299 628 OFFCURVE",
"304 606 CURVE SMOOTH",
"309 583 OFFCURVE",
"314 559 OFFCURVE",
"320 534 CURVE",
"325 509 OFFCURVE",
"331 484 OFFCURVE",
"336 461 CURVE SMOOTH",
"341 438 OFFCURVE",
"346 416 OFFCURVE",
"351 397 CURVE SMOOTH",
"356 378 OFFCURVE",
"359 362 OFFCURVE",
"362 351 CURVE"
);
},
{
closed = 1;
nodes = (
"256 307 OFFCURVE",
"209 285 OFFCURVE",
"222 286 CURVE",
"235 286 OFFCURVE",
"247 286 OFFCURVE",
"260 286 CURVE",
"253 343 OFFCURVE",
"248 388 OFFCURVE",
"243 420 CURVE SMOOTH",
"238 452 OFFCURVE",
"233 474 OFFCURVE",
"230 485 CURVE",
"226 496 OFFCURVE",
"222 499 OFFCURVE",
"219 493 CURVE",
"215 486 OFFCURVE",
"212 473 OFFCURVE",
"209 454 CURVE SMOOTH",
"206 435 OFFCURVE",
"202 410 OFFCURVE",
"199 381 CURVE SMOOTH",
"195 352 OFFCURVE",
"191 320 OFFCURVE",
"186 286 CURVE"
);
}
);
width = 434;
}
);
leftKerningGroup = A;
note = Aring;
rightKerningGroup = A;
unicode = 00C5;
},
{
glyphname = Atilde;
layers = (
{
hints = (
{
horizontal = 1;
place = "{701, 56}";
type = Stem;
},
{
place = "{225.37, 34.63}";
type = Stem;
},
{
place = "{367.62, 69.38}";
type = Stem;
},
{
horizontal = 1;
place = "{702, 49}";
type = Stem;
}
);
layerId = "9B0E9E80-6738-4704-8EC6-A4FB4E6479F4";
paths = (
{
closed = 1;
nodes = (
"134 754 LINE",
"83 504 OFFCURVE",
"118 756 OFFCURVE",
"105 757 CURVE SMOOTH",
"92 758 OFFCURVE",
"79 758 OFFCURVE",
"66 758 CURVE SMOOTH",
"51 758 OFFCURVE",
"34 758 OFFCURVE",
"17 757 CURVE",
"19 764 OFFCURVE",
"22 774 OFFCURVE",
"27 786 CURVE",
"31 797 OFFCURVE",
"36 809 OFFCURVE",
"41 822 CURVE SMOOTH",
"46 835 OFFCURVE",
"52 847 OFFCURVE",
"58 858 CURVE SMOOTH",
"64 869 OFFCURVE",
"70 879 OFFCURVE",
"77 886 CURVE SMOOTH",
"86 895 OFFCURVE",
"96 902 OFFCURVE",
"107 908 CURVE SMOOTH",
"118 914 OFFCURVE",
"130 918 OFFCURVE",
"142 920 CURVE SMOOTH",
"154 922 OFFCURVE",
"166 922 OFFCURVE",
"178 920 CURVE",
"190 917 OFFCURVE",
"201 912 OFFCURVE",
"212 905 CURVE SMOOTH",
"223 898 OFFCURVE",
"231 890 OFFCURVE",
"237 880 CURVE SMOOTH",
"243 870 OFFCURVE",
"250 862 OFFCURVE",
"259 857 CURVE",
"269 848 OFFCURVE",
"278 845 OFFCURVE",
"287 848 CURVE",
"295 850 OFFCURVE",
"303 855 OFFCURVE",
"310 862 CURVE SMOOTH",
"317 869 OFFCURVE",
"322 877 OFFCURVE",
"327 887 CURVE",
"331 896 OFFCURVE",
"334 904 OFFCURVE",
"336 910 CURVE",
"349 911 OFFCURVE",
"363 912 OFFCURVE",
"377 912 CURVE SMOOTH",
"390 912 OFFCURVE",
"404 912 OFFCURVE",
"418 913 CURVE",
"419 912 LINE",
"419 912 OFFCURVE",
"419 911 OFFCURVE",
"420 911 CURVE",
"420 910 LINE",
"422 895 OFFCURVE",
"422 878 OFFCURVE",
"419 861 CURVE SMOOTH",
"416 843 OFFCURVE",
"410 826 OFFCURVE",
"402 811 CURVE SMOOTH",
"394 796 OFFCURVE",
"384 783 OFFCURVE",
"371 772 CURVE SMOOTH",
"358 761 OFFCURVE",
"342 754 OFFCURVE",
"325 751 CURVE SMOOTH",
"304 748 OFFCURVE",
"284 750 OFFCURVE",
"265 758 CURVE",
"246 765 OFFCURVE",
"232 779 OFFCURVE",
"223 800 CURVE",
"219 807 OFFCURVE",
"214 812 OFFCURVE",
"209 816 CURVE SMOOTH",
"204 820 OFFCURVE",
"197 822 OFFCURVE",
"188 823 CURVE",
"181 823 OFFCURVE",
"172 822 OFFCURVE",
"161 819 CURVE SMOOTH",
"150 816 OFFCURVE",
"142 810 OFFCURVE",
"137 801 CURVE",
"134 795 LINE",
"132 790 OFFCURVE",
"130 781 OFFCURVE",
"130 776 CURVE SMOOTH",
"130 770 OFFCURVE",
"131 763 OFFCURVE",
"134 755 CURVE"
);
},
{
closed = 1;
nodes = (
"437 1 LINE",
"437 0 LINE",
"316 248 OFFCURVE",
"395 -6 OFFCURVE",
"371 -5 CURVE SMOOTH",
"347 -4 OFFCURVE",
"324 -1 OFFCURVE",
"303 4 CURVE",
"302 4 LINE",
"298 15 OFFCURVE",
"294 27 OFFCURVE",
"291 42 CURVE",
"287 57 OFFCURVE",
"283 72 OFFCURVE",
"280 87 CURVE",
"276 102 OFFCURVE",
"272 117 OFFCURVE",
"268 131 CURVE SMOOTH",
"264 145 OFFCURVE",
"260 157 OFFCURVE",
"255 167 CURVE",
"246 168 OFFCURVE",
"240 169 OFFCURVE",
"235 169 CURVE SMOOTH",
"230 169 OFFCURVE",
"226 169 OFFCURVE",
"223 169 CURVE SMOOTH",
"219 169 OFFCURVE",
"215 169 OFFCURVE",
"211 169 CURVE",
"206 168 OFFCURVE",
"200 168 OFFCURVE",
"193 168 CURVE",
"188 157 OFFCURVE",
"185 145 OFFCURVE",
"182 131 CURVE SMOOTH",
"179 116 OFFCURVE",
"176 101 OFFCURVE",
"173 86 CURVE SMOOTH",
"170 70 OFFCURVE",
"166 55 OFFCURVE",
"163 40 CURVE SMOOTH",
"160 25 OFFCURVE",
"155 12 OFFCURVE",
"149 1 CURVE",
"148 1 OFFCURVE",
"148 1 OFFCURVE",
"148 1 CURVE",
"147 0 OFFCURVE",
"147 0 OFFCURVE",
"146 0 CURVE",
"141 -1 OFFCURVE",
"127 -1 OFFCURVE",
"106 0 CURVE SMOOTH",
"85 1 OFFCURVE",
"51 2 OFFCURVE",
"6 1 CURVE SMOOTH",
"5 1 OFFCURVE",
"5 1 OFFCURVE",
"4 2 CURVE",
"5 7 OFFCURVE",
"8 20 OFFCURVE",
"11 41 CURVE SMOOTH",
"14 62 OFFCURVE",
"19 90 OFFCURVE",
"25 124 CURVE SMOOTH",
"31 158 OFFCURVE",
"38 197 OFFCURVE",
"47 242 CURVE SMOOTH",
"55 286 OFFCURVE",
"65 333 OFFCURVE",
"76 383 CURVE SMOOTH",
"87 433 OFFCURVE",
"100 485 OFFCURVE",
"113 539 CURVE SMOOTH",
"126 593 OFFCURVE",
"141 647 OFFCURVE",
"157 700 CURVE",
"162 701 OFFCURVE",
"167 701 OFFCURVE",
"172 701 CURVE SMOOTH",
"177 701 OFFCURVE",
"184 701 OFFCURVE",
"193 701 CURVE SMOOTH",
"202 701 OFFCURVE",
"213 701 OFFCURVE",
"227 702 CURVE",
"240 702 OFFCURVE",
"258 703 OFFCURVE",
"280 705 CURVE",
"283 696 OFFCURVE",
"286 683 OFFCURVE",
"290 666 CURVE SMOOTH",
"294 648 OFFCURVE",
"299 628 OFFCURVE",
"304 606 CURVE SMOOTH",
"309 583 OFFCURVE",
"314 559 OFFCURVE",
"320 534 CURVE",
"325 509 OFFCURVE",
"331 484 OFFCURVE",
"336 461 CURVE SMOOTH",
"341 438 OFFCURVE",
"346 416 OFFCURVE",
"351 397 CURVE SMOOTH",
"356 378 OFFCURVE",
"359 362 OFFCURVE",
"362 351 CURVE"
);
},
{
closed = 1;
nodes = (
"256 307 OFFCURVE",
"209 285 OFFCURVE",
"222 286 CURVE",
"235 286 OFFCURVE",
"247 286 OFFCURVE",
"260 286 CURVE",
"253 343 OFFCURVE",
"248 388 OFFCURVE",
"243 420 CURVE SMOOTH",
"238 452 OFFCURVE",
"233 474 OFFCURVE",
"230 485 CURVE",
"226 496 OFFCURVE",
"222 499 OFFCURVE",
"219 493 CURVE",
"215 486 OFFCURVE",
"212 473 OFFCURVE",
"209 454 CURVE SMOOTH",
"206 435 OFFCURVE",
"202 410 OFFCURVE",
"199 381 CURVE SMOOTH",
"195 352 OFFCURVE",
"191 320 OFFCURVE",
"186 286 CURVE"
);
}
);
width = 434;
}
);
leftKerningGroup = A;
note = Atilde;
rightKerningGroup = A;
unicode = 00C3;
},
{
glyphname = AE;
layers = (
{
hints = (
{
horizontal = 1;
place = "{-1, 21}";
target = up;
type = BottomGhost;
},
{
horizontal = 1;
place = "{142, 134}";
type = Stem;
},
{
horizontal = 1;
place = "{422, 125}";
type = Stem;
},
{
place = "{2, 696}";
type = Stem;
},
{
place = "{186, 68}";
type = Stem;
}
);
layerId = "9B0E9E80-6738-4704-8EC6-A4FB4E6479F4";
paths = (
{
closed = 1;
nodes = (
"698 134 LINE",
"469 45 OFFCURVE",
"699 47 OFFCURVE",
"692 6 CURVE",
"690 4 LINE",
"622 5 OFFCURVE",
"552 3 OFFCURVE",
"482 2 CURVE SMOOTH",
"412 0 OFFCURVE",
"345 1 OFFCURVE",
"280 5 CURVE",
"275 24 OFFCURVE",
"270 43 OFFCURVE",
"265 61 CURVE SMOOTH",
"260 78 OFFCURVE",
"255 96 OFFCURVE",
"252 115 CURVE",
"252 116 LINE",
"243 116 OFFCURVE",
"238 116 OFFCURVE",
"235 117 CURVE",
"232 117 OFFCURVE",
"230 117 OFFCURVE",
"227 117 CURVE SMOOTH",
"224 117 OFFCURVE",
"220 117 OFFCURVE",
"214 118 CURVE",
"208 118 OFFCURVE",
"198 118 OFFCURVE",
"183 118 CURVE SMOOTH",
"181 118 LINE",
"182 118 OFFCURVE",
"181 117 OFFCURVE",
"180 116 CURVE",
"175 97 OFFCURVE",
"169 78 OFFCURVE",
"163 59 CURVE SMOOTH",
"157 40 OFFCURVE",
"152 21 OFFCURVE",
"148 3 CURVE",
"147 2 OFFCURVE",
"147 2 OFFCURVE",
"147 2 CURVE SMOOTH",
"146 2 OFFCURVE",
"146 2 OFFCURVE",
"145 1 CURVE",
"123 1 OFFCURVE",
"101 2 OFFCURVE",
"78 3 CURVE SMOOTH",
"55 4 OFFCURVE",
"32 3 OFFCURVE",
"8 0 CURVE",
"7 0 OFFCURVE",
"6 0 OFFCURVE",
"5 -1 CURVE",
"4 -1 OFFCURVE",
"3 -1 OFFCURVE",
"2 -1 CURVE",
"9 36 OFFCURVE",
"14 66 OFFCURVE",
"17 88 CURVE SMOOTH",
"20 109 OFFCURVE",
"23 127 OFFCURVE",
"26 141 CURVE",
"28 155 OFFCURVE",
"30 167 OFFCURVE",
"32 177 CURVE",
"33 187 OFFCURVE",
"36 199 OFFCURVE",
"39 212 CURVE SMOOTH",
"42 225 OFFCURVE",
"46 243 OFFCURVE",
"51 264 CURVE SMOOTH",
"56 285 OFFCURVE",
"62 314 OFFCURVE",
"71 350 CURVE SMOOTH",
"80 386 OFFCURVE",
"91 432 OFFCURVE",
"104 487 CURVE SMOOTH",
"117 542 OFFCURVE",
"134 611 OFFCURVE",
"153 693 CURVE",
"183 694 OFFCURVE",
"217 696 OFFCURVE",
"255 697 CURVE SMOOTH",
"292 698 OFFCURVE",
"331 698 OFFCURVE",
"370 699 CURVE SMOOTH",
"409 700 OFFCURVE",
"448 700 OFFCURVE",
"486 701 CURVE SMOOTH",
"523 701 OFFCURVE",
"557 701 OFFCURVE",
"587 702 CURVE SMOOTH",
"617 702 OFFCURVE",
"642 702 OFFCURVE",
"661 702 CURVE",
"680 701 OFFCURVE",
"692 701 OFFCURVE",
"695 701 CURVE",
"695 700 LINE",
"695 699 LINE",
"698 676 OFFCURVE",
"698 652 OFFCURVE",
"697 628 CURVE SMOOTH",
"696 604 OFFCURVE",
"695 580 OFFCURVE",
"695 557 CURVE SMOOTH",
"695 555 LINE",
"674 551 OFFCURVE",
"652 548 OFFCURVE",
"630 547 CURVE SMOOTH",
"607 546 OFFCURVE",
"585 546 OFFCURVE",
"562 547 CURVE",
"539 547 OFFCURVE",
"517 547 OFFCURVE",
"495 547 CURVE SMOOTH",
"472 547 OFFCURVE",
"450 545 OFFCURVE",
"428 542 CURVE",
"429 533 OFFCURVE",
"429 523 OFFCURVE",
"428 513 CURVE SMOOTH",
"427 503 OFFCURVE",
"426 493 OFFCURVE",
"425 483 CURVE SMOOTH",
"424 472 OFFCURVE",
"424 462 OFFCURVE",
"425 453 CURVE SMOOTH",
"426 443 OFFCURVE",
"428 434 OFFCURVE",
"431 425 CURVE",
"450 422 OFFCURVE",
"470 421 OFFCURVE",
"491 422 CURVE SMOOTH",
"512 423 OFFCURVE",
"533 422 OFFCURVE",
"552 419 CURVE",
"557 398 OFFCURVE",
"558 375 OFFCURVE",
"557 351 CURVE",
"555 327 OFFCURVE",
"554 303 OFFCURVE",
"554 280 CURVE",
"544 278 OFFCURVE",
"533 277 OFFCURVE",
"520 277 CURVE",
"507 276 OFFCURVE",
"495 276 OFFCURVE",
"483 276 CURVE SMOOTH",
"471 276 OFFCURVE",
"460 276 OFFCURVE",
"451 275 CURVE SMOOTH",
"442 274 OFFCURVE",
"436 273 OFFCURVE",
"433 270 CURVE",
"432 260 OFFCURVE",
"432 249 OFFCURVE",
"431 237 CURVE SMOOTH",
"430 224 OFFCURVE",
"430 212 OFFCURVE",
"430 201 CURVE SMOOTH",
"430 189 OFFCURVE",
"431 178 OFFCURVE",
"432 168 CURVE SMOOTH",
"433 158 OFFCURVE",
"436 150 OFFCURVE",
"439 143 CURVE",
"440 143 LINE",
"484 141 OFFCURVE",
"528 140 OFFCURVE",
"572 141 CURVE SMOOTH",
"616 142 OFFCURVE",
"658 140 OFFCURVE",
"698 137 CURVE"
);
},
{
closed = 1;
nodes = (
"363 236 OFFCURVE",
"198 286 OFFCURVE",
"205 285 CURVE SMOOTH",
"211 284 OFFCURVE",
"217 284 OFFCURVE",
"223 283 CURVE SMOOTH",
"229 282 OFFCURVE",
"235 282 OFFCURVE",
"241 283 CURVE",
"246 283 OFFCURVE",
"251 284 OFFCURVE",
"254 287 CURVE",
"251 308 OFFCURVE",
"245 330 OFFCURVE",
"238 353 CURVE SMOOTH",
"231 375 OFFCURVE",
"224 397 OFFCURVE",
"219 418 CURVE",
"218 421 LINE",
"212 403 OFFCURVE",
"207 391 OFFCURVE",
"204 380 CURVE SMOOTH",
"201 369 OFFCURVE",
"198 359 OFFCURVE",
"196 350 CURVE",
"193 341 OFFCURVE",
"191 331 OFFCURVE",
"190 321 CURVE SMOOTH",
"189 311 OFFCURVE",
"187 299 OFFCURVE",
"186 284 CURVE",
"187 284 LINE",
"188 284 LINE"
);
}
);
width = 716;
}
);
leftKerningGroup = AE;
note = AE;
rightKerningGroup = AE;
unicode = 00C6;
},
{
glyphname = B;
layers = (
{
hints = (
{
horizontal = 1;
place = "{-5, 719}";
type = Stem;
},
{
place = "{184, 146.39}";
type = Stem;
},
{
horizontal = 1;
place = "{140, 139}";
type = Stem;
},
{
place = "{173, 139}";
type = Stem;
},
{
horizontal = 1;
place = "{418.5, 133.5}";
type = Stem;
},
{
place = "{179, 133}";
type = Stem;
}
);
layerId = "9B0E9E80-6738-4704-8EC6-A4FB4E6479F4";
paths = (
{
closed = 1;
nodes = (
"257 230 OFFCURVE",
"387 344 OFFCURVE",
"388 341 CURVE SMOOTH",
"389 338 OFFCURVE",
"392 335 OFFCURVE",
"395 331 CURVE",
"406 318 OFFCURVE",
"416 305 OFFCURVE",
"426 292 CURVE",
"435 279 OFFCURVE",
"444 265 OFFCURVE",
"451 251 CURVE SMOOTH",
"458 236 OFFCURVE",
"462 220 OFFCURVE",
"465 203 CURVE SMOOTH",
"468 186 OFFCURVE",
"467 166 OFFCURVE",
"463 145 CURVE SMOOTH",
"458 114 OFFCURVE",
"448 88 OFFCURVE",
"433 69 CURVE SMOOTH",
"418 49 OFFCURVE",
"399 34 OFFCURVE",
"378 23 CURVE SMOOTH",
"357 12 OFFCURVE",
"333 5 OFFCURVE",
"307 2 CURVE",
"281 -2 OFFCURVE",
"254 -4 OFFCURVE",
"227 -5 CURVE",
"199 -5 OFFCURVE",
"171 -4 OFFCURVE",
"144 -2 CURVE SMOOTH",
"116 0 OFFCURVE",
"90 1 OFFCURVE",
"66 2 CURVE",
"62 2 OFFCURVE",
"58 2 OFFCURVE",
"55 2 CURVE SMOOTH",
"51 2 OFFCURVE",
"47 3 OFFCURVE",
"44 4 CURVE",
"40 119 OFFCURVE",
"39 234 OFFCURVE",
"41 348 CURVE SMOOTH",
"43 461 OFFCURVE",
"43 576 OFFCURVE",
"41 692 CURVE",
"42 693 LINE",
"68 700 OFFCURVE",
"97 706 OFFCURVE",
"127 710 CURVE SMOOTH",
"157 714 OFFCURVE",
"187 715 OFFCURVE",
"216 714 CURVE SMOOTH",
"245 713 OFFCURVE",
"274 708 OFFCURVE",
"301 701 CURVE SMOOTH",
"328 694 OFFCURVE",
"351 682 OFFCURVE",
"372 666 CURVE SMOOTH",
"393 649 OFFCURVE",
"409 628 OFFCURVE",
"421 603 CURVE SMOOTH",
"433 577 OFFCURVE",
"439 545 OFFCURVE",
"439 508 CURVE SMOOTH",
"439 480 OFFCURVE",
"434 453 OFFCURVE",
"425 426 CURVE SMOOTH",
"415 399 OFFCURVE",
"403 375 OFFCURVE",
"390 352 CURVE"
);
},
{
closed = 1;
nodes = (
"265 211 OFFCURVE",
"207 140 OFFCURVE",
"218 140 CURVE",
"228 139 OFFCURVE",
"238 140 OFFCURVE",
"249 141 CURVE SMOOTH",
"259 142 OFFCURVE",
"269 144 OFFCURVE",
"278 148 CURVE",
"287 151 OFFCURVE",
"294 157 OFFCURVE",
"301 165 CURVE",
"308 175 OFFCURVE",
"312 187 OFFCURVE",
"312 201 CURVE",
"311 215 OFFCURVE",
"309 228 OFFCURVE",
"304 239 CURVE",
"300 247 OFFCURVE",
"294 254 OFFCURVE",
"286 261 CURVE",
"278 267 OFFCURVE",
"270 271 OFFCURVE",
"261 273 CURVE SMOOTH",
"248 276 OFFCURVE",
"235 278 OFFCURVE",
"222 279 CURVE",
"209 279 OFFCURVE",
"196 280 OFFCURVE",
"183 281 CURVE",
"180 271 OFFCURVE",
"178 260 OFFCURVE",
"176 247 CURVE SMOOTH",
"174 234 OFFCURVE",
"173 222 OFFCURVE",
"173 209 CURVE",
"172 196 OFFCURVE",
"173 183 OFFCURVE",
"175 171 CURVE SMOOTH",
"177 159 OFFCURVE",
"181 149 OFFCURVE",
"186 141 CURVE",
"188 140 LINE"
);
},
{
closed = 1;
nodes = (
"195 326 OFFCURVE",
"205 418 OFFCURVE",
"216 417 CURVE SMOOTH",
"227 416 OFFCURVE",
"238 417 OFFCURVE",
"249 418 CURVE SMOOTH",
"260 419 OFFCURVE",
"270 423 OFFCURVE",
"279 428 CURVE SMOOTH",
"288 433 OFFCURVE",
"295 440 OFFCURVE",
"300 450 CURVE",
"305 458 OFFCURVE",
"309 467 OFFCURVE",
"312 478 CURVE SMOOTH",
"315 489 OFFCURVE",
"314 499 OFFCURVE",
"309 510 CURVE SMOOTH",
"304 521 OFFCURVE",
"297 529 OFFCURVE",
"289 535 CURVE",
"280 540 OFFCURVE",
"271 544 OFFCURVE",
"260 547 CURVE",
"247 550 OFFCURVE",
"233 551 OFFCURVE",
"218 552 CURVE",
"203 552 OFFCURVE",
"190 549 OFFCURVE",
"180 544 CURVE",
"181 529 OFFCURVE",
"181 510 OFFCURVE",
"179 488 CURVE",
"176 466 OFFCURVE",
"178 443 OFFCURVE",
"184 420 CURVE"
);
}
);
width = 477;
}
);
note = B;
rightKerningGroup = B;
unicode = 0042;
},
{
glyphname = C;
layers = (
{
hints = (
{
horizontal = 1;
place = "{286, 135}";
type = Stem;
},
{
place = "{181, 16.27}";
type = Stem;
}
);
layerId = "9B0E9E80-6738-4704-8EC6-A4FB4E6479F4";
paths = (
{
closed = 1;
nodes = (
"153 371 OFFCURVE",
"225 555 OFFCURVE",
"216 553 CURVE SMOOTH",
"206 551 OFFCURVE",
"198 547 OFFCURVE",
"193 542 CURVE SMOOTH",
"192 541 OFFCURVE",
"191 539 OFFCURVE",
"190 536 CURVE SMOOTH",
"189 533 OFFCURVE",
"188 530 OFFCURVE",
"187 529 CURVE",
"186 527 OFFCURVE",
"185 515 OFFCURVE",
"184 494 CURVE SMOOTH",
"183 473 OFFCURVE",
"182 447 OFFCURVE",
"181 418 CURVE SMOOTH",
"180 389 OFFCURVE",
"180 358 OFFCURVE",
"180 327 CURVE SMOOTH",
"180 295 OFFCURVE",
"181 267 OFFCURVE",
"183 244 CURVE SMOOTH",
"185 225 OFFCURVE",
"190 206 OFFCURVE",
"199 188 CURVE",
"207 169 OFFCURVE",
"221 157 OFFCURVE",
"240 152 CURVE",
"255 151 OFFCURVE",
"269 153 OFFCURVE",
"282 159 CURVE",
"295 164 OFFCURVE",
"304 174 OFFCURVE",
"311 187 CURVE",
"318 202 OFFCURVE",
"322 219 OFFCURVE",
"321 236 CURVE SMOOTH",
"320 253 OFFCURVE",
"321 269 OFFCURVE",
"324 286 CURVE",
"333 285 OFFCURVE",
"344 284 OFFCURVE",
"356 285 CURVE SMOOTH",
"367 286 OFFCURVE",
"379 286 OFFCURVE",
"391 286 CURVE SMOOTH",
"403 286 OFFCURVE",
"415 286 OFFCURVE",
"427 285 CURVE SMOOTH",
"438 284 OFFCURVE",
"449 283 OFFCURVE",
"458 280 CURVE",
"469 245 OFFCURVE",
"472 211 OFFCURVE",
"467 177 CURVE SMOOTH",
"462 142 OFFCURVE",
"450 111 OFFCURVE",
"432 84 CURVE SMOOTH",
"414 57 OFFCURVE",
"391 34 OFFCURVE",
"362 17 CURVE SMOOTH",
"333 -1 OFFCURVE",
"300 -10 OFFCURVE",
"263 -11 CURVE",
"239 -14 OFFCURVE",
"214 -15 OFFCURVE",
"189 -12 CURVE SMOOTH",
"164 -9 OFFCURVE",
"140 -2 OFFCURVE",
"118 9 CURVE",
"96 19 OFFCURVE",
"78 33 OFFCURVE",
"63 52 CURVE SMOOTH",
"48 71 OFFCURVE",
"39 94 OFFCURVE",
"36 122 CURVE",
"35 146 OFFCURVE",
"34 171 OFFCURVE",
"33 197 CURVE SMOOTH",
"32 223 OFFCURVE",
"32 252 OFFCURVE",
"32 285 CURVE",
"31 317 OFFCURVE",
"31 354 OFFCURVE",
"32 395 CURVE SMOOTH",
"32 436 OFFCURVE",
"32 483 OFFCURVE",
"33 537 CURVE",
"32 548 OFFCURVE",
"32 560 OFFCURVE",
"35 572 CURVE",
"37 583 OFFCURVE",
"40 594 OFFCURVE",
"44 604 CURVE",
"50 621 OFFCURVE",
"58 637 OFFCURVE",
"67 652 CURVE SMOOTH",
"76 667 OFFCURVE",
"86 680 OFFCURVE",
"99 691 CURVE",
"106 696 OFFCURVE",
"114 701 OFFCURVE",
"123 705 CURVE",
"132 708 OFFCURVE",
"141 711 OFFCURVE",
"150 714 CURVE SMOOTH",
"181 724 OFFCURVE",
"211 728 OFFCURVE",
"241 726 CURVE SMOOTH",
"271 724 OFFCURVE",
"299 717 OFFCURVE",
"326 706 CURVE",
"352 694 OFFCURVE",
"376 678 OFFCURVE",
"397 659 CURVE SMOOTH",
"418 640 OFFCURVE",
"435 618 OFFCURVE",
"448 593 CURVE SMOOTH",
"461 568 OFFCURVE",
"468 540 OFFCURVE",
"471 511 CURVE SMOOTH",
"474 482 OFFCURVE",
"470 452 OFFCURVE",
"459 421 CURVE",
"434 416 OFFCURVE",
"410 414 OFFCURVE",
"387 416 CURVE",
"363 417 OFFCURVE",
"338 420 OFFCURVE",
"313 425 CURVE",
"311 438 OFFCURVE",
"310 452 OFFCURVE",
"310 468 CURVE",
"309 484 OFFCURVE",
"307 499 OFFCURVE",
"304 513 CURVE SMOOTH",
"301 526 OFFCURVE",
"295 537 OFFCURVE",
"286 546 CURVE SMOOTH",
"277 555 OFFCURVE",
"262 559 OFFCURVE",
"243 558 CURVE"
);
}
);
width = 488;
}
);
leftKerningGroup = C;
note = C;
rightKerningGroup = C;
unicode = 0043;
},
{
glyphname = Ccedilla;
layers = (
{
hints = (
{
horizontal = 1;
place = "{275, 132}";
type = Stem;
},
{
place = "{177, 137}";
type = Stem;
}
);
layerId = "9B0E9E80-6738-4704-8EC6-A4FB4E6479F4";
paths = (
{
closed = 1;
nodes = (
"22 181 OFFCURVE",
"33 300 OFFCURVE",
"33 357 CURVE SMOOTH",
"33 414 OFFCURVE",
"35 469 OFFCURVE",
"38 524 CURVE",
"38 529 OFFCURVE",
"38 532 OFFCURVE",
"39 535 CURVE",
"42 562 OFFCURVE",
"48 588 OFFCURVE",
"58 613 CURVE",
"67 638 OFFCURVE",
"82 659 OFFCURVE",
"103 676 CURVE",
"116 685 OFFCURVE",
"132 690 OFFCURVE",
"149 692 CURVE",
"166 693 OFFCURVE",
"182 694 OFFCURVE",
"197 693 CURVE",
"220 694 OFFCURVE",
"243 693 OFFCURVE",
"266 692 CURVE SMOOTH",
"289 691 OFFCURVE",
"310 686 OFFCURVE",
"331 679 CURVE",
"356 669 OFFCURVE",
"377 654 OFFCURVE",
"395 634 CURVE SMOOTH",
"413 614 OFFCURVE",
"427 592 OFFCURVE",
"438 567 CURVE SMOOTH",
"448 542 OFFCURVE",
"454 515 OFFCURVE",
"456 488 CURVE SMOOTH",
"458 460 OFFCURVE",
"455 433 OFFCURVE",
"447 408 CURVE",
"446 408 OFFCURVE",
"446 408 OFFCURVE",
"446 408 CURVE",
"445 407 OFFCURVE",
"445 407 OFFCURVE",
"444 407 CURVE",
"421 402 OFFCURVE",
"400 400 OFFCURVE",
"379 402 CURVE",
"358 403 OFFCURVE",
"335 406 OFFCURVE",
"312 409 CURVE",
"310 409 LINE",
"307 419 OFFCURVE",
"304 431 OFFCURVE",
"303 445 CURVE SMOOTH",
"302 458 OFFCURVE",
"301 472 OFFCURVE",
"299 485 CURVE SMOOTH",
"297 498 OFFCURVE",
"293 509 OFFCURVE",
"287 519 CURVE SMOOTH",
"281 529 OFFCURVE",
"271 536 OFFCURVE",
"256 539 CURVE",
"254 540 OFFCURVE",
"251 540 OFFCURVE",
"246 540 CURVE",
"227 541 OFFCURVE",
"212 536 OFFCURVE",
"200 524 CURVE SMOOTH",
"188 512 OFFCURVE",
"181 497 OFFCURVE",
"180 480 CURVE SMOOTH",
"178 436 OFFCURVE",
"177 392 OFFCURVE",
"177 349 CURVE SMOOTH",
"176 305 OFFCURVE",
"178 261 OFFCURVE",
"182 218 CURVE",
"185 202 OFFCURVE",
"191 187 OFFCURVE",
"199 174 CURVE SMOOTH",
"207 160 OFFCURVE",
"219 151 OFFCURVE",
"235 146 CURVE",
"249 145 OFFCURVE",
"262 147 OFFCURVE",
"275 152 CURVE SMOOTH",
"288 157 OFFCURVE",
"297 167 OFFCURVE",
"304 180 CURVE SMOOTH",
"311 194 OFFCURVE",
"314 209 OFFCURVE",
"314 226 CURVE",
"313 243 OFFCURVE",
"314 259 OFFCURVE",
"316 274 CURVE",
"324 274 OFFCURVE",
"334 274 OFFCURVE",
"345 275 CURVE SMOOTH",
"356 276 OFFCURVE",
"367 276 OFFCURVE",
"379 276 CURVE SMOOTH",
"391 276 OFFCURVE",
"403 276 OFFCURVE",
"415 275 CURVE SMOOTH",
"426 274 OFFCURVE",
"437 273 OFFCURVE",
"446 270 CURVE",
"456 239 OFFCURVE",
"459 207 OFFCURVE",
"456 175 CURVE SMOOTH",
"452 142 OFFCURVE",
"442 113 OFFCURVE",
"427 86 CURVE SMOOTH",
"412 59 OFFCURVE",
"391 37 OFFCURVE",
"365 20 CURVE SMOOTH",
"339 2 OFFCURVE",
"309 -8 OFFCURVE",
"274 -10 CURVE",
"272 -10 LINE",
"271 -9 LINE",
"269 -24 OFFCURVE",
"263 -42 OFFCURVE",
"258 -65 CURVE",
"252 -88 OFFCURVE",
"246 -108 OFFCURVE",
"241 -125 CURVE",
"241 -127 LINE",
"226 -125 OFFCURVE",
"210 -126 OFFCURVE",
"194 -128 CURVE SMOOTH",
"178 -130 OFFCURVE",
"164 -130 OFFCURVE",
"152 -128 CURVE",
"151 -128 OFFCURVE",
"151 -127 OFFCURVE",
"151 -125 CURVE SMOOTH",
"151 -122 OFFCURVE",
"152 -116 OFFCURVE",
"154 -107 CURVE SMOOTH",
"156 -98 OFFCURVE",
"159 -88 OFFCURVE",
"162 -77 CURVE SMOOTH",
"165 -66 OFFCURVE",
"168 -54 OFFCURVE",
"171 -42 CURVE SMOOTH",
"174 -30 OFFCURVE",
"176 -19 OFFCURVE",
"177 -10 CURVE",
"177 -7 LINE",
"150 -11 OFFCURVE",
"127 -7 OFFCURVE",
"110 4 CURVE",
"92 14 OFFCURVE",
"78 28 OFFCURVE",
"67 47 CURVE SMOOTH",
"56 66 OFFCURVE",
"49 87 OFFCURVE",
"44 112 CURVE SMOOTH",
"39 136 OFFCURVE",
"36 160 OFFCURVE",
"35 184 CURVE",
"35 194 LINE"
);
}
);
width = 476;
}
);
leftKerningGroup = C;
note = Ccedilla;
rightKerningGroup = C;
unicode = 00C7;
},
{
glyphname = D;
layers = (
{
hints = (
{
horizontal = 1;
place = "{1, 702}";
type = Stem;
},
{
place = "{182, 147.25}";
type = Stem;
}
);
layerId = "9B0E9E80-6738-4704-8EC6-A4FB4E6479F4";
paths = (
{
closed = 1;
nodes = (
"211 462 OFFCURVE",
"326 685 OFFCURVE",
"346 670 CURVE",
"365 654 OFFCURVE",
"381 636 OFFCURVE",
"393 617 CURVE SMOOTH",
"408 594 OFFCURVE",
"420 571 OFFCURVE",
"430 547 CURVE",
"439 522 OFFCURVE",
"447 497 OFFCURVE",
"453 470 CURVE",
"456 459 OFFCURVE",
"459 449 OFFCURVE",
"460 439 CURVE SMOOTH",
"461 428 OFFCURVE",
"461 418 OFFCURVE",
"462 407 CURVE",
"461 376 OFFCURVE",
"460 344 OFFCURVE",
"459 313 CURVE SMOOTH",
"458 281 OFFCURVE",
"454 250 OFFCURVE",
"448 219 CURVE",
"448 218 OFFCURVE",
"448 218 OFFCURVE",
"448 218 CURVE SMOOTH",
"447 218 OFFCURVE",
"447 218 OFFCURVE",
"447 217 CURVE",
"434 178 OFFCURVE",
"416 140 OFFCURVE",
"393 105 CURVE SMOOTH",
"370 70 OFFCURVE",
"345 36 OFFCURVE",
"320 5 CURVE",
"276 4 OFFCURVE",
"232 3 OFFCURVE",
"187 3 CURVE SMOOTH",
"142 2 OFFCURVE",
"99 2 OFFCURVE",
"57 2 CURVE SMOOTH",
"57 2 OFFCURVE",
"57 2 OFFCURVE",
"56 1 CURVE",
"49 54 OFFCURVE",
"44 108 OFFCURVE",
"42 165 CURVE SMOOTH",
"40 221 OFFCURVE",
"39 278 OFFCURVE",
"39 336 CURVE SMOOTH",
"39 394 OFFCURVE",
"40 453 OFFCURVE",
"41 512 CURVE SMOOTH",
"42 571 OFFCURVE",
"41 629 OFFCURVE",
"40 687 CURVE",
"41 688 OFFCURVE",
"41 688 OFFCURVE",
"42 689 CURVE",
"42 690 OFFCURVE",
"42 690 OFFCURVE",
"43 691 CURVE",
"62 696 OFFCURVE",
"81 699 OFFCURVE",
"102 701 CURVE",
"122 702 OFFCURVE",
"142 703 OFFCURVE",
"163 703 CURVE",
"184 702 OFFCURVE",
"204 702 OFFCURVE",
"225 701 CURVE SMOOTH",
"245 700 OFFCURVE",
"265 700 OFFCURVE",
"284 701 CURVE"
);
},
{
closed = 1;
nodes = (
"281 386 OFFCURVE",
"283 231 OFFCURVE",
"288 237 CURVE",
"293 242 OFFCURVE",
"297 248 OFFCURVE",
"301 254 CURVE SMOOTH",
"312 271 OFFCURVE",
"321 290 OFFCURVE",
"326 311 CURVE SMOOTH",
"331 332 OFFCURVE",
"330 354 OFFCURVE",
"325 379 CURVE SMOOTH",
"323 389 OFFCURVE",
"321 400 OFFCURVE",
"318 411 CURVE SMOOTH",
"315 422 OFFCURVE",
"312 432 OFFCURVE",
"307 442 CURVE SMOOTH",
"302 452 OFFCURVE",
"295 461 OFFCURVE",
"288 469 CURVE",
"281 476 OFFCURVE",
"271 482 OFFCURVE",
"260 486 CURVE",
"249 487 OFFCURVE",
"236 488 OFFCURVE",
"223 489 CURVE",
"210 489 OFFCURVE",
"197 488 OFFCURVE",
"185 485 CURVE",
"183 485 LINE",
"182 485 LINE",
"182 481 LINE",
"184 464 OFFCURVE",
"184 444 OFFCURVE",
"184 423 CURVE SMOOTH",
"184 402 OFFCURVE",
"184 381 OFFCURVE",
"183 359 CURVE SMOOTH",
"182 336 OFFCURVE",
"182 314 OFFCURVE",
"182 291 CURVE SMOOTH",
"182 268 OFFCURVE",
"183 245 OFFCURVE",
"184 222 CURVE",
"191 215 OFFCURVE",
"202 212 OFFCURVE",
"215 213 CURVE SMOOTH",
"228 214 OFFCURVE",
"240 215 OFFCURVE",
"252 216 CURVE",
"255 215 OFFCURVE",
"258 216 OFFCURVE",
"261 218 CURVE",
"264 219 OFFCURVE",
"267 221 OFFCURVE",
"270 222 CURVE"
);
}
);
width = 482;
}
);
note = D;
rightKerningGroup = D;
unicode = 0044;
},
{
glyphname = Eth;
layers = (
{
hints = (
{
horizontal = 1;
place = "{204.39, 73.11}";
type = Stem;
},
{
horizontal = 1;
place = "{405.5, 128}";
type = Stem;
},
{
place = "{230, 102}";
type = Stem;
}
);
layerId = "9B0E9E80-6738-4704-8EC6-A4FB4E6479F4";
paths = (
{
closed = 1;
nodes = (
"52 409 LINE",
"35 319 OFFCURVE",
"53 501 OFFCURVE",
"53 546 CURVE SMOOTH",
"53 591 OFFCURVE",
"52 638 OFFCURVE",
"51 687 CURVE",
"80 691 OFFCURVE",
"110 695 OFFCURVE",
"142 700 CURVE SMOOTH",
"174 705 OFFCURVE",
"206 706 OFFCURVE",
"237 705 CURVE SMOOTH",
"268 703 OFFCURVE",
"297 696 OFFCURVE",
"324 683 CURVE SMOOTH",
"351 670 OFFCURVE",
"374 649 OFFCURVE",
"392 618 CURVE SMOOTH",
"401 603 OFFCURVE",
"410 588 OFFCURVE",
"417 573 CURVE SMOOTH",
"424 558 OFFCURVE",
"429 541 OFFCURVE",
"434 524 CURVE SMOOTH",
"439 506 OFFCURVE",
"444 487 OFFCURVE",
"449 467 CURVE SMOOTH",
"454 447 OFFCURVE",
"457 427 OFFCURVE",
"458 408 CURVE",
"461 377 OFFCURVE",
"462 345 OFFCURVE",
"460 313 CURVE SMOOTH",
"458 281 OFFCURVE",
"453 250 OFFCURVE",
"446 219 CURVE SMOOTH",
"437 178 OFFCURVE",
"427 144 OFFCURVE",
"416 118 CURVE SMOOTH",
"405 91 OFFCURVE",
"394 70 OFFCURVE",
"383 55 CURVE SMOOTH",
"372 39 OFFCURVE",
"361 28 OFFCURVE",
"350 21 CURVE SMOOTH",
"339 14 OFFCURVE",
"328 10 OFFCURVE",
"319 8 CURVE SMOOTH",
"298 4 OFFCURVE",
"276 2 OFFCURVE",
"254 1 CURVE",
"231 -1 OFFCURVE",
"209 -1 OFFCURVE",
"186 0 CURVE SMOOTH",
"163 1 OFFCURVE",
"141 2 OFFCURVE",
"120 3 CURVE SMOOTH",
"98 4 OFFCURVE",
"77 5 OFFCURVE",
"56 4 CURVE",
"55 52 OFFCURVE",
"54 98 OFFCURVE",
"53 142 CURVE SMOOTH",
"52 186 OFFCURVE",
"52 229 OFFCURVE",
"52 271 CURVE",
"43 272 OFFCURVE",
"34 272 OFFCURVE",
"25 272 CURVE SMOOTH",
"16 272 OFFCURVE",
"7 272 OFFCURVE",
"-1 272 CURVE",
"-1 291 OFFCURVE",
"-2 312 OFFCURVE",
"-4 333 CURVE",
"-5 354 OFFCURVE",
"-6 379 OFFCURVE",
"-5 410 CURVE"
);
},
{
closed = 1;
nodes = (
"172 249 OFFCURVE",
"266 171 OFFCURVE",
"277 177 CURVE SMOOTH",
"288 183 OFFCURVE",
"297 192 OFFCURVE",
"306 205 CURVE",
"311 214 OFFCURVE",
"316 225 OFFCURVE",
"320 239 CURVE",
"323 252 OFFCURVE",
"326 267 OFFCURVE",
"328 284 CURVE SMOOTH",
"330 300 OFFCURVE",
"331 316 OFFCURVE",
"332 333 CURVE",
"332 350 OFFCURVE",
"331 365 OFFCURVE",
"329 380 CURVE SMOOTH",
"327 393 OFFCURVE",
"325 406 OFFCURVE",
"323 420 CURVE SMOOTH",
"321 433 OFFCURVE",
"318 447 OFFCURVE",
"314 460 CURVE",
"309 473 OFFCURVE",
"304 485 OFFCURVE",
"297 496 CURVE SMOOTH",
"290 507 OFFCURVE",
"280 517 OFFCURVE",
"268 525 CURVE",
"261 529 OFFCURVE",
"253 532 OFFCURVE",
"244 533 CURVE SMOOTH",
"235 534 OFFCURVE",
"225 535 OFFCURVE",
"216 534 CURVE SMOOTH",
"206 533 OFFCURVE",
"197 532 OFFCURVE",
"188 530 CURVE SMOOTH",
"179 528 OFFCURVE",
"172 526 OFFCURVE",
"167 524 CURVE",
"168 511 OFFCURVE",
"169 494 OFFCURVE",
"169 473 CURVE SMOOTH",
"169 452 OFFCURVE",
"169 429 OFFCURVE",
"168 406 CURVE",
"227 405 LINE",
"207 401 OFFCURVE",
"227 394 OFFCURVE",
"228 384 CURVE",
"228 373 OFFCURVE",
"228 362 OFFCURVE",
"229 350 CURVE",
"229 337 OFFCURVE",
"229 325 OFFCURVE",
"230 312 CURVE",
"230 299 OFFCURVE",
"230 287 OFFCURVE",
"230 277 CURVE",
"167 278 LINE",
"188 258 OFFCURVE",
"167 240 OFFCURVE",
"167 221 CURVE SMOOTH",
"167 202 OFFCURVE",
"168 186 OFFCURVE",
"169 173 CURVE",
"169 170 OFFCURVE",
"172 167 OFFCURVE",
"179 166 CURVE SMOOTH",
"186 165 OFFCURVE",
"193 164 OFFCURVE",
"201 164 CURVE SMOOTH",
"209 164 OFFCURVE",
"217 164 OFFCURVE",
"224 165 CURVE SMOOTH",
"231 166 OFFCURVE",
"236 166 OFFCURVE",
"238 166 CURVE"
);
}
);
width = 482;
}
);
note = Eth;
rightKerningGroup = D;
unicode = 00D0;
},
{
glyphname = E;
layers = (
{
hints = (
{
horizontal = 1;
place = "{141, 132}";
type = Stem;
},
{
horizontal = 1;
place = "{419, 124}";
type = Stem;
},
{
place = "{39.25, 424.75}";
type = Stem;
}
);
layerId = "9B0E9E80-6738-4704-8EC6-A4FB4E6479F4";
paths = (
{
closed = 1;
nodes = (
"463 134 LINE",
"310 68 OFFCURVE",
"465 91 OFFCURVE",
"464 68 CURVE SMOOTH",
"463 45 OFFCURVE",
"460 23 OFFCURVE",
"455 3 CURVE",
"387 4 OFFCURVE",
"318 3 OFFCURVE",
"248 1 CURVE SMOOTH",
"177 -2 OFFCURVE",
"110 0 OFFCURVE",
"45 5 CURVE",
"45 63 OFFCURVE",
"44 121 OFFCURVE",
"43 178 CURVE SMOOTH",
"42 235 OFFCURVE",
"41 291 OFFCURVE",
"40 348 CURVE SMOOTH",
"39 405 OFFCURVE",
"39 461 OFFCURVE",
"40 518 CURVE SMOOTH",
"41 575 OFFCURVE",
"43 632 OFFCURVE",
"46 689 CURVE",
"72 690 OFFCURVE",
"100 692 OFFCURVE",
"131 693 CURVE SMOOTH",
"161 694 OFFCURVE",
"191 694 OFFCURVE",
"222 695 CURVE SMOOTH",
"253 696 OFFCURVE",
"282 696 OFFCURVE",
"311 697 CURVE SMOOTH",
"340 698 OFFCURVE",
"365 698 OFFCURVE",
"387 698 CURVE SMOOTH",
"409 698 OFFCURVE",
"427 698 OFFCURVE",
"440 697 CURVE SMOOTH",
"453 696 OFFCURVE",
"460 696 OFFCURVE",
"460 695 CURVE",
"463 672 OFFCURVE",
"464 648 OFFCURVE",
"463 624 CURVE",
"461 600 OFFCURVE",
"460 576 OFFCURVE",
"460 553 CURVE SMOOTH",
"460 552 LINE",
"439 548 OFFCURVE",
"417 545 OFFCURVE",
"396 544 CURVE SMOOTH",
"374 543 OFFCURVE",
"352 542 OFFCURVE",
"330 543 CURVE",
"308 543 OFFCURVE",
"286 543 OFFCURVE",
"264 543 CURVE SMOOTH",
"242 543 OFFCURVE",
"220 542 OFFCURVE",
"198 540 CURVE",
"195 540 LINE",
"194 539 LINE",
"196 520 OFFCURVE",
"194 500 OFFCURVE",
"192 480 CURVE",
"189 459 OFFCURVE",
"190 440 OFFCURVE",
"195 422 CURVE",
"196 421 LINE",
"216 420 OFFCURVE",
"236 419 OFFCURVE",
"257 419 CURVE SMOOTH",
"278 419 OFFCURVE",
"298 419 OFFCURVE",
"319 418 CURVE",
"319 417 LINE",
"322 395 OFFCURVE",
"323 372 OFFCURVE",
"322 349 CURVE SMOOTH",
"321 326 OFFCURVE",
"320 303 OFFCURVE",
"321 278 CURVE",
"311 275 OFFCURVE",
"300 274 OFFCURVE",
"287 274 CURVE",
"274 273 OFFCURVE",
"262 273 OFFCURVE",
"251 273 CURVE SMOOTH",
"239 273 OFFCURVE",
"228 273 OFFCURVE",
"219 272 CURVE SMOOTH",
"210 271 OFFCURVE",
"203 270 OFFCURVE",
"200 267 CURVE",
"197 248 OFFCURVE",
"196 226 OFFCURVE",
"197 202 CURVE SMOOTH",
"198 178 OFFCURVE",
"199 158 OFFCURVE",
"200 142 CURVE",
"201 141 LINE",
"245 141 OFFCURVE",
"288 140 OFFCURVE",
"331 138 CURVE SMOOTH",
"374 135 OFFCURVE",
"418 135 OFFCURVE",
"463 136 CURVE"
);
}
);
width = 481;
}
);
note = E;
rightKerningGroup = AE;
unicode = 0045;
},
{
glyphname = Eacute;
layers = (
{
hints = (
{
horizontal = 1;
place = "{141, 132}";
type = Stem;
},
{
horizontal = 1;
place = "{419, 124}";
type = Stem;
},
{
horizontal = 1;
place = "{697, 39.15}";
type = Stem;
},
{
place = "{39.25, 424.75}";
type = Stem;
},
{
horizontal = 1;
place = "{695, 53}";
type = Stem;
}
);
layerId = "9B0E9E80-6738-4704-8EC6-A4FB4E6479F4";
paths = (
{
closed = 1;
nodes = (
"463 134 LINE",
"310 68 OFFCURVE",
"465 91 OFFCURVE",
"464 68 CURVE SMOOTH",
"463 45 OFFCURVE",
"460 23 OFFCURVE",
"455 3 CURVE",
"387 4 OFFCURVE",
"318 3 OFFCURVE",
"248 1 CURVE SMOOTH",
"177 -2 OFFCURVE",
"110 0 OFFCURVE",
"45 5 CURVE",
"45 63 OFFCURVE",
"44 121 OFFCURVE",
"43 178 CURVE SMOOTH",
"42 235 OFFCURVE",
"41 291 OFFCURVE",
"40 348 CURVE SMOOTH",
"39 405 OFFCURVE",
"39 461 OFFCURVE",
"40 518 CURVE SMOOTH",
"41 575 OFFCURVE",
"43 632 OFFCURVE",
"46 689 CURVE",
"72 690 OFFCURVE",
"100 692 OFFCURVE",
"131 693 CURVE SMOOTH",
"161 694 OFFCURVE",
"191 694 OFFCURVE",
"222 695 CURVE SMOOTH",
"253 696 OFFCURVE",
"282 696 OFFCURVE",
"311 697 CURVE SMOOTH",
"340 698 OFFCURVE",
"365 698 OFFCURVE",
"387 698 CURVE SMOOTH",
"409 698 OFFCURVE",
"427 698 OFFCURVE",
"440 697 CURVE SMOOTH",
"453 696 OFFCURVE",
"460 696 OFFCURVE",
"460 695 CURVE",
"463 672 OFFCURVE",
"464 648 OFFCURVE",
"463 624 CURVE",
"461 600 OFFCURVE",
"460 576 OFFCURVE",
"460 553 CURVE SMOOTH",
"460 552 LINE",
"439 548 OFFCURVE",
"417 545 OFFCURVE",
"396 544 CURVE SMOOTH",
"374 543 OFFCURVE",
"352 542 OFFCURVE",
"330 543 CURVE",
"308 543 OFFCURVE",
"286 543 OFFCURVE",
"264 543 CURVE SMOOTH",
"242 543 OFFCURVE",
"220 542 OFFCURVE",
"198 540 CURVE",
"195 540 LINE",
"194 539 LINE",
"196 520 OFFCURVE",
"194 500 OFFCURVE",
"192 480 CURVE",
"189 459 OFFCURVE",
"190 440 OFFCURVE",
"195 422 CURVE",
"196 421 LINE",
"216 420 OFFCURVE",
"236 419 OFFCURVE",
"257 419 CURVE SMOOTH",
"278 419 OFFCURVE",
"298 419 OFFCURVE",
"319 418 CURVE",
"319 417 LINE",
"322 395 OFFCURVE",
"323 372 OFFCURVE",
"322 349 CURVE SMOOTH",
"321 326 OFFCURVE",
"320 303 OFFCURVE",
"321 278 CURVE",
"311 275 OFFCURVE",
"300 274 OFFCURVE",
"287 274 CURVE",
"274 273 OFFCURVE",
"262 273 OFFCURVE",
"251 273 CURVE SMOOTH",
"239 273 OFFCURVE",
"228 273 OFFCURVE",
"219 272 CURVE SMOOTH",
"210 271 OFFCURVE",
"203 270 OFFCURVE",
"200 267 CURVE",
"197 248 OFFCURVE",
"196 226 OFFCURVE",
"197 202 CURVE SMOOTH",
"198 178 OFFCURVE",
"199 158 OFFCURVE",
"200 142 CURVE",
"201 141 LINE",
"245 141 OFFCURVE",
"288 140 OFFCURVE",
"331 138 CURVE SMOOTH",
"374 135 OFFCURVE",
"418 135 OFFCURVE",
"463 136 CURVE"
);
},
{
closed = 1;
nodes = (
"396 847 LINE",
"395 846 LINE",
"413 605 OFFCURVE",
"383 835 OFFCURVE",
"373 826 CURVE SMOOTH",
"363 817 OFFCURVE",
"353 808 OFFCURVE",
"342 799 CURVE",
"331 789 OFFCURVE",
"321 780 OFFCURVE",
"312 771 CURVE SMOOTH",
"303 762 OFFCURVE",
"297 755 OFFCURVE",
"294 750 CURVE",
"283 749 OFFCURVE",
"271 748 OFFCURVE",
"258 748 CURVE",
"244 747 OFFCURVE",
"231 747 OFFCURVE",
"218 748 CURVE SMOOTH",
"205 749 OFFCURVE",
"193 750 OFFCURVE",
"183 751 CURVE SMOOTH",
"172 752 OFFCURVE",
"165 753 OFFCURVE",
"160 754 CURVE",
"171 765 OFFCURVE",
"184 778 OFFCURVE",
"199 793 CURVE SMOOTH",
"213 808 OFFCURVE",
"228 823 OFFCURVE",
"243 839 CURVE SMOOTH",
"258 854 OFFCURVE",
"272 869 OFFCURVE",
"287 883 CURVE",
"302 896 OFFCURVE",
"315 908 OFFCURVE",
"327 917 CURVE"
);
}
);
width = 481;
}
);
note = Eacute;
rightKerningGroup = AE;
unicode = 00C9;
},
{
glyphname = Ecircumflex;
layers = (
{
hints = (
{
horizontal = 1;
place = "{141, 132}";
type = Stem;
},
{
horizontal = 1;
place = "{419, 124}";
type = Stem;
},
{
horizontal = 1;
place = "{697, 52}";
type = Stem;
},
{
place = "{39.25, 424.75}";
type = Stem;
}
);
layerId = "9B0E9E80-6738-4704-8EC6-A4FB4E6479F4";
paths = (
{
closed = 1;
nodes = (
"415 756 LINE",
"276 505 OFFCURVE",
"411 757 OFFCURVE",
"405 756 CURVE SMOOTH",
"399 755 OFFCURVE",
"391 753 OFFCURVE",
"381 752 CURVE SMOOTH",
"370 751 OFFCURVE",
"358 750 OFFCURVE",
"345 749 CURVE SMOOTH",
"331 748 OFFCURVE",
"316 749 OFFCURVE",
"300 751 CURVE",
"298 751 OFFCURVE",
"295 753 OFFCURVE",
"290 758 CURVE",
"285 762 OFFCURVE",
"281 767 OFFCURVE",
"276 773 CURVE",
"271 778 OFFCURVE",
"266 784 OFFCURVE",
"261 789 CURVE SMOOTH",
"256 794 OFFCURVE",
"252 798 OFFCURVE",
"249 800 CURVE",
"246 799 OFFCURVE",
"243 796 OFFCURVE",
"238 791 CURVE SMOOTH",
"233 786 OFFCURVE",
"228 780 OFFCURVE",
"223 775 CURVE",
"218 769 OFFCURVE",
"213 764 OFFCURVE",
"208 759 CURVE SMOOTH",
"203 754 OFFCURVE",
"200 752 OFFCURVE",
"197 751 CURVE",
"191 750 OFFCURVE",
"186 750 OFFCURVE",
"183 750 CURVE SMOOTH",
"179 750 OFFCURVE",
"174 750 OFFCURVE",
"168 751 CURVE",
"161 751 OFFCURVE",
"152 751 OFFCURVE",
"141 752 CURVE SMOOTH",
"129 753 OFFCURVE",
"112 754 OFFCURVE",
"90 755 CURVE",
"113 786 OFFCURVE",
"138 814 OFFCURVE",
"166 839 CURVE SMOOTH",
"194 864 OFFCURVE",
"223 891 OFFCURVE",
"252 918 CURVE"
);
},
{
closed = 1;
nodes = (
"463 134 LINE",
"394 374 OFFCURVE",
"465 91 OFFCURVE",
"464 68 CURVE SMOOTH",
"463 45 OFFCURVE",
"460 23 OFFCURVE",
"455 3 CURVE",
"387 4 OFFCURVE",
"318 3 OFFCURVE",
"248 1 CURVE SMOOTH",
"177 -2 OFFCURVE",
"110 0 OFFCURVE",
"45 5 CURVE",
"45 63 OFFCURVE",
"44 121 OFFCURVE",
"43 178 CURVE SMOOTH",
"42 235 OFFCURVE",
"41 291 OFFCURVE",
"40 348 CURVE SMOOTH",
"39 405 OFFCURVE",
"39 461 OFFCURVE",
"40 518 CURVE SMOOTH",
"41 575 OFFCURVE",
"43 632 OFFCURVE",
"46 689 CURVE",
"72 690 OFFCURVE",
"100 692 OFFCURVE",
"131 693 CURVE SMOOTH",
"161 694 OFFCURVE",
"191 694 OFFCURVE",
"222 695 CURVE SMOOTH",
"253 696 OFFCURVE",
"282 696 OFFCURVE",
"311 697 CURVE SMOOTH",
"340 698 OFFCURVE",
"365 698 OFFCURVE",
"387 698 CURVE SMOOTH",
"409 698 OFFCURVE",
"427 698 OFFCURVE",
"440 697 CURVE SMOOTH",
"453 696 OFFCURVE",
"460 696 OFFCURVE",
"460 695 CURVE",
"463 672 OFFCURVE",
"464 648 OFFCURVE",
"463 624 CURVE",
"461 600 OFFCURVE",
"460 576 OFFCURVE",
"460 553 CURVE SMOOTH",
"460 552 LINE",
"439 548 OFFCURVE",
"417 545 OFFCURVE",
"396 544 CURVE SMOOTH",
"374 543 OFFCURVE",
"352 542 OFFCURVE",
"330 543 CURVE",
"308 543 OFFCURVE",
"286 543 OFFCURVE",
"264 543 CURVE SMOOTH",
"242 543 OFFCURVE",
"220 542 OFFCURVE",
"198 540 CURVE",
"195 540 LINE",
"194 539 LINE",
"196 520 OFFCURVE",
"194 500 OFFCURVE",
"192 480 CURVE",
"189 459 OFFCURVE",
"190 440 OFFCURVE",
"195 422 CURVE",
"196 421 LINE",
"216 420 OFFCURVE",
"236 419 OFFCURVE",
"257 419 CURVE SMOOTH",
"278 419 OFFCURVE",
"298 419 OFFCURVE",
"319 418 CURVE",
"319 417 LINE",
"322 395 OFFCURVE",
"323 372 OFFCURVE",
"322 349 CURVE SMOOTH",
"321 326 OFFCURVE",
"320 303 OFFCURVE",
"321 278 CURVE",
"311 275 OFFCURVE",
"300 274 OFFCURVE",
"287 274 CURVE",
"274 273 OFFCURVE",
"262 273 OFFCURVE",
"251 273 CURVE SMOOTH",
"239 273 OFFCURVE",
"228 273 OFFCURVE",
"219 272 CURVE SMOOTH",
"210 271 OFFCURVE",
"203 270 OFFCURVE",
"200 267 CURVE",
"197 248 OFFCURVE",
"196 226 OFFCURVE",
"197 202 CURVE SMOOTH",
"198 178 OFFCURVE",
"199 158 OFFCURVE",
"200 142 CURVE",
"201 141 LINE",
"245 141 OFFCURVE",
"288 140 OFFCURVE",
"331 138 CURVE SMOOTH",
"374 135 OFFCURVE",
"418 135 OFFCURVE",
"463 136 CURVE"
);
}
);
width = 481;
}
);
note = Ecircumflex;
rightKerningGroup = AE;
unicode = 00CA;
},
{
glyphname = Edieresis;
layers = (
{
hints = (
{
horizontal = 1;
place = "{141, 132}";
type = Stem;
},
{
horizontal = 1;
place = "{419, 124}";
type = Stem;
},
{
horizontal = 1;
place = "{695, 64}";
type = Stem;
},
{
place = "{210, 60.37}";
type = Stem;
}
);
layerId = "9B0E9E80-6738-4704-8EC6-A4FB4E6479F4";
paths = (
{
closed = 1;
nodes = (
"463 134 LINE",
"310 68 OFFCURVE",
"465 91 OFFCURVE",
"464 68 CURVE SMOOTH",
"463 45 OFFCURVE",
"460 23 OFFCURVE",
"455 3 CURVE",
"387 4 OFFCURVE",
"318 3 OFFCURVE",
"248 1 CURVE SMOOTH",
"177 -2 OFFCURVE",
"110 0 OFFCURVE",
"45 5 CURVE",
"45 63 OFFCURVE",
"44 121 OFFCURVE",
"43 178 CURVE SMOOTH",
"42 235 OFFCURVE",
"41 291 OFFCURVE",
"40 348 CURVE SMOOTH",
"39 405 OFFCURVE",
"39 461 OFFCURVE",
"40 518 CURVE SMOOTH",
"41 575 OFFCURVE",
"43 632 OFFCURVE",
"46 689 CURVE",
"72 690 OFFCURVE",
"100 692 OFFCURVE",
"131 693 CURVE SMOOTH",
"161 694 OFFCURVE",
"191 694 OFFCURVE",
"222 695 CURVE SMOOTH",
"253 696 OFFCURVE",
"282 696 OFFCURVE",
"311 697 CURVE SMOOTH",
"340 698 OFFCURVE",
"365 698 OFFCURVE",
"387 698 CURVE SMOOTH",
"409 698 OFFCURVE",
"427 698 OFFCURVE",
"440 697 CURVE SMOOTH",
"453 696 OFFCURVE",
"460 696 OFFCURVE",
"460 695 CURVE",
"463 672 OFFCURVE",
"464 648 OFFCURVE",
"463 624 CURVE",
"461 600 OFFCURVE",
"460 576 OFFCURVE",
"460 553 CURVE SMOOTH",
"460 552 LINE",
"439 548 OFFCURVE",
"417 545 OFFCURVE",
"396 544 CURVE SMOOTH",
"374 543 OFFCURVE",
"352 542 OFFCURVE",
"330 543 CURVE",
"308 543 OFFCURVE",
"286 543 OFFCURVE",
"264 543 CURVE SMOOTH",
"242 543 OFFCURVE",
"220 542 OFFCURVE",
"198 540 CURVE",
"195 540 LINE",
"194 539 LINE",
"196 520 OFFCURVE",
"194 500 OFFCURVE",
"192 480 CURVE",
"189 459 OFFCURVE",
"190 440 OFFCURVE",
"195 422 CURVE",
"196 421 LINE",
"216 420 OFFCURVE",
"236 419 OFFCURVE",
"257 419 CURVE SMOOTH",
"278 419 OFFCURVE",
"298 419 OFFCURVE",
"319 418 CURVE",
"319 417 LINE",
"322 395 OFFCURVE",
"323 372 OFFCURVE",
"322 349 CURVE SMOOTH",
"321 326 OFFCURVE",
"320 303 OFFCURVE",
"321 278 CURVE",
"311 275 OFFCURVE",
"300 274 OFFCURVE",
"287 274 CURVE",
"274 273 OFFCURVE",
"262 273 OFFCURVE",
"251 273 CURVE SMOOTH",
"239 273 OFFCURVE",
"228 273 OFFCURVE",
"219 272 CURVE SMOOTH",
"210 271 OFFCURVE",
"203 270 OFFCURVE",
"200 267 CURVE",
"197 248 OFFCURVE",
"196 226 OFFCURVE",
"197 202 CURVE SMOOTH",
"198 178 OFFCURVE",
"199 158 OFFCURVE",
"200 142 CURVE",
"201 141 LINE",
"245 141 OFFCURVE",
"288 140 OFFCURVE",
"331 138 CURVE SMOOTH",
"374 135 OFFCURVE",
"418 135 OFFCURVE",
"463 136 CURVE"
);
},
{
closed = 1;
nodes = (
"208 758 LINE",
"111 759 LINE",
"108 759 LINE",
"225 558 OFFCURVE",
"106 774 OFFCURVE",
"106 784 CURVE",
"105 793 OFFCURVE",
"105 803 OFFCURVE",
"106 813 CURVE",
"106 823 OFFCURVE",
"106 832 OFFCURVE",
"107 841 CURVE",
"107 850 OFFCURVE",
"107 856 OFFCURVE",
"107 860 CURVE",
"113 862 OFFCURVE",
"121 864 OFFCURVE",
"132 865 CURVE SMOOTH",
"142 866 OFFCURVE",
"153 867 OFFCURVE",
"164 867 CURVE SMOOTH",
"175 867 OFFCURVE",
"185 867 OFFCURVE",
"195 866 CURVE SMOOTH",
"204 865 OFFCURVE",
"211 863 OFFCURVE",
"216 861 CURVE",
"216 860 OFFCURVE",
"216 856 OFFCURVE",
"215 847 CURVE SMOOTH",
"214 838 OFFCURVE",
"214 828 OFFCURVE",
"213 817 CURVE SMOOTH",
"212 805 OFFCURVE",
"212 794 OFFCURVE",
"211 783 CURVE SMOOTH",
"210 772 OFFCURVE",
"210 765 OFFCURVE",
"210 760 CURVE SMOOTH",
"210 759 LINE",
"210 758 LINE"
);
},
{
closed = 1;
nodes = (
"382 758 LINE",
"285 759 LINE",
"282 759 LINE",
"257 766 OFFCURVE",
"280 774 OFFCURVE",
"280 784 CURVE",
"279 793 OFFCURVE",
"279 803 OFFCURVE",
"280 813 CURVE",
"280 823 OFFCURVE",
"280 832 OFFCURVE",
"281 841 CURVE",
"281 850 OFFCURVE",
"281 856 OFFCURVE",
"281 860 CURVE",
"287 862 OFFCURVE",
"295 864 OFFCURVE",
"306 865 CURVE SMOOTH",
"316 866 OFFCURVE",
"327 867 OFFCURVE",
"338 867 CURVE SMOOTH",
"349 867 OFFCURVE",
"359 867 OFFCURVE",
"369 866 CURVE SMOOTH",
"378 865 OFFCURVE",
"385 863 OFFCURVE",
"390 861 CURVE",
"390 860 OFFCURVE",
"390 856 OFFCURVE",
"389 847 CURVE SMOOTH",
"388 838 OFFCURVE",
"388 828 OFFCURVE",
"387 817 CURVE SMOOTH",
"386 805 OFFCURVE",
"386 794 OFFCURVE",
"385 783 CURVE SMOOTH",
"384 772 OFFCURVE",
"384 765 OFFCURVE",
"384 760 CURVE SMOOTH",
"384 759 LINE",
"384 758 LINE"
);
}
);
width = 481;
}
);
note = Edieresis;
rightKerningGroup = AE;
unicode = 00CB;
},
{
glyphname = Egrave;
layers = (
{
hints = (
{
horizontal = 1;
place = "{141, 132}";
type = Stem;
},
{
horizontal = 1;
place = "{419, 124}";
type = Stem;
},
{
horizontal = 1;
place = "{695, 53}";
type = Stem;
},
{
place = "{163.88, 16.12}";
type = Stem;
}
);
layerId = "9B0E9E80-6738-4704-8EC6-A4FB4E6479F4";
paths = (
{
closed = 1;
nodes = (
"111 847 LINE",
"180 917 LINE",
"132 602 OFFCURVE",
"205 896 OFFCURVE",
"220 883 CURVE",
"235 869 OFFCURVE",
"250 854 OFFCURVE",
"265 839 CURVE SMOOTH",
"280 823 OFFCURVE",
"294 808 OFFCURVE",
"309 793 CURVE SMOOTH",
"323 778 OFFCURVE",
"336 765 OFFCURVE",
"347 754 CURVE",
"342 753 OFFCURVE",
"335 752 OFFCURVE",
"324 751 CURVE SMOOTH",
"313 750 OFFCURVE",
"302 749 OFFCURVE",
"289 748 CURVE SMOOTH",
"276 747 OFFCURVE",
"262 747 OFFCURVE",
"249 748 CURVE",
"236 748 OFFCURVE",
"224 749 OFFCURVE",
"213 750 CURVE",
"210 755 OFFCURVE",
"204 762 OFFCURVE",
"195 771 CURVE SMOOTH",
"186 780 OFFCURVE",
"176 789 OFFCURVE",
"165 799 CURVE",
"154 808 OFFCURVE",
"144 817 OFFCURVE",
"134 826 CURVE SMOOTH",
"124 835 OFFCURVE",
"117 841 OFFCURVE",
"112 846 CURVE SMOOTH"
);
},
{
closed = 1;
nodes = (
"463 134 LINE",
"347 350 OFFCURVE",
"465 91 OFFCURVE",
"464 68 CURVE SMOOTH",
"463 45 OFFCURVE",
"460 23 OFFCURVE",
"455 3 CURVE",
"387 4 OFFCURVE",
"318 3 OFFCURVE",
"248 1 CURVE SMOOTH",
"177 -2 OFFCURVE",
"110 0 OFFCURVE",
"45 5 CURVE",
"45 63 OFFCURVE",
"44 121 OFFCURVE",
"43 178 CURVE SMOOTH",
"42 235 OFFCURVE",
"41 291 OFFCURVE",
"40 348 CURVE SMOOTH",
"39 405 OFFCURVE",
"39 461 OFFCURVE",
"40 518 CURVE SMOOTH",
"41 575 OFFCURVE",
"43 632 OFFCURVE",
"46 689 CURVE",
"72 690 OFFCURVE",
"100 692 OFFCURVE",
"131 693 CURVE SMOOTH",
"161 694 OFFCURVE",
"191 694 OFFCURVE",
"222 695 CURVE SMOOTH",
"253 696 OFFCURVE",
"282 696 OFFCURVE",
"311 697 CURVE SMOOTH",
"340 698 OFFCURVE",
"365 698 OFFCURVE",
"387 698 CURVE SMOOTH",
"409 698 OFFCURVE",
"427 698 OFFCURVE",
"440 697 CURVE SMOOTH",
"453 696 OFFCURVE",
"460 696 OFFCURVE",
"460 695 CURVE",
"463 672 OFFCURVE",
"464 648 OFFCURVE",
"463 624 CURVE",
"461 600 OFFCURVE",
"460 576 OFFCURVE",
"460 553 CURVE SMOOTH",
"460 552 LINE",
"439 548 OFFCURVE",
"417 545 OFFCURVE",
"396 544 CURVE SMOOTH",
"374 543 OFFCURVE",
"352 542 OFFCURVE",
"330 543 CURVE",
"308 543 OFFCURVE",
"286 543 OFFCURVE",
"264 543 CURVE SMOOTH",
"242 543 OFFCURVE",
"220 542 OFFCURVE",
"198 540 CURVE",
"195 540 LINE",
"194 539 LINE",
"196 520 OFFCURVE",
"194 500 OFFCURVE",
"192 480 CURVE",
"189 459 OFFCURVE",
"190 440 OFFCURVE",
"195 422 CURVE",
"196 421 LINE",
"216 420 OFFCURVE",
"236 419 OFFCURVE",
"257 419 CURVE SMOOTH",
"278 419 OFFCURVE",
"298 419 OFFCURVE",
"319 418 CURVE",
"319 417 LINE",
"322 395 OFFCURVE",
"323 372 OFFCURVE",
"322 349 CURVE SMOOTH",
"321 326 OFFCURVE",
"320 303 OFFCURVE",
"321 278 CURVE",
"311 275 OFFCURVE",
"300 274 OFFCURVE",
"287 274 CURVE",
"274 273 OFFCURVE",
"262 273 OFFCURVE",
"251 273 CURVE SMOOTH",
"239 273 OFFCURVE",
"228 273 OFFCURVE",
"219 272 CURVE SMOOTH",
"210 271 OFFCURVE",
"203 270 OFFCURVE",
"200 267 CURVE",
"197 248 OFFCURVE",
"196 226 OFFCURVE",
"197 202 CURVE SMOOTH",
"198 178 OFFCURVE",
"199 158 OFFCURVE",
"200 142 CURVE",
"201 141 LINE",
"245 141 OFFCURVE",
"288 140 OFFCURVE",
"331 138 CURVE SMOOTH",
"374 135 OFFCURVE",
"418 135 OFFCURVE",
"463 136 CURVE"
);
}
);
width = 481;
}
);
note = Egrave;
rightKerningGroup = AE;
unicode = 00C8;
},
{
glyphname = F;
layers = (
{
hints = (
{
horizontal = 1;
place = "{223.12, 30.88}";
type = Stem;
},
{
horizontal = 1;
place = "{425, 98}";
type = Stem;
},
{
place = "{224, 78.96}";
type = Stem;
}
);
layerId = "9B0E9E80-6738-4704-8EC6-A4FB4E6479F4";
paths = (
{
closed = 1;
nodes = (
"237 174 OFFCURVE",
"355 261 OFFCURVE",
"353 261 CURVE",
"332 258 OFFCURVE",
"311 255 OFFCURVE",
"289 254 CURVE",
"266 252 OFFCURVE",
"245 249 OFFCURVE",
"225 246 CURVE",
"224 246 LINE",
"221 204 OFFCURVE",
"219 162 OFFCURVE",
"218 121 CURVE SMOOTH",
"217 79 OFFCURVE",
"217 39 OFFCURVE",
"216 1 CURVE",
"203 0 OFFCURVE",
"187 -1 OFFCURVE",
"169 -2 CURVE SMOOTH",
"150 -3 OFFCURVE",
"132 -3 OFFCURVE",
"114 -3 CURVE SMOOTH",
"96 -3 OFFCURVE",
"80 -3 OFFCURVE",
"67 -2 CURVE SMOOTH",
"53 -1 OFFCURVE",
"45 0 OFFCURVE",
"42 1 CURVE",
"41 2 LINE",
"41 42 OFFCURVE",
"41 80 OFFCURVE",
"41 115 CURVE SMOOTH",
"41 150 OFFCURVE",
"41 183 OFFCURVE",
"42 216 CURVE SMOOTH",
"42 249 OFFCURVE",
"42 282 OFFCURVE",
"42 315 CURVE SMOOTH",
"42 348 OFFCURVE",
"42 382 OFFCURVE",
"43 419 CURVE SMOOTH",
"43 456 OFFCURVE",
"43 495 OFFCURVE",
"43 538 CURVE SMOOTH",
"43 580 OFFCURVE",
"43 627 OFFCURVE",
"43 679 CURVE SMOOTH",
"43 680 LINE",
"54 682 OFFCURVE",
"71 684 OFFCURVE",
"92 686 CURVE SMOOTH",
"113 688 OFFCURVE",
"138 690 OFFCURVE",
"165 692 CURVE SMOOTH",
"192 694 OFFCURVE",
"220 696 OFFCURVE",
"251 697 CURVE SMOOTH",
"281 698 OFFCURVE",
"311 698 OFFCURVE",
"340 698 CURVE SMOOTH",
"369 697 OFFCURVE",
"397 696 OFFCURVE",
"423 693 CURVE SMOOTH",
"449 690 OFFCURVE",
"471 687 OFFCURVE",
"490 682 CURVE",
"490 673 OFFCURVE",
"490 662 OFFCURVE",
"491 649 CURVE",
"491 636 OFFCURVE",
"491 622 OFFCURVE",
"491 608 CURVE SMOOTH",
"491 593 OFFCURVE",
"491 580 OFFCURVE",
"491 567 CURVE SMOOTH",
"491 554 OFFCURVE",
"491 543 OFFCURVE",
"490 534 CURVE",
"472 533 OFFCURVE",
"452 531 OFFCURVE",
"430 530 CURVE SMOOTH",
"407 529 OFFCURVE",
"384 528 OFFCURVE",
"361 527 CURVE SMOOTH",
"337 526 OFFCURVE",
"313 524 OFFCURVE",
"290 523 CURVE SMOOTH",
"266 522 OFFCURVE",
"244 520 OFFCURVE",
"223 518 CURVE",
"216 501 OFFCURVE",
"213 484 OFFCURVE",
"214 468 CURVE SMOOTH",
"215 452 OFFCURVE",
"219 439 OFFCURVE",
"225 428 CURVE",
"226 427 OFFCURVE",
"226 427 OFFCURVE",
"227 427 CURVE",
"236 426 OFFCURVE",
"247 425 OFFCURVE",
"259 425 CURVE",
"270 424 OFFCURVE",
"282 424 OFFCURVE",
"293 424 CURVE SMOOTH",
"304 424 OFFCURVE",
"315 424 OFFCURVE",
"326 425 CURVE SMOOTH",
"337 426 OFFCURVE",
"346 426 OFFCURVE",
"353 427 CURVE",
"355 422 OFFCURVE",
"356 413 OFFCURVE",
"357 400 CURVE",
"357 387 OFFCURVE",
"357 372 OFFCURVE",
"356 356 CURVE SMOOTH",
"355 339 OFFCURVE",
"355 323 OFFCURVE",
"355 306 CURVE",
"354 289 OFFCURVE",
"355 275 OFFCURVE",
"356 263 CURVE"
);
}
);
width = 494;
}
);
note = F;
rightKerningGroup = F;
unicode = 0046;
},
{
glyphname = G;
layers = (
{
hints = (
{
horizontal = 1;
place = "{133, 105}";
type = Stem;
},
{
horizontal = 1;
place = "{352, 119}";
type = Stem;
},
{
place = "{164, 41.79}";
type = Stem;
}
);
layerId = "9B0E9E80-6738-4704-8EC6-A4FB4E6479F4";
paths = (
{
closed = 1;
nodes = (
"161 231 OFFCURVE",
"242 347 OFFCURVE",
"243 348 CURVE",
"252 353 OFFCURVE",
"266 357 OFFCURVE",
"286 358 CURVE SMOOTH",
"305 359 OFFCURVE",
"326 359 OFFCURVE",
"348 358 CURVE SMOOTH",
"370 357 OFFCURVE",
"391 356 OFFCURVE",
"410 355 CURVE",
"429 353 OFFCURVE",
"441 352 OFFCURVE",
"448 352 CURVE SMOOTH",
"450 352 LINE",
"451 351 LINE",
"454 316 OFFCURVE",
"458 278 OFFCURVE",
"459 239 CURVE SMOOTH",
"460 199 OFFCURVE",
"458 161 OFFCURVE",
"451 125 CURVE",
"448 91 OFFCURVE",
"437 65 OFFCURVE",
"420 47 CURVE SMOOTH",
"403 29 OFFCURVE",
"381 15 OFFCURVE",
"356 6 CURVE",
"339 1 OFFCURVE",
"322 -3 OFFCURVE",
"304 -7 CURVE",
"286 -10 OFFCURVE",
"268 -13 OFFCURVE",
"249 -15 CURVE",
"230 -16 OFFCURVE",
"212 -16 OFFCURVE",
"195 -14 CURVE SMOOTH",
"177 -12 OFFCURVE",
"160 -8 OFFCURVE",
"144 -1 CURVE SMOOTH",
"117 10 OFFCURVE",
"97 26 OFFCURVE",
"83 45 CURVE SMOOTH",
"69 64 OFFCURVE",
"58 88 OFFCURVE",
"50 117 CURVE SMOOTH",
"48 124 OFFCURVE",
"46 135 OFFCURVE",
"44 148 CURVE",
"41 161 OFFCURVE",
"39 174 OFFCURVE",
"38 187 CURVE SMOOTH",
"36 208 OFFCURVE",
"34 228 OFFCURVE",
"33 245 CURVE SMOOTH",
"32 262 OFFCURVE",
"31 280 OFFCURVE",
"30 297 CURVE SMOOTH",
"29 314 OFFCURVE",
"28 332 OFFCURVE",
"28 351 CURVE",
"27 370 OFFCURVE",
"27 391 OFFCURVE",
"28 416 CURVE SMOOTH",
"29 437 OFFCURVE",
"30 459 OFFCURVE",
"31 482 CURVE SMOOTH",
"32 504 OFFCURVE",
"35 526 OFFCURVE",
"38 547 CURVE SMOOTH",
"41 569 OFFCURVE",
"47 590 OFFCURVE",
"56 611 CURVE",
"64 632 OFFCURVE",
"78 649 OFFCURVE",
"97 662 CURVE",
"110 673 OFFCURVE",
"125 682 OFFCURVE",
"142 687 CURVE SMOOTH",
"159 692 OFFCURVE",
"176 696 OFFCURVE",
"194 699 CURVE SMOOTH",
"231 704 OFFCURVE",
"266 703 OFFCURVE",
"299 696 CURVE SMOOTH",
"332 689 OFFCURVE",
"361 676 OFFCURVE",
"385 658 CURVE SMOOTH",
"409 640 OFFCURVE",
"427 616 OFFCURVE",
"439 587 CURVE SMOOTH",
"451 557 OFFCURVE",
"455 522 OFFCURVE",
"450 481 CURVE",
"449 475 LINE",
"448 475 OFFCURVE",
"445 472 OFFCURVE",
"440 472 CURVE SMOOTH",
"435 472 OFFCURVE",
"428 472 OFFCURVE",
"417 471 CURVE",
"407 471 OFFCURVE",
"399 471 OFFCURVE",
"392 471 CURVE",
"385 470 OFFCURVE",
"378 470 OFFCURVE",
"371 470 CURVE SMOOTH",
"364 470 OFFCURVE",
"356 470 OFFCURVE",
"349 471 CURVE SMOOTH",
"342 472 OFFCURVE",
"333 473 OFFCURVE",
"323 474 CURVE",
"321 481 OFFCURVE",
"318 489 OFFCURVE",
"315 499 CURVE",
"311 508 OFFCURVE",
"306 517 OFFCURVE",
"301 526 CURVE",
"295 534 OFFCURVE",
"288 541 OFFCURVE",
"281 548 CURVE",
"274 554 OFFCURVE",
"265 557 OFFCURVE",
"255 557 CURVE",
"244 558 OFFCURVE",
"233 558 OFFCURVE",
"222 558 CURVE SMOOTH",
"211 558 OFFCURVE",
"202 554 OFFCURVE",
"194 546 CURVE SMOOTH",
"193 545 OFFCURVE",
"191 541 OFFCURVE",
"189 536 CURVE",
"186 530 OFFCURVE",
"184 524 OFFCURVE",
"183 519 CURVE",
"178 503 OFFCURVE",
"175 484 OFFCURVE",
"172 461 CURVE SMOOTH",
"169 438 OFFCURVE",
"166 414 OFFCURVE",
"165 389 CURVE SMOOTH",
"164 363 OFFCURVE",
"163 336 OFFCURVE",
"164 309 CURVE SMOOTH",
"165 282 OFFCURVE",
"166 256 OFFCURVE",
"168 231 CURVE SMOOTH",
"169 216 OFFCURVE",
"172 200 OFFCURVE",
"176 183 CURVE SMOOTH",
"180 166 OFFCURVE",
"188 152 OFFCURVE",
"201 142 CURVE",
"207 138 OFFCURVE",
"215 135 OFFCURVE",
"224 133 CURVE",
"234 132 OFFCURVE",
"245 132 OFFCURVE",
"256 134 CURVE SMOOTH",
"267 136 OFFCURVE",
"277 139 OFFCURVE",
"286 142 CURVE",
"293 145 OFFCURVE",
"300 150 OFFCURVE",
"305 156 CURVE",
"310 161 OFFCURVE",
"314 169 OFFCURVE",
"317 178 CURVE SMOOTH",
"318 181 OFFCURVE",
"319 185 OFFCURVE",
"320 192 CURVE SMOOTH",
"321 198 OFFCURVE",
"321 204 OFFCURVE",
"322 211 CURVE",
"322 218 OFFCURVE",
"322 224 OFFCURVE",
"322 229 CURVE",
"321 234 OFFCURVE",
"320 237 OFFCURVE",
"318 238 CURVE",
"314 239 OFFCURVE",
"309 239 OFFCURVE",
"302 239 CURVE",
"295 238 OFFCURVE",
"287 238 OFFCURVE",
"280 238 CURVE",
"272 237 OFFCURVE",
"265 237 OFFCURVE",
"259 238 CURVE",
"252 238 OFFCURVE",
"247 239 OFFCURVE",
"244 240 CURVE",
"243 251 OFFCURVE",
"242 260 OFFCURVE",
"242 268 CURVE",
"241 276 OFFCURVE",
"241 284 OFFCURVE",
"242 292 CURVE",
"242 299 OFFCURVE",
"242 307 OFFCURVE",
"242 315 CURVE SMOOTH",
"242 323 OFFCURVE",
"241 333 OFFCURVE",
"240 345 CURVE",
"240 346 LINE",
"240 346 OFFCURVE",
"240 347 OFFCURVE",
"241 347 CURVE"
);
}
);
width = 481;
}
);
leftKerningGroup = G;
note = G;
rightKerningGroup = G;
unicode = 0047;
},
{
glyphname = H;
layers = (
{
hints = (
{
horizontal = 1;
place = "{0, 708}";
type = Stem;
},
{
place = "{196, 124}";
type = Stem;
},
{
place = "{179, 129}";
type = Stem;
}
);
layerId = "9B0E9E80-6738-4704-8EC6-A4FB4E6479F4";
paths = (
{
closed = 1;
nodes = (
"469 6 LINE",
"301 2 OFFCURVE",
"446 3 OFFCURVE",
"433 2 CURVE SMOOTH",
"420 1 OFFCURVE",
"407 1 OFFCURVE",
"395 1 CURVE SMOOTH",
"382 1 OFFCURVE",
"370 1 OFFCURVE",
"359 1 CURVE SMOOTH",
"347 1 OFFCURVE",
"337 1 OFFCURVE",
"329 0 CURVE",
"328 0 LINE",
"325 22 OFFCURVE",
"323 45 OFFCURVE",
"322 69 CURVE SMOOTH",
"321 92 OFFCURVE",
"320 116 OFFCURVE",
"320 139 CURVE",
"319 162 OFFCURVE",
"319 186 OFFCURVE",
"318 209 CURVE SMOOTH",
"317 232 OFFCURVE",
"316 255 OFFCURVE",
"313 276 CURVE",
"312 277 LINE",
"293 280 OFFCURVE",
"273 282 OFFCURVE",
"254 282 CURVE SMOOTH",
"235 282 OFFCURVE",
"215 280 OFFCURVE",
"196 275 CURVE",
"194 252 OFFCURVE",
"193 229 OFFCURVE",
"194 206 CURVE",
"194 183 OFFCURVE",
"194 161 OFFCURVE",
"195 138 CURVE SMOOTH",
"196 115 OFFCURVE",
"196 93 OFFCURVE",
"196 72 CURVE",
"195 50 OFFCURVE",
"193 28 OFFCURVE",
"190 7 CURVE",
"182 2 OFFCURVE",
"171 0 OFFCURVE",
"158 0 CURVE SMOOTH",
"145 0 OFFCURVE",
"131 1 OFFCURVE",
"118 2 CURVE SMOOTH",
"105 3 OFFCURVE",
"92 4 OFFCURVE",
"81 5 CURVE SMOOTH",
"69 6 OFFCURVE",
"60 4 OFFCURVE",
"54 1 CURVE",
"53 20 OFFCURVE",
"51 45 OFFCURVE",
"50 78 CURVE SMOOTH",
"48 110 OFFCURVE",
"46 146 OFFCURVE",
"45 187 CURVE SMOOTH",
"44 227 OFFCURVE",
"43 270 OFFCURVE",
"42 315 CURVE SMOOTH",
"41 360 OFFCURVE",
"40 406 OFFCURVE",
"39 452 CURVE SMOOTH",
"38 497 OFFCURVE",
"38 541 OFFCURVE",
"39 584 CURVE SMOOTH",
"39 626 OFFCURVE",
"39 664 OFFCURVE",
"40 698 CURVE SMOOTH",
"40 699 LINE",
"41 699 LINE",
"43 699 LINE",
"52 697 OFFCURVE",
"64 696 OFFCURVE",
"75 697 CURVE SMOOTH",
"86 698 OFFCURVE",
"97 698 OFFCURVE",
"108 699 CURVE SMOOTH",
"119 700 OFFCURVE",
"129 700 OFFCURVE",
"140 700 CURVE SMOOTH",
"151 700 OFFCURVE",
"161 699 OFFCURVE",
"170 696 CURVE",
"176 650 OFFCURVE",
"179 605 OFFCURVE",
"179 562 CURVE SMOOTH",
"179 519 OFFCURVE",
"183 476 OFFCURVE",
"191 433 CURVE",
"192 433 LINE",
"208 429 OFFCURVE",
"227 428 OFFCURVE",
"246 430 CURVE",
"265 431 OFFCURVE",
"283 433 OFFCURVE",
"300 434 CURVE",
"301 434 LINE",
"305 480 OFFCURVE",
"307 523 OFFCURVE",
"308 563 CURVE SMOOTH",
"308 603 OFFCURVE",
"307 647 OFFCURVE",
"305 695 CURVE",
"313 698 OFFCURVE",
"323 700 OFFCURVE",
"335 702 CURVE SMOOTH",
"346 704 OFFCURVE",
"358 706 OFFCURVE",
"371 707 CURVE SMOOTH",
"384 708 OFFCURVE",
"396 708 OFFCURVE",
"409 708 CURVE",
"421 707 OFFCURVE",
"432 707 OFFCURVE",
"442 706 CURVE"
);
}
);
width = 499;
}
);
note = H;
unicode = 0048;
},
{
glyphname = I;
layers = (
{
hints = (
{
horizontal = 1;
place = "{-5.75, 714.13}";
type = Stem;
},
{
place = "{39, 183}";
type = Stem;
}
);
layerId = "9B0E9E80-6738-4704-8EC6-A4FB4E6479F4";
paths = (
{
closed = 1;
nodes = (
"222 703 LINE",
"222 699 LINE",
"148 409 OFFCURVE",
"221 584 OFFCURVE",
"220 526 CURVE SMOOTH",
"218 468 OFFCURVE",
"217 410 OFFCURVE",
"216 352 CURVE SMOOTH",
"215 293 OFFCURVE",
"214 235 OFFCURVE",
"215 177 CURVE SMOOTH",
"216 119 OFFCURVE",
"218 62 OFFCURVE",
"221 5 CURVE",
"216 0 OFFCURVE",
"205 -4 OFFCURVE",
"188 -5 CURVE SMOOTH",
"171 -6 OFFCURVE",
"152 -6 OFFCURVE",
"133 -5 CURVE SMOOTH",
"113 -4 OFFCURVE",
"94 -4 OFFCURVE",
"76 -3 CURVE SMOOTH",
"58 -2 OFFCURVE",
"46 -2 OFFCURVE",
"39 -4 CURVE",
"44 56 OFFCURVE",
"46 116 OFFCURVE",
"45 177 CURVE SMOOTH",
"44 238 OFFCURVE",
"43 298 OFFCURVE",
"42 358 CURVE SMOOTH",
"40 417 OFFCURVE",
"39 476 OFFCURVE",
"39 535 CURVE",
"38 593 OFFCURVE",
"41 650 OFFCURVE",
"47 706 CURVE",
"47 708 LINE",
"50 708 OFFCURVE",
"57 709 OFFCURVE",
"67 708 CURVE SMOOTH",
"76 707 OFFCURVE",
"83 706 OFFCURVE",
"88 706 CURVE",
"100 705 OFFCURVE",
"114 705 OFFCURVE",
"130 704 CURVE SMOOTH",
"145 703 OFFCURVE",
"168 702 OFFCURVE",
"198 703 CURVE SMOOTH"
);
}
);
width = 260;
}
);
note = I;
rightKerningGroup = I;
unicode = 0049;
},
{
glyphname = Iacute;
layers = (
{
hints = (
{
horizontal = 1;
place = "{703, 45}";
type = Stem;
},
{
place = "{39, 256}";
type = Stem;
}
);
layerId = "9B0E9E80-6738-4704-8EC6-A4FB4E6479F4";
paths = (
{
closed = 1;
nodes = (
"222 703 LINE",
"222 699 LINE",
"148 409 OFFCURVE",
"221 584 OFFCURVE",
"220 526 CURVE SMOOTH",
"218 468 OFFCURVE",
"217 410 OFFCURVE",
"216 352 CURVE SMOOTH",
"215 293 OFFCURVE",
"214 235 OFFCURVE",
"215 177 CURVE SMOOTH",
"216 119 OFFCURVE",
"218 62 OFFCURVE",
"221 5 CURVE",
"216 0 OFFCURVE",
"205 -4 OFFCURVE",
"188 -5 CURVE SMOOTH",
"171 -6 OFFCURVE",
"152 -6 OFFCURVE",
"133 -5 CURVE SMOOTH",
"113 -4 OFFCURVE",
"94 -4 OFFCURVE",
"76 -3 CURVE SMOOTH",
"58 -2 OFFCURVE",
"46 -2 OFFCURVE",
"39 -4 CURVE",
"44 56 OFFCURVE",
"46 116 OFFCURVE",
"45 177 CURVE SMOOTH",
"44 238 OFFCURVE",
"43 298 OFFCURVE",
"42 358 CURVE SMOOTH",
"40 417 OFFCURVE",
"39 476 OFFCURVE",
"39 535 CURVE",
"38 593 OFFCURVE",
"41 650 OFFCURVE",
"47 706 CURVE",
"47 708 LINE",
"50 708 OFFCURVE",
"57 709 OFFCURVE",
"67 708 CURVE SMOOTH",
"76 707 OFFCURVE",
"83 706 OFFCURVE",
"88 706 CURVE",
"100 705 OFFCURVE",
"114 705 OFFCURVE",
"130 704 CURVE SMOOTH",
"145 703 OFFCURVE",
"168 702 OFFCURVE",
"198 703 CURVE SMOOTH"
);
},
{
closed = 1;
nodes = (
"295 847 LINE",
"294 846 LINE",
"257 794 OFFCURVE",
"282 835 OFFCURVE",
"272 826 CURVE SMOOTH",
"262 817 OFFCURVE",
"252 808 OFFCURVE",
"241 799 CURVE",
"230 789 OFFCURVE",
"220 780 OFFCURVE",
"211 771 CURVE SMOOTH",
"202 762 OFFCURVE",
"196 755 OFFCURVE",
"193 750 CURVE",
"182 749 OFFCURVE",
"170 748 OFFCURVE",
"157 748 CURVE",
"143 747 OFFCURVE",
"130 747 OFFCURVE",
"117 748 CURVE SMOOTH",
"104 749 OFFCURVE",
"92 750 OFFCURVE",
"82 751 CURVE SMOOTH",
"71 752 OFFCURVE",
"64 753 OFFCURVE",
"59 754 CURVE",
"70 765 OFFCURVE",
"83 778 OFFCURVE",
"98 793 CURVE SMOOTH",
"112 808 OFFCURVE",
"127 823 OFFCURVE",
"142 839 CURVE SMOOTH",
"157 854 OFFCURVE",
"171 869 OFFCURVE",
"186 883 CURVE",
"201 896 OFFCURVE",
"214 908 OFFCURVE",
"226 917 CURVE"
);
}
);
width = 259;
}
);
note = Iacute;
rightKerningGroup = I;
unicode = 00CD;
},
{
glyphname = Icircumflex;
layers = (
{
hints = (
{
horizontal = 1;
place = "{703, 46}";
type = Stem;
},
{
place = "{222, 38.14}";
type = Stem;
},
{
horizontal = 1;
place = "{706, 45}";
type = Stem;
}
);
layerId = "9B0E9E80-6738-4704-8EC6-A4FB4E6479F4";
paths = (
{
closed = 1;
nodes = (
"307 756 LINE",
"204 505 OFFCURVE",
"303 757 OFFCURVE",
"297 756 CURVE SMOOTH",
"291 755 OFFCURVE",
"283 753 OFFCURVE",
"273 752 CURVE SMOOTH",
"262 751 OFFCURVE",
"250 750 OFFCURVE",
"237 749 CURVE SMOOTH",
"223 748 OFFCURVE",
"208 749 OFFCURVE",
"192 751 CURVE",
"190 751 OFFCURVE",
"187 753 OFFCURVE",
"182 758 CURVE",
"177 762 OFFCURVE",
"173 767 OFFCURVE",
"168 773 CURVE",
"163 778 OFFCURVE",
"158 784 OFFCURVE",
"153 789 CURVE SMOOTH",
"148 794 OFFCURVE",
"144 798 OFFCURVE",
"141 800 CURVE",
"138 799 OFFCURVE",
"135 796 OFFCURVE",
"130 791 CURVE SMOOTH",
"125 786 OFFCURVE",
"120 780 OFFCURVE",
"115 775 CURVE",
"110 769 OFFCURVE",
"105 764 OFFCURVE",
"100 759 CURVE SMOOTH",
"95 754 OFFCURVE",
"92 752 OFFCURVE",
"89 751 CURVE",
"83 750 OFFCURVE",
"78 750 OFFCURVE",
"75 750 CURVE SMOOTH",
"71 750 OFFCURVE",
"66 750 OFFCURVE",
"60 751 CURVE",
"53 751 OFFCURVE",
"44 751 OFFCURVE",
"33 752 CURVE SMOOTH",
"21 753 OFFCURVE",
"4 754 OFFCURVE",
"-18 755 CURVE",
"5 786 OFFCURVE",
"30 814 OFFCURVE",
"58 839 CURVE SMOOTH",
"86 864 OFFCURVE",
"115 891 OFFCURVE",
"144 918 CURVE"
);
},
{
closed = 1;
nodes = (
"222 703 LINE",
"222 699 LINE",
"196 715 OFFCURVE",
"221 584 OFFCURVE",
"220 526 CURVE SMOOTH",
"218 468 OFFCURVE",
"217 410 OFFCURVE",
"216 352 CURVE SMOOTH",
"215 293 OFFCURVE",
"214 235 OFFCURVE",
"215 177 CURVE SMOOTH",
"216 119 OFFCURVE",
"218 62 OFFCURVE",
"221 5 CURVE",
"216 0 OFFCURVE",
"205 -4 OFFCURVE",
"188 -5 CURVE SMOOTH",
"171 -6 OFFCURVE",
"152 -6 OFFCURVE",
"133 -5 CURVE SMOOTH",
"113 -4 OFFCURVE",
"94 -4 OFFCURVE",
"76 -3 CURVE SMOOTH",
"58 -2 OFFCURVE",
"46 -2 OFFCURVE",
"39 -4 CURVE",
"44 56 OFFCURVE",
"46 116 OFFCURVE",
"45 177 CURVE SMOOTH",
"44 238 OFFCURVE",
"43 298 OFFCURVE",
"42 358 CURVE SMOOTH",
"40 417 OFFCURVE",
"39 476 OFFCURVE",
"39 535 CURVE",
"38 593 OFFCURVE",
"41 650 OFFCURVE",
"47 706 CURVE",
"47 708 LINE",
"50 708 OFFCURVE",
"57 709 OFFCURVE",
"67 708 CURVE SMOOTH",
"76 707 OFFCURVE",
"83 706 OFFCURVE",
"88 706 CURVE",
"100 705 OFFCURVE",
"114 705 OFFCURVE",
"130 704 CURVE SMOOTH",
"145 703 OFFCURVE",
"168 702 OFFCURVE",
"198 703 CURVE SMOOTH"
);
}
);
width = 260;
}
);
note = Icircumflex;
rightKerningGroup = I;
unicode = 00CE;
},
{
glyphname = Idieresis;
layers = (
{
hints = (
{
horizontal = 1;
place = "{703, 56}";
type = Stem;
},
{
place = "{2, 27.85}";
type = Stem;
},
{
place = "{104, 60.37}";
type = Stem;
}
);
layerId = "9B0E9E80-6738-4704-8EC6-A4FB4E6479F4";
paths = (
{
closed = 1;
nodes = (
"222 703 LINE",
"222 699 LINE",
"148 409 OFFCURVE",
"221 584 OFFCURVE",
"220 526 CURVE SMOOTH",
"218 468 OFFCURVE",
"217 410 OFFCURVE",
"216 352 CURVE SMOOTH",
"215 293 OFFCURVE",
"214 235 OFFCURVE",
"215 177 CURVE SMOOTH",
"216 119 OFFCURVE",
"218 62 OFFCURVE",
"221 5 CURVE",
"216 0 OFFCURVE",
"205 -4 OFFCURVE",
"188 -5 CURVE SMOOTH",
"171 -6 OFFCURVE",
"152 -6 OFFCURVE",
"133 -5 CURVE SMOOTH",
"113 -4 OFFCURVE",
"94 -4 OFFCURVE",
"76 -3 CURVE SMOOTH",
"58 -2 OFFCURVE",
"46 -2 OFFCURVE",
"39 -4 CURVE",
"44 56 OFFCURVE",
"46 116 OFFCURVE",
"45 177 CURVE SMOOTH",
"44 238 OFFCURVE",
"43 298 OFFCURVE",
"42 358 CURVE SMOOTH",
"40 417 OFFCURVE",
"39 476 OFFCURVE",
"39 535 CURVE",
"38 593 OFFCURVE",
"41 650 OFFCURVE",
"47 706 CURVE",
"47 708 LINE",
"50 708 OFFCURVE",
"57 709 OFFCURVE",
"67 708 CURVE SMOOTH",
"76 707 OFFCURVE",
"83 706 OFFCURVE",
"88 706 CURVE",
"100 705 OFFCURVE",
"114 705 OFFCURVE",
"130 704 CURVE SMOOTH",
"145 703 OFFCURVE",
"168 702 OFFCURVE",
"198 703 CURVE SMOOTH"
);
},
{
closed = 1;
nodes = (
"102 758 LINE",
"5 759 LINE",
"2 759 LINE",
"66 747 OFFCURVE",
"0 774 OFFCURVE",
"-1 784 CURVE",
"-1 793 OFFCURVE",
"-1 803 OFFCURVE",
"-1 813 CURVE",
"0 823 OFFCURVE",
"0 832 OFFCURVE",
"1 841 CURVE",
"1 850 OFFCURVE",
"1 856 OFFCURVE",
"1 860 CURVE",
"7 862 OFFCURVE",
"15 864 OFFCURVE",
"26 865 CURVE SMOOTH",
"36 866 OFFCURVE",
"47 867 OFFCURVE",
"58 867 CURVE SMOOTH",
"69 867 OFFCURVE",
"79 867 OFFCURVE",
"89 866 CURVE SMOOTH",
"98 865 OFFCURVE",
"105 863 OFFCURVE",
"110 861 CURVE",
"110 860 OFFCURVE",
"110 856 OFFCURVE",
"109 847 CURVE SMOOTH",
"108 838 OFFCURVE",
"108 828 OFFCURVE",
"107 817 CURVE SMOOTH",
"106 805 OFFCURVE",
"106 794 OFFCURVE",
"105 783 CURVE SMOOTH",
"104 772 OFFCURVE",
"104 765 OFFCURVE",
"104 760 CURVE SMOOTH",
"104 759 LINE",
"104 758 LINE"
);
},
{
closed = 1;
nodes = (
"276 758 LINE",
"179 759 LINE",
"176 759 LINE",
"151 766 OFFCURVE",
"174 774 OFFCURVE",
"174 784 CURVE",
"173 793 OFFCURVE",
"173 803 OFFCURVE",
"174 813 CURVE",
"174 823 OFFCURVE",
"174 832 OFFCURVE",
"175 841 CURVE",
"175 850 OFFCURVE",
"175 856 OFFCURVE",
"175 860 CURVE",
"181 862 OFFCURVE",
"189 864 OFFCURVE",
"200 865 CURVE SMOOTH",
"210 866 OFFCURVE",
"221 867 OFFCURVE",
"232 867 CURVE SMOOTH",
"243 867 OFFCURVE",
"253 867 OFFCURVE",
"263 866 CURVE SMOOTH",
"272 865 OFFCURVE",
"279 863 OFFCURVE",
"284 861 CURVE",
"284 860 OFFCURVE",
"284 856 OFFCURVE",
"283 847 CURVE SMOOTH",
"282 838 OFFCURVE",
"282 828 OFFCURVE",
"281 817 CURVE SMOOTH",
"280 805 OFFCURVE",
"280 794 OFFCURVE",
"279 783 CURVE SMOOTH",
"278 772 OFFCURVE",
"278 765 OFFCURVE",
"278 760 CURVE SMOOTH",
"278 759 LINE",
"278 758 LINE"
);
}
);
width = 260;
}
);
note = Idieresis;
rightKerningGroup = I;
unicode = 00CF;
},
{
glyphname = Igrave;
layers = (
{
hints = (
{
horizontal = 1;
place = "{703, 45}";
type = Stem;
},
{
place = "{53, 33}";
type = Stem;
}
);
layerId = "9B0E9E80-6738-4704-8EC6-A4FB4E6479F4";
paths = (
{
closed = 1;
nodes = (
"-16 847 LINE",
"53 917 LINE",
"47 602 OFFCURVE",
"78 896 OFFCURVE",
"93 883 CURVE",
"108 869 OFFCURVE",
"123 854 OFFCURVE",
"138 839 CURVE SMOOTH",
"153 823 OFFCURVE",
"167 808 OFFCURVE",
"182 793 CURVE SMOOTH",
"196 778 OFFCURVE",
"209 765 OFFCURVE",
"220 754 CURVE",
"215 753 OFFCURVE",
"208 752 OFFCURVE",
"197 751 CURVE SMOOTH",
"186 750 OFFCURVE",
"175 749 OFFCURVE",
"162 748 CURVE SMOOTH",
"149 747 OFFCURVE",
"135 747 OFFCURVE",
"122 748 CURVE",
"109 748 OFFCURVE",
"97 749 OFFCURVE",
"86 750 CURVE",
"83 755 OFFCURVE",
"77 762 OFFCURVE",
"68 771 CURVE SMOOTH",
"59 780 OFFCURVE",
"49 789 OFFCURVE",
"38 799 CURVE",
"27 808 OFFCURVE",
"17 817 OFFCURVE",
"7 826 CURVE SMOOTH",
"-3 835 OFFCURVE",
"-10 841 OFFCURVE",
"-15 846 CURVE SMOOTH"
);
},
{
closed = 1;
nodes = (
"222 703 LINE",
"222 699 LINE",
"143 691 OFFCURVE",
"221 584 OFFCURVE",
"220 526 CURVE SMOOTH",
"218 468 OFFCURVE",
"217 410 OFFCURVE",
"216 352 CURVE SMOOTH",
"215 293 OFFCURVE",
"214 235 OFFCURVE",
"215 177 CURVE SMOOTH",
"216 119 OFFCURVE",
"218 62 OFFCURVE",
"221 5 CURVE",
"216 0 OFFCURVE",
"205 -4 OFFCURVE",
"188 -5 CURVE SMOOTH",
"171 -6 OFFCURVE",
"152 -6 OFFCURVE",
"133 -5 CURVE SMOOTH",
"113 -4 OFFCURVE",
"94 -4 OFFCURVE",
"76 -3 CURVE SMOOTH",
"58 -2 OFFCURVE",
"46 -2 OFFCURVE",
"39 -4 CURVE",
"44 56 OFFCURVE",
"46 116 OFFCURVE",
"45 177 CURVE SMOOTH",
"44 238 OFFCURVE",
"43 298 OFFCURVE",
"42 358 CURVE SMOOTH",
"40 417 OFFCURVE",
"39 476 OFFCURVE",
"39 535 CURVE",
"38 593 OFFCURVE",
"41 650 OFFCURVE",
"47 706 CURVE",
"47 708 LINE",
"50 708 OFFCURVE",
"57 709 OFFCURVE",
"67 708 CURVE SMOOTH",
"76 707 OFFCURVE",
"83 706 OFFCURVE",
"88 706 CURVE",
"100 705 OFFCURVE",
"114 705 OFFCURVE",
"130 704 CURVE SMOOTH",
"145 703 OFFCURVE",
"168 702 OFFCURVE",
"198 703 CURVE SMOOTH"
);
}
);
width = 260;
}
);
note = Igrave;
rightKerningGroup = I;
unicode = 00CC;
},
{
glyphname = J;
layers = (
{
hints = (
{
horizontal = 1;
place = "{-8, 720}";
type = Stem;
},
{
place = "{159, 118}";
type = Stem;
}
);
layerId = "9B0E9E80-6738-4704-8EC6-A4FB4E6479F4";
paths = (
{
closed = 1;
nodes = (
"279 710 LINE",
"425 712 LINE",
"282 412 OFFCURVE",
"424 586 OFFCURVE",
"427 522 CURVE SMOOTH",
"430 458 OFFCURVE",
"430 394 OFFCURVE",
"429 329 CURVE SMOOTH",
"428 302 OFFCURVE",
"427 272 OFFCURVE",
"426 241 CURVE SMOOTH",
"425 209 OFFCURVE",
"422 178 OFFCURVE",
"416 149 CURVE SMOOTH",
"409 120 OFFCURVE",
"398 93 OFFCURVE",
"383 69 CURVE SMOOTH",
"367 45 OFFCURVE",
"344 27 OFFCURVE",
"313 16 CURVE",
"285 2 OFFCURVE",
"254 -6 OFFCURVE",
"221 -8 CURVE SMOOTH",
"188 -9 OFFCURVE",
"156 -7 OFFCURVE",
"126 0 CURVE",
"99 8 OFFCURVE",
"77 23 OFFCURVE",
"60 44 CURVE SMOOTH",
"43 65 OFFCURVE",
"31 90 OFFCURVE",
"22 118 CURVE SMOOTH",
"13 145 OFFCURVE",
"8 174 OFFCURVE",
"6 205 CURVE",
"3 235 OFFCURVE",
"3 263 OFFCURVE",
"4 288 CURVE",
"13 290 OFFCURVE",
"24 291 OFFCURVE",
"37 292 CURVE SMOOTH",
"50 293 OFFCURVE",
"63 293 OFFCURVE",
"77 293 CURVE SMOOTH",
"91 293 OFFCURVE",
"105 292 OFFCURVE",
"120 291 CURVE SMOOTH",
"134 290 OFFCURVE",
"147 288 OFFCURVE",
"159 286 CURVE",
"159 285 LINE",
"159 280 LINE",
"160 272 OFFCURVE",
"161 259 OFFCURVE",
"163 246 CURVE",
"164 233 OFFCURVE",
"167 220 OFFCURVE",
"172 209 CURVE SMOOTH",
"177 197 OFFCURVE",
"183 187 OFFCURVE",
"190 179 CURVE SMOOTH",
"197 171 OFFCURVE",
"207 167 OFFCURVE",
"219 166 CURVE",
"229 164 OFFCURVE",
"238 165 OFFCURVE",
"245 168 CURVE SMOOTH",
"252 171 OFFCURVE",
"259 177 OFFCURVE",
"264 184 CURVE SMOOTH",
"269 191 OFFCURVE",
"272 199 OFFCURVE",
"275 208 CURVE SMOOTH",
"278 217 OFFCURVE",
"279 226 OFFCURVE",
"280 236 CURVE",
"279 311 OFFCURVE",
"278 387 OFFCURVE",
"277 466 CURVE SMOOTH",
"276 545 OFFCURVE",
"276 624 OFFCURVE",
"279 703 CURVE"
);
}
);
width = 463;
}
);
leftKerningGroup = J;
note = J;
rightKerningGroup = J;
unicode = 004A;
},
{
glyphname = K;
layers = (
{
hints = (
{
horizontal = 1;
place = "{-2, 701.75}";
type = Stem;
},
{
place = "{38.62, 424.38}";
type = Stem;
}
);
layerId = "9B0E9E80-6738-4704-8EC6-A4FB4E6479F4";
paths = (
{
closed = 1;
nodes = (
"463 4 LINE",
"287 -2 OFFCURVE",
"419 -2 OFFCURVE",
"394 -1 CURVE SMOOTH",
"369 0 OFFCURVE",
"345 1 OFFCURVE",
"324 2 CURVE",
"310 18 OFFCURVE",
"297 37 OFFCURVE",
"285 60 CURVE SMOOTH",
"273 82 OFFCURVE",
"262 105 OFFCURVE",
"251 129 CURVE SMOOTH",
"240 153 OFFCURVE",
"229 177 OFFCURVE",
"218 200 CURVE SMOOTH",
"207 223 OFFCURVE",
"197 244 OFFCURVE",
"186 263 CURVE",
"185 244 OFFCURVE",
"185 223 OFFCURVE",
"186 201 CURVE",
"186 178 OFFCURVE",
"186 156 OFFCURVE",
"187 133 CURVE SMOOTH",
"188 110 OFFCURVE",
"188 88 OFFCURVE",
"189 66 CURVE",
"189 44 OFFCURVE",
"189 24 OFFCURVE",
"189 5 CURVE",
"180 2 OFFCURVE",
"169 1 OFFCURVE",
"156 -1 CURVE",
"143 -2 OFFCURVE",
"130 -2 OFFCURVE",
"116 -2 CURVE SMOOTH",
"102 -2 OFFCURVE",
"89 -1 OFFCURVE",
"76 0 CURVE SMOOTH",
"63 1 OFFCURVE",
"52 3 OFFCURVE",
"43 5 CURVE",
"38 120 OFFCURVE",
"37 235 OFFCURVE",
"41 351 CURVE SMOOTH",
"44 466 OFFCURVE",
"46 582 OFFCURVE",
"45 699 CURVE",
"67 700 OFFCURVE",
"90 700 OFFCURVE",
"113 699 CURVE SMOOTH",
"136 698 OFFCURVE",
"158 697 OFFCURVE",
"179 697 CURVE",
"180 659 OFFCURVE",
"181 619 OFFCURVE",
"180 577 CURVE SMOOTH",
"179 535 OFFCURVE",
"180 495 OFFCURVE",
"181 457 CURVE SMOOTH",
"181 456 OFFCURVE",
"182 457 OFFCURVE",
"183 459 CURVE",
"184 460 OFFCURVE",
"185 462 OFFCURVE",
"186 463 CURVE",
"200 481 OFFCURVE",
"213 500 OFFCURVE",
"224 519 CURVE SMOOTH",
"235 538 OFFCURVE",
"246 558 OFFCURVE",
"257 578 CURVE",
"267 598 OFFCURVE",
"278 618 OFFCURVE",
"289 638 CURVE SMOOTH",
"300 658 OFFCURVE",
"312 678 OFFCURVE",
"326 698 CURVE",
"347 697 OFFCURVE",
"370 697 OFFCURVE",
"394 698 CURVE SMOOTH",
"418 699 OFFCURVE",
"441 698 OFFCURVE",
"462 695 CURVE",
"454 667 OFFCURVE",
"443 639 OFFCURVE",
"429 611 CURVE SMOOTH",
"414 583 OFFCURVE",
"399 555 OFFCURVE",
"383 527 CURVE SMOOTH",
"366 499 OFFCURVE",
"350 471 OFFCURVE",
"334 443 CURVE SMOOTH",
"318 415 OFFCURVE",
"304 387 OFFCURVE",
"292 359 CURVE"
);
}
);
width = 459;
}
);
note = K;
rightKerningGroup = K;
unicode = 004B;
},
{
glyphname = L;
layers = (
{
hints = (
{
horizontal = 1;
place = "{103.56, 26.44}";
type = Stem;
},
{
place = "{36, 423}";
type = Stem;
}
);
layerId = "9B0E9E80-6738-4704-8EC6-A4FB4E6479F4";
paths = (
{
closed = 1;
nodes = (
"305 80 OFFCURVE",
"457 117 OFFCURVE",
"457 110 CURVE",
"456 103 OFFCURVE",
"456 96 OFFCURVE",
"457 91 CURVE",
"458 67 OFFCURVE",
"459 49 OFFCURVE",
"459 37 CURVE SMOOTH",
"459 24 OFFCURVE",
"458 15 OFFCURVE",
"457 10 CURVE",
"455 4 OFFCURVE",
"452 1 OFFCURVE",
"448 1 CURVE",
"444 0 OFFCURVE",
"438 0 OFFCURVE",
"431 0 CURVE",
"424 1 OFFCURVE",
"414 1 OFFCURVE",
"403 0 CURVE SMOOTH",
"391 -1 OFFCURVE",
"371 -1 OFFCURVE",
"344 -2 CURVE SMOOTH",
"316 -3 OFFCURVE",
"278 -3 OFFCURVE",
"230 -3 CURVE SMOOTH",
"181 -3 OFFCURVE",
"117 -2 OFFCURVE",
"36 -1 CURVE",
"36 17 LINE",
"38 61 OFFCURVE",
"40 112 OFFCURVE",
"41 153 CURVE SMOOTH",
"42 193 OFFCURVE",
"43 231 OFFCURVE",
"44 266 CURVE SMOOTH",
"44 301 OFFCURVE",
"44 334 OFFCURVE",
"44 367 CURVE SMOOTH",
"44 400 OFFCURVE",
"44 433 OFFCURVE",
"43 467 CURVE SMOOTH",
"42 501 OFFCURVE",
"42 537 OFFCURVE",
"41 576 CURVE SMOOTH",
"40 614 OFFCURVE",
"40 656 OFFCURVE",
"39 703 CURVE",
"46 706 OFFCURVE",
"56 708 OFFCURVE",
"70 710 CURVE",
"84 711 OFFCURVE",
"99 712 OFFCURVE",
"115 712 CURVE SMOOTH",
"131 712 OFFCURVE",
"147 711 OFFCURVE",
"162 709 CURVE SMOOTH",
"177 707 OFFCURVE",
"190 704 OFFCURVE",
"199 700 CURVE",
"198 657 OFFCURVE",
"197 612 OFFCURVE",
"198 567 CURVE SMOOTH",
"198 521 OFFCURVE",
"198 475 OFFCURVE",
"199 429 CURVE SMOOTH",
"200 383 OFFCURVE",
"200 337 OFFCURVE",
"201 292 CURVE SMOOTH",
"201 246 OFFCURVE",
"201 202 OFFCURVE",
"200 159 CURVE SMOOTH",
"200 158 LINE",
"205 160 OFFCURVE",
"214 160 OFFCURVE",
"227 160 CURVE",
"240 159 OFFCURVE",
"255 159 OFFCURVE",
"272 158 CURVE SMOOTH",
"289 157 OFFCURVE",
"308 157 OFFCURVE",
"328 156 CURVE SMOOTH",
"347 155 OFFCURVE",
"366 154 OFFCURVE",
"384 153 CURVE SMOOTH",
"401 152 OFFCURVE",
"417 152 OFFCURVE",
"431 152 CURVE",
"444 151 OFFCURVE",
"454 151 OFFCURVE",
"459 152 CURVE",
"459 145 OFFCURVE",
"459 137 OFFCURVE",
"458 130 CURVE"
);
}
);
width = 461;
}
);
note = L;
rightKerningGroup = L;
unicode = 004C;
},
{
glyphname = M;
layers = (
{
hints = (
{
horizontal = 1;
place = "{-1, 698}";
type = Stem;
},
{
place = "{180, 141}";
type = Stem;
}
);
layerId = "9B0E9E80-6738-4704-8EC6-A4FB4E6479F4";
paths = (
{
closed = 1;
nodes = (
"456 -1 LINE",
"294 1 OFFCURVE",
"435 1 OFFCURVE",
"423 1 CURVE SMOOTH",
"411 1 OFFCURVE",
"399 1 OFFCURVE",
"387 1 CURVE SMOOTH",
"375 1 OFFCURVE",
"364 1 OFFCURVE",
"353 1 CURVE",
"342 0 OFFCURVE",
"332 0 OFFCURVE",
"324 0 CURVE",
"323 29 OFFCURVE",
"322 60 OFFCURVE",
"322 93 CURVE",
"321 126 OFFCURVE",
"321 160 OFFCURVE",
"321 195 CURVE",
"320 230 OFFCURVE",
"319 264 OFFCURVE",
"318 297 CURVE SMOOTH",
"316 330 OFFCURVE",
"313 361 OFFCURVE",
"310 389 CURVE",
"305 382 OFFCURVE",
"300 370 OFFCURVE",
"294 355 CURVE SMOOTH",
"288 339 OFFCURVE",
"282 323 OFFCURVE",
"276 306 CURVE SMOOTH",
"270 289 OFFCURVE",
"264 275 OFFCURVE",
"259 262 CURVE SMOOTH",
"254 249 OFFCURVE",
"250 243 OFFCURVE",
"247 243 CURVE SMOOTH",
"244 243 OFFCURVE",
"240 247 OFFCURVE",
"236 254 CURVE",
"231 261 OFFCURVE",
"227 269 OFFCURVE",
"223 280 CURVE",
"218 291 OFFCURVE",
"214 302 OFFCURVE",
"209 314 CURVE SMOOTH",
"204 326 OFFCURVE",
"200 337 OFFCURVE",
"197 347 CURVE SMOOTH",
"194 357 OFFCURVE",
"191 365 OFFCURVE",
"189 372 CURVE",
"186 379 OFFCURVE",
"185 382 OFFCURVE",
"185 382 CURVE",
"180 319 OFFCURVE",
"178 256 OFFCURVE",
"180 192 CURVE SMOOTH",
"181 128 OFFCURVE",
"184 65 OFFCURVE",
"188 3 CURVE",
"167 0 OFFCURVE",
"143 -2 OFFCURVE",
"118 -1 CURVE SMOOTH",
"93 0 OFFCURVE",
"69 0 OFFCURVE",
"48 0 CURVE SMOOTH",
"47 0 OFFCURVE",
"46 1 OFFCURVE",
"45 3 CURVE",
"44 6 OFFCURVE",
"44 12 OFFCURVE",
"43 22 CURVE SMOOTH",
"42 32 OFFCURVE",
"42 47 OFFCURVE",
"42 68 CURVE",
"41 88 OFFCURVE",
"41 115 OFFCURVE",
"41 148 CURVE SMOOTH",
"41 181 OFFCURVE",
"41 223 OFFCURVE",
"42 272 CURVE SMOOTH",
"42 321 OFFCURVE",
"42 380 OFFCURVE",
"43 448 CURVE SMOOTH",
"43 516 OFFCURVE",
"43 595 OFFCURVE",
"44 686 CURVE",
"53 689 OFFCURVE",
"63 690 OFFCURVE",
"74 691 CURVE SMOOTH",
"85 692 OFFCURVE",
"97 692 OFFCURVE",
"109 692 CURVE",
"121 691 OFFCURVE",
"133 691 OFFCURVE",
"145 691 CURVE",
"157 690 OFFCURVE",
"169 690 OFFCURVE",
"180 691 CURVE",
"181 691 LINE",
"187 684 OFFCURVE",
"193 674 OFFCURVE",
"199 661 CURVE SMOOTH",
"205 647 OFFCURVE",
"211 632 OFFCURVE",
"216 617 CURVE SMOOTH",
"221 602 OFFCURVE",
"227 587 OFFCURVE",
"232 573 CURVE SMOOTH",
"237 559 OFFCURVE",
"242 548 OFFCURVE",
"247 540 CURVE",
"249 538 OFFCURVE",
"251 537 OFFCURVE",
"253 537 CURVE",
"255 536 OFFCURVE",
"258 543 OFFCURVE",
"263 556 CURVE",
"267 569 OFFCURVE",
"272 585 OFFCURVE",
"277 603 CURVE SMOOTH",
"282 620 OFFCURVE",
"287 638 OFFCURVE",
"294 655 CURVE",
"300 672 OFFCURVE",
"306 685 OFFCURVE",
"312 693 CURVE",
"317 692 OFFCURVE",
"325 692 OFFCURVE",
"338 693 CURVE SMOOTH",
"350 694 OFFCURVE",
"363 694 OFFCURVE",
"378 695 CURVE SMOOTH",
"392 696 OFFCURVE",
"407 696 OFFCURVE",
"422 697 CURVE",
"437 697 OFFCURVE",
"449 697 OFFCURVE",
"460 697 CURVE",
"457 633 OFFCURVE",
"457 570 OFFCURVE",
"460 508 CURVE SMOOTH",
"463 445 OFFCURVE",
"462 382 OFFCURVE",
"459 318 CURVE"
);
}
);
width = 501;
}
);
note = M;
rightKerningGroup = I;
unicode = 004D;
},
{
glyphname = N;
layers = (
{
hints = (
{
horizontal = 1;
place = "{0, 21}";
target = up;
type = BottomGhost;
},
{
place = "{183, 18}";
type = Stem;
}
);
layerId = "9B0E9E80-6738-4704-8EC6-A4FB4E6479F4";
paths = (
{
closed = 1;
nodes = (
"303 -1 OFFCURVE",
"453 -2 OFFCURVE",
"448 -3 CURVE SMOOTH",
"443 -4 OFFCURVE",
"435 -5 OFFCURVE",
"424 -5 CURVE SMOOTH",
"411 -5 OFFCURVE",
"395 -4 OFFCURVE",
"378 -3 CURVE",
"361 -1 OFFCURVE",
"345 0 OFFCURVE",
"332 0 CURVE",
"310 49 OFFCURVE",
"288 97 OFFCURVE",
"267 144 CURVE SMOOTH",
"245 190 OFFCURVE",
"226 234 OFFCURVE",
"211 277 CURVE SMOOTH",
"201 307 LINE",
"202 304 OFFCURVE",
"196 321 OFFCURVE",
"194 328 CURVE",
"191 334 OFFCURVE",
"189 337 OFFCURVE",
"188 337 CURVE SMOOTH",
"187 337 OFFCURVE",
"187 329 OFFCURVE",
"186 313 CURVE SMOOTH",
"185 297 OFFCURVE",
"184 277 OFFCURVE",
"183 252 CURVE SMOOTH",
"182 227 OFFCURVE",
"182 200 OFFCURVE",
"182 170 CURVE SMOOTH",
"181 140 OFFCURVE",
"181 111 OFFCURVE",
"181 83 CURVE SMOOTH",
"181 68 OFFCURVE",
"181 53 OFFCURVE",
"181 39 CURVE SMOOTH",
"181 24 OFFCURVE",
"181 11 OFFCURVE",
"182 0 CURVE",
"175 -2 OFFCURVE",
"167 -3 OFFCURVE",
"160 -4 CURVE SMOOTH",
"153 -5 OFFCURVE",
"145 -5 OFFCURVE",
"138 -5 CURVE SMOOTH",
"122 -5 OFFCURVE",
"106 -4 OFFCURVE",
"90 -2 CURVE SMOOTH",
"73 0 OFFCURVE",
"57 1 OFFCURVE",
"42 1 CURVE",
"42 71 LINE SMOOTH",
"42 111 OFFCURVE",
"42 195 OFFCURVE",
"41 252 CURVE SMOOTH",
"40 309 OFFCURVE",
"39 369 OFFCURVE",
"39 432 CURVE SMOOTH",
"39 478 OFFCURVE",
"40 524 OFFCURVE",
"41 569 CURVE SMOOTH",
"42 614 OFFCURVE",
"45 657 OFFCURVE",
"48 700 CURVE",
"55 701 OFFCURVE",
"62 702 OFFCURVE",
"70 703 CURVE SMOOTH",
"77 704 OFFCURVE",
"85 704 OFFCURVE",
"93 704 CURVE SMOOTH",
"97 704 OFFCURVE",
"104 704 OFFCURVE",
"113 704 CURVE",
"122 703 OFFCURVE",
"132 703 OFFCURVE",
"141 702 CURVE SMOOTH",
"150 701 OFFCURVE",
"159 699 OFFCURVE",
"166 698 CURVE SMOOTH",
"173 697 OFFCURVE",
"176 695 OFFCURVE",
"176 694 CURVE",
"181 682 OFFCURVE",
"185 672 OFFCURVE",
"189 664 CURVE SMOOTH",
"193 656 OFFCURVE",
"197 648 OFFCURVE",
"201 641 CURVE",
"204 634 OFFCURVE",
"208 626 OFFCURVE",
"213 617 CURVE",
"217 608 OFFCURVE",
"222 596 OFFCURVE",
"228 582 CURVE",
"229 579 OFFCURVE",
"232 572 OFFCURVE",
"237 563 CURVE SMOOTH",
"242 554 OFFCURVE",
"247 543 OFFCURVE",
"253 531 CURVE SMOOTH",
"259 518 OFFCURVE",
"265 505 OFFCURVE",
"272 492 CURVE SMOOTH",
"279 478 OFFCURVE",
"285 466 OFFCURVE",
"291 455 CURVE",
"296 444 OFFCURVE",
"301 434 OFFCURVE",
"305 427 CURVE",
"309 419 OFFCURVE",
"311 415 OFFCURVE",
"312 415 CURVE",
"314 416 OFFCURVE",
"316 423 OFFCURVE",
"317 435 CURVE SMOOTH",
"318 447 OFFCURVE",
"319 459 OFFCURVE",
"319 470 CURVE SMOOTH",
"319 497 OFFCURVE",
"319 522 OFFCURVE",
"318 545 CURVE SMOOTH",
"317 568 OFFCURVE",
"316 591 OFFCURVE",
"316 615 CURVE SMOOTH",
"316 629 OFFCURVE",
"316 643 OFFCURVE",
"317 658 CURVE",
"317 672 OFFCURVE",
"317 687 OFFCURVE",
"318 704 CURVE",
"341 708 OFFCURVE",
"365 710 OFFCURVE",
"390 710 CURVE SMOOTH",
"415 710 OFFCURVE",
"437 708 OFFCURVE",
"456 704 CURVE",
"456 382 LINE",
"457 461 OFFCURVE",
"457 326 OFFCURVE",
"457 297 CURVE SMOOTH",
"457 268 OFFCURVE",
"457 240 OFFCURVE",
"457 211 CURVE SMOOTH",
"457 192 OFFCURVE",
"457 173 OFFCURVE",
"457 155 CURVE",
"456 137 OFFCURVE",
"456 119 OFFCURVE",
"456 100 CURVE SMOOTH",
"456 87 OFFCURVE",
"456 73 OFFCURVE",
"457 60 CURVE",
"457 47 OFFCURVE",
"457 33 OFFCURVE",
"457 20 CURVE SMOOTH",
"457 0 LINE"
);
}
);
width = 498;
}
);
note = N;
rightKerningGroup = I;
unicode = 004E;
},
{
glyphname = Ntilde;
layers = (
{
hints = (
{
horizontal = 1;
place = "{0, 21}";
target = up;
type = BottomGhost;
},
{
horizontal = 1;
place = "{705, 43}";
type = Stem;
},
{
place = "{194, 19.08}";
type = Stem;
}
);
layerId = "9B0E9E80-6738-4704-8EC6-A4FB4E6479F4";
paths = (
{
closed = 1;
nodes = (
"475 3 LINE",
"314 -4 OFFCURVE",
"465 -6 OFFCURVE",
"453 -7 CURVE SMOOTH",
"441 -8 OFFCURVE",
"428 -8 OFFCURVE",
"413 -7 CURVE SMOOTH",
"398 -6 OFFCURVE",
"382 -5 OFFCURVE",
"367 -4 CURVE SMOOTH",
"351 -3 OFFCURVE",
"338 -3 OFFCURVE",
"328 -5 CURVE",
"327 -5 LINE",
"305 44 OFFCURVE",
"284 94 OFFCURVE",
"264 147 CURVE SMOOTH",
"243 199 OFFCURVE",
"224 248 OFFCURVE",
"207 294 CURVE",
"204 244 OFFCURVE",
"202 196 OFFCURVE",
"201 149 CURVE SMOOTH",
"200 102 OFFCURVE",
"200 52 OFFCURVE",
"202 0 CURVE",
"202 -1 OFFCURVE",
"202 -1 OFFCURVE",
"201 -1 CURVE",
"191 -4 OFFCURVE",
"179 -6 OFFCURVE",
"166 -6 CURVE",
"153 -5 OFFCURVE",
"139 -4 OFFCURVE",
"125 -3 CURVE SMOOTH",
"110 -2 OFFCURVE",
"96 0 OFFCURVE",
"82 1 CURVE SMOOTH",
"68 2 OFFCURVE",
"55 2 OFFCURVE",
"43 0 CURVE",
"42 0 OFFCURVE",
"42 0 OFFCURVE",
"42 1 CURVE SMOOTH",
"43 58 OFFCURVE",
"43 115 OFFCURVE",
"42 174 CURVE SMOOTH",
"41 232 OFFCURVE",
"40 290 OFFCURVE",
"39 349 CURVE SMOOTH",
"38 408 OFFCURVE",
"39 466 OFFCURVE",
"40 524 CURVE SMOOTH",
"41 582 OFFCURVE",
"43 639 OFFCURVE",
"48 695 CURVE",
"56 698 OFFCURVE",
"66 700 OFFCURVE",
"79 701 CURVE SMOOTH",
"91 702 OFFCURVE",
"104 702 OFFCURVE",
"118 701 CURVE SMOOTH",
"131 700 OFFCURVE",
"145 698 OFFCURVE",
"159 696 CURVE",
"172 693 OFFCURVE",
"184 691 OFFCURVE",
"194 688 CURVE",
"194 687 LINE",
"195 681 OFFCURVE",
"201 669 OFFCURVE",
"211 652 CURVE",
"220 635 OFFCURVE",
"231 616 OFFCURVE",
"244 595 CURVE",
"256 574 OFFCURVE",
"269 552 OFFCURVE",
"282 531 CURVE SMOOTH",
"295 509 OFFCURVE",
"307 490 OFFCURVE",
"316 474 CURVE",
"319 486 OFFCURVE",
"321 501 OFFCURVE",
"320 519 CURVE SMOOTH",
"319 536 OFFCURVE",
"318 555 OFFCURVE",
"317 575 CURVE",
"315 595 OFFCURVE",
"314 616 OFFCURVE",
"314 637 CURVE",
"313 658 OFFCURVE",
"315 677 OFFCURVE",
"318 696 CURVE",
"318 699 LINE",
"330 701 OFFCURVE",
"344 704 OFFCURVE",
"361 705 CURVE SMOOTH",
"377 706 OFFCURVE",
"393 706 OFFCURVE",
"409 706 CURVE SMOOTH",
"424 706 OFFCURVE",
"438 706 OFFCURVE",
"450 705 CURVE SMOOTH",
"462 704 OFFCURVE",
"470 703 OFFCURVE",
"474 702 CURVE",
"473 382 LINE",
"475 428 OFFCURVE",
"475 260 OFFCURVE",
"474 199 CURVE SMOOTH",
"473 138 OFFCURVE",
"474 77 OFFCURVE",
"476 17 CURVE"
);
},
{
closed = 1;
nodes = (
"176 752 LINE",
"269 508 OFFCURVE",
"160 754 OFFCURVE",
"147 755 CURVE SMOOTH",
"134 756 OFFCURVE",
"121 756 OFFCURVE",
"108 756 CURVE SMOOTH",
"93 756 OFFCURVE",
"76 756 OFFCURVE",
"59 755 CURVE",
"61 762 OFFCURVE",
"64 772 OFFCURVE",
"69 784 CURVE",
"73 795 OFFCURVE",
"78 807 OFFCURVE",
"83 820 CURVE SMOOTH",
"88 833 OFFCURVE",
"94 845 OFFCURVE",
"100 856 CURVE SMOOTH",
"106 867 OFFCURVE",
"112 877 OFFCURVE",
"119 884 CURVE SMOOTH",
"128 893 OFFCURVE",
"138 900 OFFCURVE",
"149 906 CURVE SMOOTH",
"160 912 OFFCURVE",
"172 916 OFFCURVE",
"184 918 CURVE SMOOTH",
"196 920 OFFCURVE",
"208 920 OFFCURVE",
"220 918 CURVE",
"232 915 OFFCURVE",
"243 910 OFFCURVE",
"254 903 CURVE SMOOTH",
"265 896 OFFCURVE",
"273 888 OFFCURVE",
"279 878 CURVE SMOOTH",
"285 868 OFFCURVE",
"292 860 OFFCURVE",
"301 855 CURVE",
"311 846 OFFCURVE",
"320 843 OFFCURVE",
"329 846 CURVE",
"337 848 OFFCURVE",
"345 853 OFFCURVE",
"352 860 CURVE SMOOTH",
"359 867 OFFCURVE",
"364 875 OFFCURVE",
"369 885 CURVE",
"373 894 OFFCURVE",
"376 902 OFFCURVE",
"378 908 CURVE",
"391 909 OFFCURVE",
"405 910 OFFCURVE",
"419 910 CURVE SMOOTH",
"432 910 OFFCURVE",
"446 910 OFFCURVE",
"460 911 CURVE",
"461 910 LINE",
"461 910 OFFCURVE",
"461 909 OFFCURVE",
"462 909 CURVE",
"467 888 OFFCURVE",
"465 866 OFFCURVE",
"457 843 CURVE",
"448 820 OFFCURVE",
"438 799 OFFCURVE",
"426 782 CURVE",
"414 768 OFFCURVE",
"401 759 OFFCURVE",
"386 754 CURVE SMOOTH",
"375 750 OFFCURVE",
"363 748 OFFCURVE",
"351 748 CURVE",
"339 747 OFFCURVE",
"328 749 OFFCURVE",
"317 753 CURVE",
"306 756 OFFCURVE",
"295 762 OFFCURVE",
"286 769 CURVE SMOOTH",
"277 776 OFFCURVE",
"270 786 OFFCURVE",
"265 798 CURVE",
"260 805 OFFCURVE",
"255 811 OFFCURVE",
"250 815 CURVE",
"244 819 OFFCURVE",
"236 821 OFFCURVE",
"226 821 CURVE SMOOTH",
"221 821 OFFCURVE",
"215 820 OFFCURVE",
"210 819 CURVE",
"204 817 OFFCURVE",
"198 815 OFFCURVE",
"191 812 CURVE",
"188 809 OFFCURVE",
"185 807 OFFCURVE",
"182 804 CURVE SMOOTH",
"179 801 OFFCURVE",
"177 797 OFFCURVE",
"176 793 CURVE",
"173 786 OFFCURVE",
"172 779 OFFCURVE",
"172 774 CURVE SMOOTH",
"172 768 OFFCURVE",
"173 761 OFFCURVE",
"176 753 CURVE"
);
}
);
width = 516;
}
);
note = Ntilde;
rightKerningGroup = I;
unicode = 00D1;
},
{
glyphname = O;
layers = (
{
hints = (
{
horizontal = 1;
place = "{-13.75, 713.75}";
type = Stem;
},
{
place = "{138, 192}";
type = Stem;
}
);
layerId = "9B0E9E80-6738-4704-8EC6-A4FB4E6479F4";
paths = (
{
closed = 1;
nodes = (
"283 418 OFFCURVE",
"429 615 OFFCURVE",
"437 592 CURVE",
"442 582 OFFCURVE",
"445 572 OFFCURVE",
"448 562 CURVE",
"450 551 OFFCURVE",
"452 541 OFFCURVE",
"453 530 CURVE SMOOTH",
"454 513 OFFCURVE",
"455 497 OFFCURVE",
"456 481 CURVE",
"456 464 OFFCURVE",
"456 448 OFFCURVE",
"455 431 CURVE SMOOTH",
"453 396 OFFCURVE",
"452 361 OFFCURVE",
"453 328 CURVE SMOOTH",
"454 295 OFFCURVE",
"453 261 OFFCURVE",
"450 226 CURVE SMOOTH",
"447 193 LINE",
"447 181 OFFCURVE",
"442 146 OFFCURVE",
"436 123 CURVE SMOOTH",
"430 99 OFFCURVE",
"421 77 OFFCURVE",
"409 58 CURVE",
"398 42 OFFCURVE",
"383 29 OFFCURVE",
"365 20 CURVE SMOOTH",
"346 10 OFFCURVE",
"327 2 OFFCURVE",
"306 -3 CURVE SMOOTH",
"287 -8 OFFCURVE",
"269 -12 OFFCURVE",
"250 -13 CURVE SMOOTH",
"231 -14 OFFCURVE",
"211 -14 OFFCURVE",
"192 -13 CURVE SMOOTH",
"178 -12 OFFCURVE",
"165 -10 OFFCURVE",
"152 -8 CURVE",
"139 -5 OFFCURVE",
"126 -1 OFFCURVE",
"115 4 CURVE SMOOTH",
"103 9 OFFCURVE",
"92 16 OFFCURVE",
"83 25 CURVE",
"74 33 OFFCURVE",
"66 44 OFFCURVE",
"60 57 CURVE",
"51 74 OFFCURVE",
"45 92 OFFCURVE",
"42 111 CURVE SMOOTH",
"39 130 OFFCURVE",
"37 149 OFFCURVE",
"36 168 CURVE SMOOTH",
"34 220 OFFCURVE",
"32 272 OFFCURVE",
"30 325 CURVE SMOOTH",
"27 377 OFFCURVE",
"28 429 OFFCURVE",
"31 482 CURVE SMOOTH",
"32 512 OFFCURVE",
"36 542 OFFCURVE",
"43 573 CURVE SMOOTH",
"50 603 OFFCURVE",
"63 630 OFFCURVE",
"84 653 CURVE",
"91 660 OFFCURVE",
"98 666 OFFCURVE",
"107 671 CURVE",
"129 682 OFFCURVE",
"153 690 OFFCURVE",
"179 695 CURVE SMOOTH",
"204 700 OFFCURVE",
"230 701 OFFCURVE",
"256 700 CURVE SMOOTH",
"281 699 OFFCURVE",
"306 694 OFFCURVE",
"331 687 CURVE",
"355 679 OFFCURVE",
"377 668 OFFCURVE",
"396 653 CURVE"
);
},
{
closed = 1;
nodes = (
"330 348 LINE",
"328 416 LINE",
"351 496 OFFCURVE",
"328 424 OFFCURVE",
"327 437 CURVE SMOOTH",
"326 450 OFFCURVE",
"325 462 OFFCURVE",
"324 473 CURVE",
"323 492 OFFCURVE",
"318 509 OFFCURVE",
"309 524 CURVE SMOOTH",
"300 539 OFFCURVE",
"287 551 OFFCURVE",
"272 558 CURVE",
"259 563 OFFCURVE",
"245 564 OFFCURVE",
"231 561 CURVE SMOOTH",
"217 558 OFFCURVE",
"205 552 OFFCURVE",
"194 544 CURVE",
"171 526 OFFCURVE",
"155 503 OFFCURVE",
"147 475 CURVE",
"142 450 OFFCURVE",
"139 423 OFFCURVE",
"138 395 CURVE SMOOTH",
"137 367 OFFCURVE",
"137 339 OFFCURVE",
"138 311 CURVE",
"141 288 OFFCURVE",
"144 264 OFFCURVE",
"145 240 CURVE SMOOTH",
"146 215 OFFCURVE",
"150 192 OFFCURVE",
"157 170 CURVE",
"164 157 OFFCURVE",
"173 146 OFFCURVE",
"186 139 CURVE SMOOTH",
"199 132 OFFCURVE",
"212 128 OFFCURVE",
"227 127 CURVE SMOOTH",
"242 126 OFFCURVE",
"256 128 OFFCURVE",
"271 133 CURVE SMOOTH",
"286 138 OFFCURVE",
"298 146 OFFCURVE",
"308 157 CURVE",
"314 165 OFFCURVE",
"318 172 OFFCURVE",
"321 177 CURVE SMOOTH",
"324 182 OFFCURVE",
"325 187 OFFCURVE",
"326 193 CURVE SMOOTH",
"327 199 OFFCURVE",
"327 206 OFFCURVE",
"327 215 CURVE",
"326 223 OFFCURVE",
"327 234 OFFCURVE",
"328 248 CURVE SMOOTH",
"329 261 OFFCURVE",
"329 273 OFFCURVE",
"330 283 CURVE",
"330 293 OFFCURVE",
"330 299 OFFCURVE",
"330 300 CURVE SMOOTH"
);
}
);
width = 483;
}
);
leftKerningGroup = G;
note = O;
rightKerningGroup = O;
unicode = 004F;
},
{
glyphname = Oacute;
layers = (
{
hints = (
{
horizontal = 1;
place = "{705, 43}";
type = Stem;
},
{
place = "{139, 192}";
type = Stem;
}
);
layerId = "9B0E9E80-6738-4704-8EC6-A4FB4E6479F4";
paths = (
{
closed = 1;
nodes = (
"284 421 OFFCURVE",
"430 620 OFFCURVE",
"438 597 CURVE",
"443 587 OFFCURVE",
"446 577 OFFCURVE",
"449 567 CURVE",
"451 556 OFFCURVE",
"453 546 OFFCURVE",
"454 535 CURVE SMOOTH",
"455 518 OFFCURVE",
"456 502 OFFCURVE",
"457 486 CURVE",
"457 469 OFFCURVE",
"457 453 OFFCURVE",
"456 436 CURVE SMOOTH",
"454 401 OFFCURVE",
"453 366 OFFCURVE",
"454 333 CURVE SMOOTH",
"455 300 OFFCURVE",
"454 266 OFFCURVE",
"451 231 CURVE SMOOTH",
"448 198 LINE",
"448 186 OFFCURVE",
"443 151 OFFCURVE",
"437 128 CURVE SMOOTH",
"431 104 OFFCURVE",
"422 82 OFFCURVE",
"410 63 CURVE",
"399 47 OFFCURVE",
"384 34 OFFCURVE",
"366 25 CURVE SMOOTH",
"347 15 OFFCURVE",
"328 7 OFFCURVE",
"307 2 CURVE SMOOTH",
"288 -3 OFFCURVE",
"270 -7 OFFCURVE",
"251 -8 CURVE SMOOTH",
"232 -9 OFFCURVE",
"212 -9 OFFCURVE",
"193 -8 CURVE SMOOTH",
"179 -7 OFFCURVE",
"166 -5 OFFCURVE",
"153 -3 CURVE",
"140 0 OFFCURVE",
"127 4 OFFCURVE",
"116 9 CURVE SMOOTH",
"104 14 OFFCURVE",
"93 21 OFFCURVE",
"84 30 CURVE",
"75 38 OFFCURVE",
"67 49 OFFCURVE",
"61 62 CURVE",
"52 79 OFFCURVE",
"46 97 OFFCURVE",
"43 116 CURVE SMOOTH",
"40 135 OFFCURVE",
"38 154 OFFCURVE",
"37 173 CURVE SMOOTH",
"35 225 OFFCURVE",
"33 277 OFFCURVE",
"31 330 CURVE SMOOTH",
"28 382 OFFCURVE",
"29 434 OFFCURVE",
"32 487 CURVE SMOOTH",
"33 517 OFFCURVE",
"37 547 OFFCURVE",
"44 578 CURVE SMOOTH",
"51 608 OFFCURVE",
"64 635 OFFCURVE",
"85 658 CURVE",
"92 665 OFFCURVE",
"99 671 OFFCURVE",
"108 676 CURVE",
"130 687 OFFCURVE",
"154 695 OFFCURVE",
"180 700 CURVE SMOOTH",
"205 705 OFFCURVE",
"231 706 OFFCURVE",
"257 705 CURVE SMOOTH",
"282 704 OFFCURVE",
"307 699 OFFCURVE",
"332 692 CURVE",
"356 684 OFFCURVE",
"378 673 OFFCURVE",
"397 658 CURVE"
);
},
{
closed = 1;
nodes = (
"331 353 LINE",
"329 421 LINE",
"352 501 OFFCURVE",
"329 429 OFFCURVE",
"328 442 CURVE SMOOTH",
"327 455 OFFCURVE",
"326 467 OFFCURVE",
"325 478 CURVE",
"324 497 OFFCURVE",
"319 514 OFFCURVE",
"310 529 CURVE SMOOTH",
"301 544 OFFCURVE",
"288 556 OFFCURVE",
"273 563 CURVE",
"260 568 OFFCURVE",
"246 569 OFFCURVE",
"232 566 CURVE SMOOTH",
"218 563 OFFCURVE",
"206 557 OFFCURVE",
"195 549 CURVE",
"172 531 OFFCURVE",
"156 508 OFFCURVE",
"148 480 CURVE",
"143 455 OFFCURVE",
"140 428 OFFCURVE",
"139 400 CURVE SMOOTH",
"138 372 OFFCURVE",
"138 344 OFFCURVE",
"139 316 CURVE",
"142 293 OFFCURVE",
"145 269 OFFCURVE",
"146 245 CURVE SMOOTH",
"147 220 OFFCURVE",
"151 197 OFFCURVE",
"158 175 CURVE",
"165 162 OFFCURVE",
"174 151 OFFCURVE",
"187 144 CURVE SMOOTH",
"200 137 OFFCURVE",
"213 133 OFFCURVE",
"228 132 CURVE SMOOTH",
"243 131 OFFCURVE",
"257 133 OFFCURVE",
"272 138 CURVE SMOOTH",
"287 143 OFFCURVE",
"299 151 OFFCURVE",
"309 162 CURVE",
"315 170 OFFCURVE",
"319 177 OFFCURVE",
"322 182 CURVE SMOOTH",
"325 187 OFFCURVE",
"326 192 OFFCURVE",
"327 198 CURVE SMOOTH",
"328 204 OFFCURVE",
"328 211 OFFCURVE",
"328 220 CURVE",
"327 228 OFFCURVE",
"328 239 OFFCURVE",
"329 253 CURVE SMOOTH",
"330 266 OFFCURVE",
"330 278 OFFCURVE",
"331 288 CURVE",
"331 298 OFFCURVE",
"331 304 OFFCURVE",
"331 305 CURVE SMOOTH"
);
},
{
closed = 1;
nodes = (
"402 847 LINE",
"401 846 LINE",
"373 661 OFFCURVE",
"389 835 OFFCURVE",
"379 826 CURVE SMOOTH",
"369 817 OFFCURVE",
"359 808 OFFCURVE",
"348 799 CURVE",
"337 789 OFFCURVE",
"327 780 OFFCURVE",
"318 771 CURVE SMOOTH",
"309 762 OFFCURVE",
"303 755 OFFCURVE",
"300 750 CURVE",
"289 749 OFFCURVE",
"277 748 OFFCURVE",
"264 748 CURVE",
"250 747 OFFCURVE",
"237 747 OFFCURVE",
"224 748 CURVE SMOOTH",
"211 749 OFFCURVE",
"199 750 OFFCURVE",
"189 751 CURVE SMOOTH",
"178 752 OFFCURVE",
"171 753 OFFCURVE",
"166 754 CURVE",
"177 765 OFFCURVE",
"190 778 OFFCURVE",
"205 793 CURVE SMOOTH",
"219 808 OFFCURVE",
"234 823 OFFCURVE",
"249 839 CURVE SMOOTH",
"264 854 OFFCURVE",
"278 869 OFFCURVE",
"293 883 CURVE",
"308 896 OFFCURVE",
"321 908 OFFCURVE",
"333 917 CURVE"
);
}
);
width = 485;
}
);
leftKerningGroup = G;
note = Oacute;
rightKerningGroup = O;
unicode = 00D3;
},
{
glyphname = Ocircumflex;
layers = (
{
hints = (
{
horizontal = 1;
place = "{705, 46}";
type = Stem;
},
{
place = "{138, 192}";
type = Stem;
},
{
place = "{388.62, 7.38}";
type = Stem;
},
{
horizontal = 1;
place = "{645, 104}";
type = Stem;
}
);
layerId = "9B0E9E80-6738-4704-8EC6-A4FB4E6479F4";
paths = (
{
closed = 1;
nodes = (
"410 756 LINE",
"273 505 OFFCURVE",
"406 757 OFFCURVE",
"400 756 CURVE SMOOTH",
"394 755 OFFCURVE",
"386 753 OFFCURVE",
"376 752 CURVE SMOOTH",
"365 751 OFFCURVE",
"353 750 OFFCURVE",
"340 749 CURVE SMOOTH",
"326 748 OFFCURVE",
"311 749 OFFCURVE",
"295 751 CURVE",
"293 751 OFFCURVE",
"290 753 OFFCURVE",
"285 758 CURVE",
"280 762 OFFCURVE",
"276 767 OFFCURVE",
"271 773 CURVE",
"266 778 OFFCURVE",
"261 784 OFFCURVE",
"256 789 CURVE SMOOTH",
"251 794 OFFCURVE",
"247 798 OFFCURVE",
"244 800 CURVE",
"241 799 OFFCURVE",
"238 796 OFFCURVE",
"233 791 CURVE SMOOTH",
"228 786 OFFCURVE",
"223 780 OFFCURVE",
"218 775 CURVE",
"213 769 OFFCURVE",
"208 764 OFFCURVE",
"203 759 CURVE SMOOTH",
"198 754 OFFCURVE",
"195 752 OFFCURVE",
"192 751 CURVE",
"186 750 OFFCURVE",
"181 750 OFFCURVE",
"178 750 CURVE SMOOTH",
"174 750 OFFCURVE",
"169 750 OFFCURVE",
"163 751 CURVE",
"156 751 OFFCURVE",
"147 751 OFFCURVE",
"136 752 CURVE SMOOTH",
"124 753 OFFCURVE",
"107 754 OFFCURVE",
"85 755 CURVE",
"108 786 OFFCURVE",
"133 814 OFFCURVE",
"161 839 CURVE SMOOTH",
"189 864 OFFCURVE",
"218 891 OFFCURVE",
"247 918 CURVE"
);
},
{
closed = 1;
nodes = (
"366 727 OFFCURVE",
"429 620 OFFCURVE",
"437 597 CURVE",
"442 587 OFFCURVE",
"445 577 OFFCURVE",
"448 567 CURVE",
"450 556 OFFCURVE",
"452 546 OFFCURVE",
"453 535 CURVE SMOOTH",
"454 518 OFFCURVE",
"455 502 OFFCURVE",
"456 486 CURVE",
"456 469 OFFCURVE",
"456 453 OFFCURVE",
"455 436 CURVE SMOOTH",
"453 401 OFFCURVE",
"452 366 OFFCURVE",
"453 333 CURVE SMOOTH",
"454 300 OFFCURVE",
"453 266 OFFCURVE",
"450 231 CURVE SMOOTH",
"447 198 LINE",
"447 186 OFFCURVE",
"442 151 OFFCURVE",
"436 128 CURVE SMOOTH",
"430 104 OFFCURVE",
"421 82 OFFCURVE",
"409 63 CURVE",
"398 47 OFFCURVE",
"383 34 OFFCURVE",
"365 25 CURVE SMOOTH",
"346 15 OFFCURVE",
"327 7 OFFCURVE",
"306 2 CURVE SMOOTH",
"287 -3 OFFCURVE",
"269 -7 OFFCURVE",
"250 -8 CURVE SMOOTH",
"231 -9 OFFCURVE",
"211 -9 OFFCURVE",
"192 -8 CURVE SMOOTH",
"178 -7 OFFCURVE",
"165 -5 OFFCURVE",
"152 -3 CURVE",
"139 0 OFFCURVE",
"126 4 OFFCURVE",
"115 9 CURVE SMOOTH",
"103 14 OFFCURVE",
"92 21 OFFCURVE",
"83 30 CURVE",
"74 38 OFFCURVE",
"66 49 OFFCURVE",
"60 62 CURVE",
"51 79 OFFCURVE",
"45 97 OFFCURVE",
"42 116 CURVE SMOOTH",
"39 135 OFFCURVE",
"37 154 OFFCURVE",
"36 173 CURVE SMOOTH",
"34 225 OFFCURVE",
"32 277 OFFCURVE",
"30 330 CURVE SMOOTH",
"27 382 OFFCURVE",
"28 434 OFFCURVE",
"31 487 CURVE SMOOTH",
"32 517 OFFCURVE",
"36 547 OFFCURVE",
"43 578 CURVE SMOOTH",
"50 608 OFFCURVE",
"63 635 OFFCURVE",
"84 658 CURVE",
"91 665 OFFCURVE",
"98 671 OFFCURVE",
"107 676 CURVE",
"129 687 OFFCURVE",
"153 695 OFFCURVE",
"179 700 CURVE SMOOTH",
"204 705 OFFCURVE",
"230 706 OFFCURVE",
"256 705 CURVE SMOOTH",
"281 704 OFFCURVE",
"306 699 OFFCURVE",
"331 692 CURVE",
"355 684 OFFCURVE",
"377 673 OFFCURVE",
"396 658 CURVE"
);
},
{
closed = 1;
nodes = (
"330 353 LINE",
"328 421 LINE",
"351 501 OFFCURVE",
"328 429 OFFCURVE",
"327 442 CURVE SMOOTH",
"326 455 OFFCURVE",
"325 467 OFFCURVE",
"324 478 CURVE",
"323 497 OFFCURVE",
"318 514 OFFCURVE",
"309 529 CURVE SMOOTH",
"300 544 OFFCURVE",
"287 556 OFFCURVE",
"272 563 CURVE",
"259 568 OFFCURVE",
"245 569 OFFCURVE",
"231 566 CURVE SMOOTH",
"217 563 OFFCURVE",
"205 557 OFFCURVE",
"194 549 CURVE",
"171 531 OFFCURVE",
"155 508 OFFCURVE",
"147 480 CURVE",
"142 455 OFFCURVE",
"139 428 OFFCURVE",
"138 400 CURVE SMOOTH",
"137 372 OFFCURVE",
"137 344 OFFCURVE",
"138 316 CURVE",
"141 293 OFFCURVE",
"144 269 OFFCURVE",
"145 245 CURVE SMOOTH",
"146 220 OFFCURVE",
"150 197 OFFCURVE",
"157 175 CURVE",
"164 162 OFFCURVE",
"173 151 OFFCURVE",
"186 144 CURVE SMOOTH",
"199 137 OFFCURVE",
"212 133 OFFCURVE",
"227 132 CURVE SMOOTH",
"242 131 OFFCURVE",
"256 133 OFFCURVE",
"271 138 CURVE SMOOTH",
"286 143 OFFCURVE",
"298 151 OFFCURVE",
"308 162 CURVE",
"314 170 OFFCURVE",
"318 177 OFFCURVE",
"321 182 CURVE SMOOTH",
"324 187 OFFCURVE",
"325 192 OFFCURVE",
"326 198 CURVE SMOOTH",
"327 204 OFFCURVE",
"327 211 OFFCURVE",
"327 220 CURVE",
"326 228 OFFCURVE",
"327 239 OFFCURVE",
"328 253 CURVE SMOOTH",
"329 266 OFFCURVE",
"329 278 OFFCURVE",
"330 288 CURVE",
"330 298 OFFCURVE",
"330 304 OFFCURVE",
"330 305 CURVE SMOOTH"
);
}
);
width = 484;
}
);
leftKerningGroup = G;
note = Ocircumflex;
rightKerningGroup = O;
unicode = 00D4;
},
{
glyphname = Odieresis;
layers = (
{
hints = (
{
horizontal = 1;
place = "{705, 54}";
type = Stem;
},
{
place = "{138, 192}";
type = Stem;
},
{
place = "{106, 31.86}";
type = Stem;
},
{
place = "{208, 60.37}";
type = Stem;
}
);
layerId = "9B0E9E80-6738-4704-8EC6-A4FB4E6479F4";
paths = (
{
closed = 1;
nodes = (
"283 421 OFFCURVE",
"429 620 OFFCURVE",
"437 597 CURVE",
"442 587 OFFCURVE",
"445 577 OFFCURVE",
"448 567 CURVE",
"450 556 OFFCURVE",
"452 546 OFFCURVE",
"453 535 CURVE SMOOTH",
"454 518 OFFCURVE",
"455 502 OFFCURVE",
"456 486 CURVE",
"456 469 OFFCURVE",
"456 453 OFFCURVE",
"455 436 CURVE SMOOTH",
"453 401 OFFCURVE",
"452 366 OFFCURVE",
"453 333 CURVE SMOOTH",
"454 300 OFFCURVE",
"453 266 OFFCURVE",
"450 231 CURVE SMOOTH",
"447 198 LINE",
"447 186 OFFCURVE",
"442 151 OFFCURVE",
"436 128 CURVE SMOOTH",
"430 104 OFFCURVE",
"421 82 OFFCURVE",
"409 63 CURVE",
"398 47 OFFCURVE",
"383 34 OFFCURVE",
"365 25 CURVE SMOOTH",
"346 15 OFFCURVE",
"327 7 OFFCURVE",
"306 2 CURVE SMOOTH",
"287 -3 OFFCURVE",
"269 -7 OFFCURVE",
"250 -8 CURVE SMOOTH",
"231 -9 OFFCURVE",
"211 -9 OFFCURVE",
"192 -8 CURVE SMOOTH",
"178 -7 OFFCURVE",
"165 -5 OFFCURVE",
"152 -3 CURVE",
"139 0 OFFCURVE",
"126 4 OFFCURVE",
"115 9 CURVE SMOOTH",
"103 14 OFFCURVE",
"92 21 OFFCURVE",
"83 30 CURVE",
"74 38 OFFCURVE",
"66 49 OFFCURVE",
"60 62 CURVE",
"51 79 OFFCURVE",
"45 97 OFFCURVE",
"42 116 CURVE SMOOTH",
"39 135 OFFCURVE",
"37 154 OFFCURVE",
"36 173 CURVE SMOOTH",
"34 225 OFFCURVE",
"32 277 OFFCURVE",
"30 330 CURVE SMOOTH",
"27 382 OFFCURVE",
"28 434 OFFCURVE",
"31 487 CURVE SMOOTH",
"32 517 OFFCURVE",
"36 547 OFFCURVE",
"43 578 CURVE SMOOTH",
"50 608 OFFCURVE",
"63 635 OFFCURVE",
"84 658 CURVE",
"91 665 OFFCURVE",
"98 671 OFFCURVE",
"107 676 CURVE",
"129 687 OFFCURVE",
"153 695 OFFCURVE",
"179 700 CURVE SMOOTH",
"204 705 OFFCURVE",
"230 706 OFFCURVE",
"256 705 CURVE SMOOTH",
"281 704 OFFCURVE",
"306 699 OFFCURVE",
"331 692 CURVE",
"355 684 OFFCURVE",
"377 673 OFFCURVE",
"396 658 CURVE"
);
},
{
closed = 1;
nodes = (
"330 353 LINE",
"328 421 LINE",
"351 501 OFFCURVE",
"328 429 OFFCURVE",
"327 442 CURVE SMOOTH",
"326 455 OFFCURVE",
"325 467 OFFCURVE",
"324 478 CURVE",
"323 497 OFFCURVE",
"318 514 OFFCURVE",
"309 529 CURVE SMOOTH",
"300 544 OFFCURVE",
"287 556 OFFCURVE",
"272 563 CURVE",
"259 568 OFFCURVE",
"245 569 OFFCURVE",
"231 566 CURVE SMOOTH",
"217 563 OFFCURVE",
"205 557 OFFCURVE",
"194 549 CURVE",
"171 531 OFFCURVE",
"155 508 OFFCURVE",
"147 480 CURVE",
"142 455 OFFCURVE",
"139 428 OFFCURVE",
"138 400 CURVE SMOOTH",
"137 372 OFFCURVE",
"137 344 OFFCURVE",
"138 316 CURVE",
"141 293 OFFCURVE",
"144 269 OFFCURVE",
"145 245 CURVE SMOOTH",
"146 220 OFFCURVE",
"150 197 OFFCURVE",
"157 175 CURVE",
"164 162 OFFCURVE",
"173 151 OFFCURVE",
"186 144 CURVE SMOOTH",
"199 137 OFFCURVE",
"212 133 OFFCURVE",
"227 132 CURVE SMOOTH",
"242 131 OFFCURVE",
"256 133 OFFCURVE",
"271 138 CURVE SMOOTH",
"286 143 OFFCURVE",
"298 151 OFFCURVE",
"308 162 CURVE",
"314 170 OFFCURVE",
"318 177 OFFCURVE",
"321 182 CURVE SMOOTH",
"324 187 OFFCURVE",
"325 192 OFFCURVE",
"326 198 CURVE SMOOTH",
"327 204 OFFCURVE",
"327 211 OFFCURVE",
"327 220 CURVE",
"326 228 OFFCURVE",
"327 239 OFFCURVE",
"328 253 CURVE SMOOTH",
"329 266 OFFCURVE",
"329 278 OFFCURVE",
"330 288 CURVE",
"330 298 OFFCURVE",
"330 304 OFFCURVE",
"330 305 CURVE SMOOTH"
);
},
{
closed = 1;
nodes = (
"206 758 LINE",
"109 759 LINE",
"106 759 LINE",
"179 614 OFFCURVE",
"104 774 OFFCURVE",
"104 784 CURVE",
"103 793 OFFCURVE",
"103 803 OFFCURVE",
"104 813 CURVE",
"104 823 OFFCURVE",
"104 832 OFFCURVE",
"105 841 CURVE",
"105 850 OFFCURVE",
"105 856 OFFCURVE",
"105 860 CURVE",
"111 862 OFFCURVE",
"119 864 OFFCURVE",
"130 865 CURVE SMOOTH",
"140 866 OFFCURVE",
"151 867 OFFCURVE",
"162 867 CURVE SMOOTH",
"173 867 OFFCURVE",
"183 867 OFFCURVE",
"193 866 CURVE SMOOTH",
"202 865 OFFCURVE",
"209 863 OFFCURVE",
"214 861 CURVE",
"214 860 OFFCURVE",
"214 856 OFFCURVE",
"213 847 CURVE SMOOTH",
"212 838 OFFCURVE",
"212 828 OFFCURVE",
"211 817 CURVE SMOOTH",
"210 805 OFFCURVE",
"210 794 OFFCURVE",
"209 783 CURVE SMOOTH",
"208 772 OFFCURVE",
"208 765 OFFCURVE",
"208 760 CURVE SMOOTH",
"208 759 LINE",
"208 758 LINE"
);
},
{
closed = 1;
nodes = (
"380 758 LINE",
"283 759 LINE",
"280 759 LINE",
"255 766 OFFCURVE",
"278 774 OFFCURVE",
"278 784 CURVE",
"277 793 OFFCURVE",
"277 803 OFFCURVE",
"278 813 CURVE",
"278 823 OFFCURVE",
"278 832 OFFCURVE",
"279 841 CURVE",
"279 850 OFFCURVE",
"279 856 OFFCURVE",
"279 860 CURVE",
"285 862 OFFCURVE",
"293 864 OFFCURVE",
"304 865 CURVE SMOOTH",
"314 866 OFFCURVE",
"325 867 OFFCURVE",
"336 867 CURVE SMOOTH",
"347 867 OFFCURVE",
"357 867 OFFCURVE",
"367 866 CURVE SMOOTH",
"376 865 OFFCURVE",
"383 863 OFFCURVE",
"388 861 CURVE",
"388 860 OFFCURVE",
"388 856 OFFCURVE",
"387 847 CURVE SMOOTH",
"386 838 OFFCURVE",
"386 828 OFFCURVE",
"385 817 CURVE SMOOTH",
"384 805 OFFCURVE",
"384 794 OFFCURVE",
"383 783 CURVE SMOOTH",
"382 772 OFFCURVE",
"382 765 OFFCURVE",
"382 760 CURVE SMOOTH",
"382 759 LINE",
"382 758 LINE"
);
}
);
width = 484;
}
);
leftKerningGroup = G;
note = Odieresis;
rightKerningGroup = O;
unicode = 00D6;
},
{
glyphname = Ograve;
layers = (
{
hints = (
{
horizontal = 1;
place = "{705, 43}";
type = Stem;
},
{
place = "{125.21, 9.79}";
type = Stem;
},
{
place = "{363.88, 33.12}";
type = Stem;
},
{
place = "{139, 192}";
type = Stem;
}
);
layerId = "9B0E9E80-6738-4704-8EC6-A4FB4E6479F4";
paths = (
{
closed = 1;
nodes = (
"66 847 LINE",
"135 917 LINE",
"102 602 OFFCURVE",
"160 896 OFFCURVE",
"175 883 CURVE",
"190 869 OFFCURVE",
"205 854 OFFCURVE",
"220 839 CURVE SMOOTH",
"235 823 OFFCURVE",
"249 808 OFFCURVE",
"264 793 CURVE SMOOTH",
"278 778 OFFCURVE",
"291 765 OFFCURVE",
"302 754 CURVE",
"297 753 OFFCURVE",
"290 752 OFFCURVE",
"279 751 CURVE SMOOTH",
"268 750 OFFCURVE",
"257 749 OFFCURVE",
"244 748 CURVE SMOOTH",
"231 747 OFFCURVE",
"217 747 OFFCURVE",
"204 748 CURVE",
"191 748 OFFCURVE",
"179 749 OFFCURVE",
"168 750 CURVE",
"165 755 OFFCURVE",
"159 762 OFFCURVE",
"150 771 CURVE SMOOTH",
"141 780 OFFCURVE",
"131 789 OFFCURVE",
"120 799 CURVE",
"109 808 OFFCURVE",
"99 817 OFFCURVE",
"89 826 CURVE SMOOTH",
"79 835 OFFCURVE",
"72 841 OFFCURVE",
"67 846 CURVE SMOOTH"
);
},
{
closed = 1;
nodes = (
"306 703 OFFCURVE",
"430 620 OFFCURVE",
"438 597 CURVE",
"443 587 OFFCURVE",
"446 577 OFFCURVE",
"449 567 CURVE",
"451 556 OFFCURVE",
"453 546 OFFCURVE",
"454 535 CURVE SMOOTH",
"455 518 OFFCURVE",
"456 502 OFFCURVE",
"457 486 CURVE",
"457 469 OFFCURVE",
"457 453 OFFCURVE",
"456 436 CURVE SMOOTH",
"454 401 OFFCURVE",
"453 366 OFFCURVE",
"454 333 CURVE SMOOTH",
"455 300 OFFCURVE",
"454 266 OFFCURVE",
"451 231 CURVE SMOOTH",
"448 198 LINE",
"448 186 OFFCURVE",
"443 151 OFFCURVE",
"437 128 CURVE SMOOTH",
"431 104 OFFCURVE",
"422 82 OFFCURVE",
"410 63 CURVE",
"399 47 OFFCURVE",
"384 34 OFFCURVE",
"366 25 CURVE SMOOTH",
"347 15 OFFCURVE",
"328 7 OFFCURVE",
"307 2 CURVE SMOOTH",
"288 -3 OFFCURVE",
"270 -7 OFFCURVE",
"251 -8 CURVE SMOOTH",
"232 -9 OFFCURVE",
"212 -9 OFFCURVE",
"193 -8 CURVE SMOOTH",
"179 -7 OFFCURVE",
"166 -5 OFFCURVE",
"153 -3 CURVE",
"140 0 OFFCURVE",
"127 4 OFFCURVE",
"116 9 CURVE SMOOTH",
"104 14 OFFCURVE",
"93 21 OFFCURVE",
"84 30 CURVE",
"75 38 OFFCURVE",
"67 49 OFFCURVE",
"61 62 CURVE",
"52 79 OFFCURVE",
"46 97 OFFCURVE",
"43 116 CURVE SMOOTH",
"40 135 OFFCURVE",
"38 154 OFFCURVE",
"37 173 CURVE SMOOTH",
"35 225 OFFCURVE",
"33 277 OFFCURVE",
"31 330 CURVE SMOOTH",
"28 382 OFFCURVE",
"29 434 OFFCURVE",
"32 487 CURVE SMOOTH",
"33 517 OFFCURVE",
"37 547 OFFCURVE",
"44 578 CURVE SMOOTH",
"51 608 OFFCURVE",
"64 635 OFFCURVE",
"85 658 CURVE",
"92 665 OFFCURVE",
"99 671 OFFCURVE",
"108 676 CURVE",
"130 687 OFFCURVE",
"154 695 OFFCURVE",
"180 700 CURVE SMOOTH",
"205 705 OFFCURVE",
"231 706 OFFCURVE",
"257 705 CURVE SMOOTH",
"282 704 OFFCURVE",
"307 699 OFFCURVE",
"332 692 CURVE",
"356 684 OFFCURVE",
"378 673 OFFCURVE",
"397 658 CURVE"
);
},
{
closed = 1;
nodes = (
"331 353 LINE",
"329 421 LINE",
"352 501 OFFCURVE",
"329 429 OFFCURVE",
"328 442 CURVE SMOOTH",
"327 455 OFFCURVE",
"326 467 OFFCURVE",
"325 478 CURVE",
"324 497 OFFCURVE",
"319 514 OFFCURVE",
"310 529 CURVE SMOOTH",
"301 544 OFFCURVE",
"288 556 OFFCURVE",
"273 563 CURVE",
"260 568 OFFCURVE",
"246 569 OFFCURVE",
"232 566 CURVE SMOOTH",
"218 563 OFFCURVE",
"206 557 OFFCURVE",
"195 549 CURVE",
"172 531 OFFCURVE",
"156 508 OFFCURVE",
"148 480 CURVE",
"143 455 OFFCURVE",
"140 428 OFFCURVE",
"139 400 CURVE SMOOTH",
"138 372 OFFCURVE",
"138 344 OFFCURVE",
"139 316 CURVE",
"142 293 OFFCURVE",
"145 269 OFFCURVE",
"146 245 CURVE SMOOTH",
"147 220 OFFCURVE",
"151 197 OFFCURVE",
"158 175 CURVE",
"165 162 OFFCURVE",
"174 151 OFFCURVE",
"187 144 CURVE SMOOTH",
"200 137 OFFCURVE",
"213 133 OFFCURVE",
"228 132 CURVE SMOOTH",
"243 131 OFFCURVE",
"257 133 OFFCURVE",
"272 138 CURVE SMOOTH",
"287 143 OFFCURVE",
"299 151 OFFCURVE",
"309 162 CURVE",
"315 170 OFFCURVE",
"319 177 OFFCURVE",
"322 182 CURVE SMOOTH",
"325 187 OFFCURVE",
"326 192 OFFCURVE",
"327 198 CURVE SMOOTH",
"328 204 OFFCURVE",
"328 211 OFFCURVE",
"328 220 CURVE",
"327 228 OFFCURVE",
"328 239 OFFCURVE",
"329 253 CURVE SMOOTH",
"330 266 OFFCURVE",
"330 278 OFFCURVE",
"331 288 CURVE",
"331 298 OFFCURVE",
"331 304 OFFCURVE",
"331 305 CURVE SMOOTH"
);
}
);
width = 485;
}
);
leftKerningGroup = G;
note = Ograve;
rightKerningGroup = O;
unicode = 00D2;
},
{
glyphname = Oslash;
layers = (
{
hints = (
{
horizontal = 1;
place = "{-2, 21}";
target = up;
type = BottomGhost;
},
{
place = "{288.18, 33.82}";
type = Stem;
}
);
layerId = "9B0E9E80-6738-4704-8EC6-A4FB4E6479F4";
paths = (
{
closed = 1;
nodes = (
"283 415 OFFCURVE",
"428 615 OFFCURVE",
"435 598 CURVE SMOOTH",
"442 581 OFFCURVE",
"446 563 OFFCURVE",
"449 545 CURVE SMOOTH",
"452 527 OFFCURVE",
"453 509 OFFCURVE",
"453 490 CURVE SMOOTH",
"453 471 OFFCURVE",
"452 452 OFFCURVE",
"451 434 CURVE",
"450 383 OFFCURVE",
"450 332 OFFCURVE",
"449 282 CURVE SMOOTH",
"448 231 OFFCURVE",
"443 181 OFFCURVE",
"434 131 CURVE",
"426 95 OFFCURVE",
"409 66 OFFCURVE",
"384 43 CURVE SMOOTH",
"358 20 OFFCURVE",
"327 6 OFFCURVE",
"290 3 CURVE SMOOTH",
"271 1 OFFCURVE",
"252 0 OFFCURVE",
"233 1 CURVE",
"214 1 OFFCURVE",
"196 0 OFFCURVE",
"180 -2 CURVE",
"179 -2 LINE",
"178 -2 LINE",
"179 -3 OFFCURVE",
"177 -4 OFFCURVE",
"176 -7 CURVE",
"174 -10 OFFCURVE",
"170 -13 OFFCURVE",
"165 -17 CURVE",
"164 -18 LINE",
"165 -18 LINE",
"158 -19 OFFCURVE",
"150 -20 OFFCURVE",
"139 -21 CURVE",
"128 -21 OFFCURVE",
"117 -21 OFFCURVE",
"105 -21 CURVE SMOOTH",
"92 -21 OFFCURVE",
"80 -21 OFFCURVE",
"67 -21 CURVE",
"54 -20 OFFCURVE",
"43 -20 OFFCURVE",
"33 -21 CURVE",
"32 -19 OFFCURVE",
"32 -14 OFFCURVE",
"34 -7 CURVE SMOOTH",
"36 1 OFFCURVE",
"39 10 OFFCURVE",
"42 19 CURVE SMOOTH",
"45 28 OFFCURVE",
"48 37 OFFCURVE",
"51 46 CURVE SMOOTH",
"54 55 OFFCURVE",
"57 62 OFFCURVE",
"59 67 CURVE",
"59 68 OFFCURVE",
"59 68 OFFCURVE",
"60 68 CURVE",
"60 68 OFFCURVE",
"60 68 OFFCURVE",
"60 69 CURVE SMOOTH",
"60 70 OFFCURVE",
"60 70 OFFCURVE",
"60 70 CURVE SMOOTH",
"59 70 OFFCURVE",
"59 70 OFFCURVE",
"59 71 CURVE",
"42 136 OFFCURVE",
"33 202 OFFCURVE",
"31 267 CURVE SMOOTH",
"28 332 OFFCURVE",
"29 398 OFFCURVE",
"33 465 CURVE SMOOTH",
"34 477 OFFCURVE",
"35 489 OFFCURVE",
"36 502 CURVE",
"36 514 OFFCURVE",
"37 526 OFFCURVE",
"38 539 CURVE SMOOTH",
"39 551 OFFCURVE",
"40 563 OFFCURVE",
"43 575 CURVE",
"45 586 OFFCURVE",
"49 598 OFFCURVE",
"55 609 CURVE",
"66 632 OFFCURVE",
"79 652 OFFCURVE",
"95 668 CURVE SMOOTH",
"98 671 LINE",
"109 679 OFFCURVE",
"123 688 OFFCURVE",
"138 693 CURVE SMOOTH",
"153 698 OFFCURVE",
"168 701 OFFCURVE",
"184 703 CURVE",
"200 704 OFFCURVE",
"216 705 OFFCURVE",
"232 704 CURVE SMOOTH",
"248 703 OFFCURVE",
"263 702 OFFCURVE",
"278 701 CURVE",
"279 702 OFFCURVE",
"280 703 OFFCURVE",
"281 706 CURVE",
"281 708 OFFCURVE",
"281 710 OFFCURVE",
"282 713 CURVE",
"282 716 OFFCURVE",
"282 718 OFFCURVE",
"283 720 CURVE SMOOTH",
"284 722 OFFCURVE",
"285 723 OFFCURVE",
"288 723 CURVE SMOOTH",
"289 723 LINE",
"299 722 OFFCURVE",
"312 721 OFFCURVE",
"325 722 CURVE",
"338 722 OFFCURVE",
"351 722 OFFCURVE",
"364 723 CURVE SMOOTH",
"377 724 OFFCURVE",
"388 724 OFFCURVE",
"399 723 CURVE SMOOTH",
"410 722 OFFCURVE",
"418 720 OFFCURVE",
"424 716 CURVE",
"423 703 OFFCURVE",
"420 690 OFFCURVE",
"414 679 CURVE",
"407 668 OFFCURVE",
"405 656 OFFCURVE",
"406 645 CURVE"
);
},
{
closed = 1;
nodes = (
"230 449 OFFCURVE",
"142 347 OFFCURVE",
"141 340 CURVE SMOOTH",
"140 332 OFFCURVE",
"140 324 OFFCURVE",
"139 317 CURVE SMOOTH",
"138 309 OFFCURVE",
"138 302 OFFCURVE",
"139 295 CURVE",
"139 288 OFFCURVE",
"140 283 OFFCURVE",
"141 279 CURVE",
"154 322 OFFCURVE",
"170 368 OFFCURVE",
"187 417 CURVE SMOOTH",
"204 466 OFFCURVE",
"219 515 OFFCURVE",
"234 562 CURVE",
"234 563 LINE",
"233 563 LINE",
"226 563 LINE",
"215 561 OFFCURVE",
"199 556 OFFCURVE",
"186 546 CURVE",
"173 535 OFFCURVE",
"163 523 OFFCURVE",
"158 510 CURVE",
"155 489 OFFCURVE",
"153 468 OFFCURVE",
"152 447 CURVE SMOOTH",
"151 426 OFFCURVE",
"149 404 OFFCURVE",
"146 383 CURVE",
"145 379 OFFCURVE",
"145 375 OFFCURVE",
"145 372 CURVE",
"144 368 OFFCURVE",
"144 364 OFFCURVE",
"143 360 CURVE"
);
},
{
closed = 1;
nodes = (
"322 395 LINE",
"256 365 OFFCURVE",
"308 357 OFFCURVE",
"301 335 CURVE",
"293 313 OFFCURVE",
"285 290 OFFCURVE",
"277 267 CURVE SMOOTH",
"269 244 OFFCURVE",
"261 220 OFFCURVE",
"253 197 CURVE",
"244 174 OFFCURVE",
"236 152 OFFCURVE",
"229 131 CURVE",
"230 131 OFFCURVE",
"230 131 OFFCURVE",
"230 131 CURVE",
"230 130 OFFCURVE",
"230 130 OFFCURVE",
"231 130 CURVE",
"238 131 OFFCURVE",
"246 134 OFFCURVE",
"255 137 CURVE SMOOTH",
"264 140 OFFCURVE",
"272 143 OFFCURVE",
"281 148 CURVE",
"289 153 OFFCURVE",
"297 158 OFFCURVE",
"304 165 CURVE",
"311 171 OFFCURVE",
"315 178 OFFCURVE",
"318 187 CURVE",
"323 209 OFFCURVE",
"327 230 OFFCURVE",
"328 250 CURVE SMOOTH",
"329 270 OFFCURVE",
"329 289 OFFCURVE",
"328 306 CURVE SMOOTH",
"327 323 OFFCURVE",
"325 339 OFFCURVE",
"324 353 CURVE SMOOTH",
"323 367 OFFCURVE",
"322 380 OFFCURVE",
"322 391 CURVE SMOOTH"
);
}
);
width = 479;
}
);
leftKerningGroup = G;
note = Oslash;
rightKerningGroup = O;
unicode = 00D8;
},
{
glyphname = Otilde;
layers = (
{
hints = (
{
horizontal = 1;
place = "{705, 41}";
type = Stem;
},
{
place = "{138, 192}";
type = Stem;
}
);
layerId = "9B0E9E80-6738-4704-8EC6-A4FB4E6479F4";
paths = (
{
closed = 1;
nodes = (
"283 421 OFFCURVE",
"429 620 OFFCURVE",
"437 597 CURVE",
"442 587 OFFCURVE",
"445 577 OFFCURVE",
"448 567 CURVE",
"450 556 OFFCURVE",
"452 546 OFFCURVE",
"453 535 CURVE SMOOTH",
"454 518 OFFCURVE",
"455 502 OFFCURVE",
"456 486 CURVE",
"456 469 OFFCURVE",
"456 453 OFFCURVE",
"455 436 CURVE SMOOTH",
"453 401 OFFCURVE",
"452 366 OFFCURVE",
"453 333 CURVE SMOOTH",
"454 300 OFFCURVE",
"453 266 OFFCURVE",
"450 231 CURVE SMOOTH",
"447 198 LINE",
"447 186 OFFCURVE",
"442 151 OFFCURVE",
"436 128 CURVE SMOOTH",
"430 104 OFFCURVE",
"421 82 OFFCURVE",
"409 63 CURVE",
"398 47 OFFCURVE",
"383 34 OFFCURVE",
"365 25 CURVE SMOOTH",
"346 15 OFFCURVE",
"327 7 OFFCURVE",
"306 2 CURVE SMOOTH",
"287 -3 OFFCURVE",
"269 -7 OFFCURVE",
"250 -8 CURVE SMOOTH",
"231 -9 OFFCURVE",
"211 -9 OFFCURVE",
"192 -8 CURVE SMOOTH",
"178 -7 OFFCURVE",
"165 -5 OFFCURVE",
"152 -3 CURVE",
"139 0 OFFCURVE",
"126 4 OFFCURVE",
"115 9 CURVE SMOOTH",
"103 14 OFFCURVE",
"92 21 OFFCURVE",
"83 30 CURVE",
"74 38 OFFCURVE",
"66 49 OFFCURVE",
"60 62 CURVE",
"51 79 OFFCURVE",
"45 97 OFFCURVE",
"42 116 CURVE SMOOTH",
"39 135 OFFCURVE",
"37 154 OFFCURVE",
"36 173 CURVE SMOOTH",
"34 225 OFFCURVE",
"32 277 OFFCURVE",
"30 330 CURVE SMOOTH",
"27 382 OFFCURVE",
"28 434 OFFCURVE",
"31 487 CURVE SMOOTH",
"32 517 OFFCURVE",
"36 547 OFFCURVE",
"43 578 CURVE SMOOTH",
"50 608 OFFCURVE",
"63 635 OFFCURVE",
"84 658 CURVE",
"91 665 OFFCURVE",
"98 671 OFFCURVE",
"107 676 CURVE",
"129 687 OFFCURVE",
"153 695 OFFCURVE",
"179 700 CURVE SMOOTH",
"204 705 OFFCURVE",
"230 706 OFFCURVE",
"256 705 CURVE SMOOTH",
"281 704 OFFCURVE",
"306 699 OFFCURVE",
"331 692 CURVE",
"355 684 OFFCURVE",
"377 673 OFFCURVE",
"396 658 CURVE"
);
},
{
closed = 1;
nodes = (
"330 353 LINE",
"328 421 LINE",
"351 501 OFFCURVE",
"328 429 OFFCURVE",
"327 442 CURVE SMOOTH",
"326 455 OFFCURVE",
"325 467 OFFCURVE",
"324 478 CURVE",
"323 497 OFFCURVE",
"318 514 OFFCURVE",
"309 529 CURVE SMOOTH",
"300 544 OFFCURVE",
"287 556 OFFCURVE",
"272 563 CURVE",
"259 568 OFFCURVE",
"245 569 OFFCURVE",
"231 566 CURVE SMOOTH",
"217 563 OFFCURVE",
"205 557 OFFCURVE",
"194 549 CURVE",
"171 531 OFFCURVE",
"155 508 OFFCURVE",
"147 480 CURVE",
"142 455 OFFCURVE",
"139 428 OFFCURVE",
"138 400 CURVE SMOOTH",
"137 372 OFFCURVE",
"137 344 OFFCURVE",
"138 316 CURVE",
"141 293 OFFCURVE",
"144 269 OFFCURVE",
"145 245 CURVE SMOOTH",
"146 220 OFFCURVE",
"150 197 OFFCURVE",
"157 175 CURVE",
"164 162 OFFCURVE",
"173 151 OFFCURVE",
"186 144 CURVE SMOOTH",
"199 137 OFFCURVE",
"212 133 OFFCURVE",
"227 132 CURVE SMOOTH",
"242 131 OFFCURVE",
"256 133 OFFCURVE",
"271 138 CURVE SMOOTH",
"286 143 OFFCURVE",
"298 151 OFFCURVE",
"308 162 CURVE",
"314 170 OFFCURVE",
"318 177 OFFCURVE",
"321 182 CURVE SMOOTH",
"324 187 OFFCURVE",
"325 192 OFFCURVE",
"326 198 CURVE SMOOTH",
"327 204 OFFCURVE",
"327 211 OFFCURVE",
"327 220 CURVE",
"326 228 OFFCURVE",
"327 239 OFFCURVE",
"328 253 CURVE SMOOTH",
"329 266 OFFCURVE",
"329 278 OFFCURVE",
"330 288 CURVE",
"330 298 OFFCURVE",
"330 304 OFFCURVE",
"330 305 CURVE SMOOTH"
);
},
{
closed = 1;
nodes = (
"156 743 LINE",
"207 598 OFFCURVE",
"140 745 OFFCURVE",
"127 746 CURVE SMOOTH",
"114 747 OFFCURVE",
"101 747 OFFCURVE",
"88 747 CURVE SMOOTH",
"73 747 OFFCURVE",
"56 747 OFFCURVE",
"39 746 CURVE",
"41 753 OFFCURVE",
"44 763 OFFCURVE",
"49 775 CURVE",
"53 786 OFFCURVE",
"58 798 OFFCURVE",
"63 811 CURVE SMOOTH",
"68 824 OFFCURVE",
"74 836 OFFCURVE",
"80 847 CURVE SMOOTH",
"86 858 OFFCURVE",
"92 868 OFFCURVE",
"99 875 CURVE SMOOTH",
"108 884 OFFCURVE",
"118 891 OFFCURVE",
"129 897 CURVE SMOOTH",
"140 903 OFFCURVE",
"152 907 OFFCURVE",
"164 909 CURVE SMOOTH",
"176 911 OFFCURVE",
"188 911 OFFCURVE",
"200 909 CURVE",
"212 906 OFFCURVE",
"223 901 OFFCURVE",
"234 894 CURVE SMOOTH",
"245 887 OFFCURVE",
"253 879 OFFCURVE",
"259 869 CURVE SMOOTH",
"265 859 OFFCURVE",
"272 851 OFFCURVE",
"281 846 CURVE",
"291 837 OFFCURVE",
"300 834 OFFCURVE",
"309 837 CURVE",
"317 839 OFFCURVE",
"325 844 OFFCURVE",
"332 851 CURVE SMOOTH",
"339 858 OFFCURVE",
"344 866 OFFCURVE",
"349 876 CURVE",
"353 885 OFFCURVE",
"356 893 OFFCURVE",
"358 899 CURVE",
"371 900 OFFCURVE",
"385 901 OFFCURVE",
"399 901 CURVE SMOOTH",
"412 901 OFFCURVE",
"426 901 OFFCURVE",
"440 902 CURVE",
"441 901 LINE",
"441 901 OFFCURVE",
"441 900 OFFCURVE",
"442 900 CURVE",
"447 879 OFFCURVE",
"445 857 OFFCURVE",
"437 834 CURVE",
"428 811 OFFCURVE",
"418 790 OFFCURVE",
"406 773 CURVE",
"394 759 OFFCURVE",
"381 750 OFFCURVE",
"366 745 CURVE SMOOTH",
"355 741 OFFCURVE",
"343 739 OFFCURVE",
"331 739 CURVE",
"319 738 OFFCURVE",
"308 740 OFFCURVE",
"297 744 CURVE",
"286 747 OFFCURVE",
"275 753 OFFCURVE",
"266 760 CURVE SMOOTH",
"257 767 OFFCURVE",
"250 777 OFFCURVE",
"245 789 CURVE",
"240 796 OFFCURVE",
"235 802 OFFCURVE",
"230 806 CURVE",
"224 810 OFFCURVE",
"216 812 OFFCURVE",
"206 812 CURVE SMOOTH",
"201 812 OFFCURVE",
"195 811 OFFCURVE",
"190 810 CURVE",
"184 808 OFFCURVE",
"178 806 OFFCURVE",
"171 803 CURVE",
"168 800 OFFCURVE",
"165 798 OFFCURVE",
"162 795 CURVE SMOOTH",
"159 792 OFFCURVE",
"157 788 OFFCURVE",
"156 784 CURVE",
"153 777 OFFCURVE",
"152 770 OFFCURVE",
"152 765 CURVE SMOOTH",
"152 759 OFFCURVE",
"153 752 OFFCURVE",
"156 744 CURVE"
);
}
);
width = 484;
}
);
leftKerningGroup = G;
note = Otilde;
rightKerningGroup = O;
unicode = 00D5;
},
{
glyphname = OE;
layers = (
{
hints = (
{
horizontal = 1;
place = "{140, 133}";
type = Stem;
},
{
horizontal = 1;
place = "{420, 124}";
type = Stem;
},
{
place = "{157, 185}";
type = Stem;
}
);
layerId = "9B0E9E80-6738-4704-8EC6-A4FB4E6479F4";
paths = (
{
closed = 1;
nodes = (
"812 135 LINE",
"543 68 OFFCURVE",
"814 90 OFFCURVE",
"814 67 CURVE",
"813 44 OFFCURVE",
"810 22 OFFCURVE",
"803 3 CURVE",
"802 3 LINE SMOOTH",
"770 2 OFFCURVE",
"739 2 OFFCURVE",
"709 3 CURVE SMOOTH",
"679 3 OFFCURVE",
"649 3 OFFCURVE",
"620 3 CURVE SMOOTH",
"590 3 OFFCURVE",
"560 3 OFFCURVE",
"530 2 CURVE SMOOTH",
"499 1 OFFCURVE",
"468 0 OFFCURVE",
"435 -2 CURVE SMOOTH",
"411 -3 OFFCURVE",
"389 -4 OFFCURVE",
"368 -6 CURVE",
"347 -7 OFFCURVE",
"327 -9 OFFCURVE",
"308 -11 CURVE",
"288 -12 OFFCURVE",
"268 -13 OFFCURVE",
"248 -14 CURVE",
"228 -14 OFFCURVE",
"207 -13 OFFCURVE",
"185 -10 CURVE SMOOTH",
"147 -6 OFFCURVE",
"116 7 OFFCURVE",
"93 29 CURVE SMOOTH",
"70 51 OFFCURVE",
"52 78 OFFCURVE",
"41 109 CURVE",
"34 141 OFFCURVE",
"29 174 OFFCURVE",
"28 207 CURVE SMOOTH",
"27 240 OFFCURVE",
"27 273 OFFCURVE",
"28 306 CURVE SMOOTH",
"29 339 OFFCURVE",
"30 372 OFFCURVE",
"33 405 CURVE SMOOTH",
"35 438 OFFCURVE",
"36 471 OFFCURVE",
"37 504 CURVE SMOOTH",
"38 542 OFFCURVE",
"47 577 OFFCURVE",
"66 609 CURVE SMOOTH",
"84 640 OFFCURVE",
"109 664 OFFCURVE",
"141 681 CURVE",
"154 689 OFFCURVE",
"168 694 OFFCURVE",
"182 697 CURVE",
"196 699 OFFCURVE",
"210 700 OFFCURVE",
"225 700 CURVE SMOOTH",
"239 700 OFFCURVE",
"253 699 OFFCURVE",
"268 698 CURVE SMOOTH",
"283 697 OFFCURVE",
"298 696 OFFCURVE",
"314 697 CURVE",
"348 696 OFFCURVE",
"383 696 OFFCURVE",
"419 696 CURVE SMOOTH",
"455 695 OFFCURVE",
"491 695 OFFCURVE",
"526 696 CURVE SMOOTH",
"561 696 OFFCURVE",
"594 696 OFFCURVE",
"626 697 CURVE SMOOTH",
"658 697 OFFCURVE",
"687 697 OFFCURVE",
"712 698 CURVE",
"737 698 OFFCURVE",
"759 698 OFFCURVE",
"776 698 CURVE SMOOTH",
"793 698 OFFCURVE",
"805 698 OFFCURVE",
"811 698 CURVE",
"812 675 OFFCURVE",
"812 650 OFFCURVE",
"812 625 CURVE",
"811 599 OFFCURVE",
"810 574 OFFCURVE",
"808 551 CURVE",
"786 547 OFFCURVE",
"764 545 OFFCURVE",
"742 544 CURVE SMOOTH",
"719 543 OFFCURVE",
"697 543 OFFCURVE",
"675 544 CURVE",
"652 544 OFFCURVE",
"630 544 OFFCURVE",
"608 544 CURVE",
"585 543 OFFCURVE",
"564 541 OFFCURVE",
"543 538 CURVE",
"542 537 LINE",
"543 528 OFFCURVE",
"543 518 OFFCURVE",
"542 508 CURVE SMOOTH",
"541 498 OFFCURVE",
"541 488 OFFCURVE",
"541 478 CURVE",
"540 468 OFFCURVE",
"540 458 OFFCURVE",
"541 449 CURVE",
"541 439 OFFCURVE",
"543 430 OFFCURVE",
"547 422 CURVE",
"566 420 OFFCURVE",
"587 419 OFFCURVE",
"608 420 CURVE SMOOTH",
"629 421 OFFCURVE",
"650 420 OFFCURVE",
"669 417 CURVE",
"669 416 OFFCURVE",
"669 416 OFFCURVE",
"670 416 CURVE",
"670 415 OFFCURVE",
"670 415 OFFCURVE",
"670 414 CURVE",
"672 391 OFFCURVE",
"673 368 OFFCURVE",
"672 345 CURVE SMOOTH",
"671 322 OFFCURVE",
"670 299 OFFCURVE",
"670 274 CURVE SMOOTH",
"670 273 LINE",
"669 273 LINE",
"656 274 OFFCURVE",
"644 274 OFFCURVE",
"635 275 CURVE",
"626 275 OFFCURVE",
"617 275 OFFCURVE",
"609 275 CURVE",
"600 274 OFFCURVE",
"592 274 OFFCURVE",
"583 274 CURVE",
"574 273 OFFCURVE",
"564 273 OFFCURVE",
"553 273 CURVE SMOOTH",
"552 273 LINE",
"550 272 OFFCURVE",
"548 265 OFFCURVE",
"547 254 CURVE SMOOTH",
"546 243 OFFCURVE",
"545 230 OFFCURVE",
"545 215 CURVE",
"544 200 OFFCURVE",
"545 186 OFFCURVE",
"546 172 CURVE SMOOTH",
"547 158 OFFCURVE",
"550 148 OFFCURVE",
"554 142 CURVE",
"556 142 LINE SMOOTH",
"599 141 OFFCURVE",
"643 140 OFFCURVE",
"686 140 CURVE SMOOTH",
"729 140 OFFCURVE",
"771 139 OFFCURVE",
"812 137 CURVE"
);
},
{
closed = 1;
nodes = (
"498 354 OFFCURVE",
"341 467 OFFCURVE",
"340 475 CURVE SMOOTH",
"339 483 OFFCURVE",
"337 491 OFFCURVE",
"334 498 CURVE",
"333 501 OFFCURVE",
"332 503 OFFCURVE",
"331 506 CURVE",
"330 508 OFFCURVE",
"328 510 OFFCURVE",
"327 513 CURVE",
"319 529 OFFCURVE",
"309 541 OFFCURVE",
"297 549 CURVE SMOOTH",
"290 554 OFFCURVE",
"281 557 OFFCURVE",
"272 560 CURVE SMOOTH",
"263 563 OFFCURVE",
"253 564 OFFCURVE",
"244 564 CURVE SMOOTH",
"234 564 OFFCURVE",
"225 563 OFFCURVE",
"216 561 CURVE SMOOTH",
"207 559 OFFCURVE",
"199 556 OFFCURVE",
"192 551 CURVE",
"183 544 OFFCURVE",
"175 534 OFFCURVE",
"170 523 CURVE SMOOTH",
"165 511 OFFCURVE",
"161 498 OFFCURVE",
"159 484 CURVE",
"158 471 OFFCURVE",
"157 458 OFFCURVE",
"157 446 CURVE SMOOTH",
"157 434 OFFCURVE",
"157 423 OFFCURVE",
"157 412 CURVE",
"159 396 OFFCURVE",
"160 380 OFFCURVE",
"160 365 CURVE",
"159 349 OFFCURVE",
"159 333 OFFCURVE",
"158 318 CURVE SMOOTH",
"157 303 OFFCURVE",
"157 288 OFFCURVE",
"157 273 CURVE SMOOTH",
"157 258 OFFCURVE",
"158 242 OFFCURVE",
"160 227 CURVE",
"161 214 OFFCURVE",
"165 198 OFFCURVE",
"172 180 CURVE",
"178 161 OFFCURVE",
"187 146 OFFCURVE",
"200 135 CURVE",
"211 124 OFFCURVE",
"225 120 OFFCURVE",
"240 123 CURVE SMOOTH",
"255 126 OFFCURVE",
"269 132 OFFCURVE",
"282 141 CURVE",
"299 156 OFFCURVE",
"311 174 OFFCURVE",
"318 194 CURVE",
"324 214 OFFCURVE",
"329 235 OFFCURVE",
"332 258 CURVE",
"335 291 OFFCURVE",
"338 324 OFFCURVE",
"341 356 CURVE SMOOTH",
"343 387 OFFCURVE",
"343 419 OFFCURVE",
"342 452 CURVE"
);
}
);
width = 830;
}
);
leftKerningGroup = G;
note = OE;
rightKerningGroup = AE;
unicode = 0152;
},
{
glyphname = P;
layers = (
{
hints = (
{
horizontal = 1;
place = "{2.25, 711.5}";
type = Stem;
},
{
place = "{184, 155.5}";
type = Stem;
},
{
horizontal = 1;
place = "{407, 152}";
type = Stem;
}
);
layerId = "9B0E9E80-6738-4704-8EC6-A4FB4E6479F4";
paths = (
{
closed = 1;
nodes = (
"484 490 LINE",
"323 322 OFFCURVE",
"484 481 OFFCURVE",
"484 477 CURVE SMOOTH",
"484 472 OFFCURVE",
"484 468 OFFCURVE",
"483 464 CURVE",
"479 432 OFFCURVE",
"469 403 OFFCURVE",
"452 376 CURVE SMOOTH",
"435 349 OFFCURVE",
"413 327 OFFCURVE",
"388 308 CURVE SMOOTH",
"363 289 OFFCURVE",
"335 276 OFFCURVE",
"304 268 CURVE SMOOTH",
"273 259 OFFCURVE",
"242 258 OFFCURVE",
"210 263 CURVE",
"211 254 OFFCURVE",
"211 245 OFFCURVE",
"211 236 CURVE SMOOTH",
"211 227 OFFCURVE",
"211 214 OFFCURVE",
"211 197 CURVE SMOOTH",
"211 180 OFFCURVE",
"211 157 OFFCURVE",
"212 128 CURVE SMOOTH",
"212 99 OFFCURVE",
"213 61 OFFCURVE",
"214 12 CURVE SMOOTH",
"214 11 LINE",
"213 11 OFFCURVE",
"213 11 OFFCURVE",
"213 11 CURVE",
"212 10 OFFCURVE",
"212 10 OFFCURVE",
"211 10 CURVE",
"202 7 OFFCURVE",
"190 6 OFFCURVE",
"176 5 CURVE SMOOTH",
"161 4 OFFCURVE",
"146 3 OFFCURVE",
"131 3 CURVE",
"115 2 OFFCURVE",
"99 2 OFFCURVE",
"84 3 CURVE SMOOTH",
"69 4 OFFCURVE",
"55 5 OFFCURVE",
"44 6 CURVE",
"42 55 OFFCURVE",
"41 108 OFFCURVE",
"41 165 CURVE SMOOTH",
"41 222 OFFCURVE",
"41 280 OFFCURVE",
"41 340 CURVE SMOOTH",
"41 400 OFFCURVE",
"41 460 OFFCURVE",
"41 521 CURVE",
"40 582 OFFCURVE",
"39 640 OFFCURVE",
"37 695 CURVE",
"64 702 OFFCURVE",
"94 708 OFFCURVE",
"127 711 CURVE SMOOTH",
"159 714 OFFCURVE",
"191 715 OFFCURVE",
"224 712 CURVE SMOOTH",
"256 709 OFFCURVE",
"287 704 OFFCURVE",
"318 695 CURVE SMOOTH",
"349 686 OFFCURVE",
"376 672 OFFCURVE",
"400 655 CURVE",
"423 637 OFFCURVE",
"443 615 OFFCURVE",
"458 588 CURVE SMOOTH",
"473 561 OFFCURVE",
"482 529 OFFCURVE",
"484 491 CURVE"
);
},
{
closed = 1;
nodes = (
"385 460 OFFCURVE",
"336 450 OFFCURVE",
"339 459 CURVE",
"341 468 OFFCURVE",
"341 478 OFFCURVE",
"340 487 CURVE",
"338 496 OFFCURVE",
"335 505 OFFCURVE",
"330 513 CURVE SMOOTH",
"325 521 OFFCURVE",
"318 528 OFFCURVE",
"309 533 CURVE",
"292 546 OFFCURVE",
"273 555 OFFCURVE",
"251 559 CURVE",
"229 562 OFFCURVE",
"207 561 OFFCURVE",
"186 556 CURVE",
"185 556 OFFCURVE",
"184 556 OFFCURVE",
"183 555 CURVE",
"184 543 OFFCURVE",
"184 530 OFFCURVE",
"184 517 CURVE",
"183 504 OFFCURVE",
"183 490 OFFCURVE",
"184 477 CURVE",
"184 464 OFFCURVE",
"185 451 OFFCURVE",
"186 439 CURVE SMOOTH",
"187 426 OFFCURVE",
"189 415 OFFCURVE",
"192 405 CURVE",
"195 405 LINE",
"205 406 OFFCURVE",
"217 406 OFFCURVE",
"229 407 CURVE",
"241 407 OFFCURVE",
"253 408 OFFCURVE",
"265 409 CURVE SMOOTH",
"276 410 OFFCURVE",
"288 413 OFFCURVE",
"299 417 CURVE",
"310 420 OFFCURVE",
"319 426 OFFCURVE",
"327 434 CURVE"
);
}
);
width = 497;
}
);
note = P;
rightKerningGroup = P;
unicode = 0050;
},
{
glyphname = Thorn;
layers = (
{
hints = (
{
horizontal = 1;
place = "{-4, 734}";
type = Stem;
},
{
place = "{183, 54.87}";
type = Stem;
},
{
place = "{185, 146.42}";
type = Stem;
}
);
layerId = "9B0E9E80-6738-4704-8EC6-A4FB4E6479F4";
paths = (
{
closed = 1;
nodes = (
"185 89 OFFCURVE",
"265 138 OFFCURVE",
"242 149 CURVE",
"219 159 OFFCURVE",
"199 172 OFFCURVE",
"183 187 CURVE",
"183 148 OFFCURVE",
"183 117 OFFCURVE",
"182 94 CURVE SMOOTH",
"181 71 OFFCURVE",
"181 54 OFFCURVE",
"180 42 CURVE SMOOTH",
"179 30 OFFCURVE",
"179 22 OFFCURVE",
"179 17 CURVE SMOOTH",
"179 12 OFFCURVE",
"180 8 OFFCURVE",
"181 4 CURVE",
"178 0 OFFCURVE",
"169 -2 OFFCURVE",
"156 -3 CURVE SMOOTH",
"142 -4 OFFCURVE",
"127 -4 OFFCURVE",
"111 -4 CURVE",
"95 -3 OFFCURVE",
"80 -3 OFFCURVE",
"66 -3 CURVE",
"51 -2 OFFCURVE",
"42 -3 OFFCURVE",
"37 -4 CURVE",
"42 68 OFFCURVE",
"44 135 OFFCURVE",
"44 197 CURVE SMOOTH",
"44 258 OFFCURVE",
"44 318 OFFCURVE",
"43 376 CURVE SMOOTH",
"42 433 OFFCURVE",
"41 491 OFFCURVE",
"40 548 CURVE SMOOTH",
"39 605 OFFCURVE",
"41 666 OFFCURVE",
"44 730 CURVE",
"180 727 LINE",
"135 714 OFFCURVE",
"180 703 OFFCURVE",
"181 698 CURVE",
"181 693 OFFCURVE",
"181 687 OFFCURVE",
"182 680 CURVE",
"182 673 OFFCURVE",
"182 662 OFFCURVE",
"182 649 CURVE SMOOTH",
"182 636 OFFCURVE",
"182 615 OFFCURVE",
"182 586 CURVE",
"187 597 OFFCURVE",
"193 606 OFFCURVE",
"200 613 CURVE",
"207 619 OFFCURVE",
"216 624 OFFCURVE",
"225 627 CURVE SMOOTH",
"234 630 OFFCURVE",
"245 631 OFFCURVE",
"256 632 CURVE",
"267 632 OFFCURVE",
"278 632 OFFCURVE",
"290 632 CURVE",
"313 631 OFFCURVE",
"335 625 OFFCURVE",
"356 614 CURVE",
"377 602 OFFCURVE",
"395 586 OFFCURVE",
"410 566 CURVE SMOOTH",
"425 545 OFFCURVE",
"436 521 OFFCURVE",
"445 493 CURVE SMOOTH",
"454 465 OFFCURVE",
"458 434 OFFCURVE",
"458 401 CURVE SMOOTH",
"458 374 OFFCURVE",
"455 345 OFFCURVE",
"450 314 CURVE SMOOTH",
"444 283 OFFCURVE",
"435 254 OFFCURVE",
"423 227 CURVE SMOOTH",
"411 200 OFFCURVE",
"396 178 OFFCURVE",
"378 160 CURVE SMOOTH",
"359 142 OFFCURVE",
"337 133 OFFCURVE",
"311 133 CURVE"
);
},
{
closed = 1;
nodes = (
"327 307 OFFCURVE",
"335 399 OFFCURVE",
"334 408 CURVE SMOOTH",
"333 417 OFFCURVE",
"332 425 OFFCURVE",
"329 434 CURVE",
"326 451 OFFCURVE",
"316 466 OFFCURVE",
"301 479 CURVE SMOOTH",
"285 492 OFFCURVE",
"263 498 OFFCURVE",
"236 498 CURVE SMOOTH",
"222 498 OFFCURVE",
"212 497 OFFCURVE",
"205 495 CURVE SMOOTH",
"198 493 OFFCURVE",
"193 488 OFFCURVE",
"190 481 CURVE SMOOTH",
"187 474 OFFCURVE",
"185 463 OFFCURVE",
"185 450 CURVE",
"184 436 OFFCURVE",
"184 417 OFFCURVE",
"184 394 CURVE SMOOTH",
"184 375 OFFCURVE",
"184 359 OFFCURVE",
"185 344 CURVE",
"185 329 OFFCURVE",
"187 316 OFFCURVE",
"191 306 CURVE",
"194 295 OFFCURVE",
"200 287 OFFCURVE",
"209 282 CURVE",
"217 276 OFFCURVE",
"229 273 OFFCURVE",
"246 273 CURVE SMOOTH",
"274 273 OFFCURVE",
"296 284 OFFCURVE",
"312 305 CURVE SMOOTH",
"327 326 OFFCURVE",
"335 351 OFFCURVE",
"335 381 CURVE"
);
}
);
width = 478;
}
);
note = Thorn;
rightKerningGroup = Thorn;
unicode = 00DE;
},
{
glyphname = Q;
layers = (
{
hints = (
{
horizontal = 1;
place = "{-8, 722}";
type = Stem;
},
{
place = "{153, 191}";
type = Stem;
},
{
place = "{152, 74}";
type = Stem;
}
);
layerId = "9B0E9E80-6738-4704-8EC6-A4FB4E6479F4";
paths = (
{
closed = 1;
nodes = (
"309 159 OFFCURVE",
"463 231 OFFCURVE",
"463 214 CURVE",
"462 197 OFFCURVE",
"460 181 OFFCURVE",
"456 165 CURVE",
"455 157 OFFCURVE",
"454 148 OFFCURVE",
"451 139 CURVE",
"447 123 OFFCURVE",
"439 103 OFFCURVE",
"428 78 CURVE",
"433 73 OFFCURVE",
"437 68 OFFCURVE",
"441 63 CURVE SMOOTH",
"445 58 OFFCURVE",
"447 53 OFFCURVE",
"447 48 CURVE SMOOTH",
"447 39 OFFCURVE",
"444 31 OFFCURVE",
"439 26 CURVE SMOOTH",
"434 21 OFFCURVE",
"427 15 OFFCURVE",
"420 10 CURVE",
"415 7 OFFCURVE",
"408 3 OFFCURVE",
"400 -2 CURVE",
"392 -6 OFFCURVE",
"384 -8 OFFCURVE",
"377 -8 CURVE SMOOTH",
"373 -8 OFFCURVE",
"367 -4 OFFCURVE",
"359 4 CURVE",
"350 12 OFFCURVE",
"344 19 OFFCURVE",
"340 24 CURVE",
"336 19 OFFCURVE",
"330 15 OFFCURVE",
"322 11 CURVE SMOOTH",
"314 7 OFFCURVE",
"305 4 OFFCURVE",
"295 1 CURVE SMOOTH",
"285 -2 OFFCURVE",
"274 -4 OFFCURVE",
"263 -5 CURVE SMOOTH",
"252 -6 OFFCURVE",
"241 -7 OFFCURVE",
"231 -6 CURVE",
"214 -5 OFFCURVE",
"200 -3 OFFCURVE",
"187 1 CURVE",
"174 4 OFFCURVE",
"162 8 OFFCURVE",
"151 13 CURVE SMOOTH",
"140 18 OFFCURVE",
"129 23 OFFCURVE",
"120 30 CURVE",
"110 37 OFFCURVE",
"100 45 OFFCURVE",
"90 54 CURVE SMOOTH",
"73 70 OFFCURVE",
"61 88 OFFCURVE",
"53 107 CURVE",
"44 126 OFFCURVE",
"38 146 OFFCURVE",
"35 168 CURVE SMOOTH",
"32 189 OFFCURVE",
"30 212 OFFCURVE",
"30 235 CURVE SMOOTH",
"30 258 OFFCURVE",
"30 282 OFFCURVE",
"30 307 CURVE SMOOTH",
"30 330 OFFCURVE",
"30 355 OFFCURVE",
"30 382 CURVE SMOOTH",
"30 408 OFFCURVE",
"31 435 OFFCURVE",
"32 462 CURVE SMOOTH",
"33 489 OFFCURVE",
"35 515 OFFCURVE",
"38 542 CURVE SMOOTH",
"41 569 OFFCURVE",
"45 594 OFFCURVE",
"52 618 CURVE",
"57 632 OFFCURVE",
"65 645 OFFCURVE",
"77 657 CURVE",
"89 668 OFFCURVE",
"104 678 OFFCURVE",
"122 687 CURVE SMOOTH",
"139 696 OFFCURVE",
"159 702 OFFCURVE",
"181 707 CURVE SMOOTH",
"203 712 OFFCURVE",
"227 714 OFFCURVE",
"253 714 CURVE SMOOTH",
"276 714 OFFCURVE",
"297 713 OFFCURVE",
"315 712 CURVE",
"333 710 OFFCURVE",
"349 705 OFFCURVE",
"364 698 CURVE SMOOTH",
"379 691 OFFCURVE",
"392 680 OFFCURVE",
"404 665 CURVE SMOOTH",
"416 650 OFFCURVE",
"428 629 OFFCURVE",
"439 602 CURVE",
"450 566 OFFCURVE",
"458 528 OFFCURVE",
"462 488 CURVE SMOOTH",
"466 448 OFFCURVE",
"468 408 OFFCURVE",
"468 368 CURVE SMOOTH",
"468 347 OFFCURVE",
"468 330 OFFCURVE",
"468 316 CURVE",
"467 301 OFFCURVE",
"466 284 OFFCURVE",
"465 264 CURVE"
);
},
{
closed = 1;
nodes = (
"333 232 OFFCURVE",
"270 219 OFFCURVE",
"275 224 CURVE SMOOTH",
"280 229 OFFCURVE",
"287 232 OFFCURVE",
"294 232 CURVE SMOOTH",
"298 232 OFFCURVE",
"302 230 OFFCURVE",
"305 227 CURVE",
"308 223 OFFCURVE",
"312 219 OFFCURVE",
"315 214 CURVE SMOOTH",
"318 209 OFFCURVE",
"321 203 OFFCURVE",
"324 197 CURVE SMOOTH",
"327 191 OFFCURVE",
"330 186 OFFCURVE",
"334 182 CURVE",
"335 185 OFFCURVE",
"335 190 OFFCURVE",
"336 196 CURVE SMOOTH",
"337 201 OFFCURVE",
"337 207 OFFCURVE",
"338 214 CURVE SMOOTH",
"339 220 OFFCURVE",
"339 226 OFFCURVE",
"340 232 CURVE SMOOTH",
"341 237 OFFCURVE",
"341 242 OFFCURVE",
"342 245 CURVE",
"343 252 OFFCURVE",
"343 261 OFFCURVE",
"344 271 CURVE",
"344 281 OFFCURVE",
"344 292 OFFCURVE",
"344 303 CURVE SMOOTH",
"344 314 OFFCURVE",
"344 324 OFFCURVE",
"344 335 CURVE",
"343 345 OFFCURVE",
"343 354 OFFCURVE",
"343 361 CURVE SMOOTH",
"343 384 OFFCURVE",
"343 405 OFFCURVE",
"342 422 CURVE SMOOTH",
"341 439 OFFCURVE",
"339 460 OFFCURVE",
"336 484 CURVE",
"334 508 OFFCURVE",
"327 528 OFFCURVE",
"315 543 CURVE SMOOTH",
"303 558 OFFCURVE",
"281 565 OFFCURVE",
"250 565 CURVE SMOOTH",
"231 565 OFFCURVE",
"216 564 OFFCURVE",
"205 563 CURVE",
"194 561 OFFCURVE",
"185 557 OFFCURVE",
"179 552 CURVE",
"172 547 OFFCURVE",
"168 539 OFFCURVE",
"166 529 CURVE",
"163 518 OFFCURVE",
"161 505 OFFCURVE",
"160 488 CURVE SMOOTH",
"159 474 OFFCURVE",
"158 461 OFFCURVE",
"157 450 CURVE SMOOTH",
"156 438 OFFCURVE",
"155 427 OFFCURVE",
"155 416 CURVE",
"154 405 OFFCURVE",
"154 393 OFFCURVE",
"154 382 CURVE",
"153 370 OFFCURVE",
"153 357 OFFCURVE",
"153 343 CURVE SMOOTH",
"153 334 OFFCURVE",
"153 321 OFFCURVE",
"153 306 CURVE",
"152 291 OFFCURVE",
"152 275 OFFCURVE",
"152 258 CURVE SMOOTH",
"152 241 OFFCURVE",
"153 225 OFFCURVE",
"154 210 CURVE SMOOTH",
"155 194 OFFCURVE",
"158 181 OFFCURVE",
"161 171 CURVE",
"168 151 OFFCURVE",
"180 137 OFFCURVE",
"197 128 CURVE SMOOTH",
"213 119 OFFCURVE",
"231 115 OFFCURVE",
"251 115 CURVE SMOOTH",
"254 115 OFFCURVE",
"257 115 OFFCURVE",
"260 115 CURVE SMOOTH",
"263 115 OFFCURVE",
"266 115 OFFCURVE",
"269 116 CURVE",
"261 124 OFFCURVE",
"254 132 OFFCURVE",
"247 139 CURVE",
"242 146 OFFCURVE",
"237 153 OFFCURVE",
"233 160 CURVE",
"228 167 OFFCURVE",
"226 173 OFFCURVE",
"226 179 CURVE SMOOTH",
"226 188 OFFCURVE",
"230 195 OFFCURVE",
"237 198 CURVE SMOOTH",
"244 201 OFFCURVE",
"252 206 OFFCURVE",
"259 211 CURVE"
);
}
);
width = 495;
}
);
leftKerningGroup = Q;
note = Q;
rightKerningGroup = Q;
unicode = 0051;
},
{
glyphname = R;
layers = (
{
hints = (
{
horizontal = 1;
place = "{0, 21}";
target = up;
type = BottomGhost;
},
{
horizontal = 1;
place = "{436, 48.85}";
type = Stem;
},
{
place = "{181, 147}";
type = Stem;
}
);
layerId = "9B0E9E80-6738-4704-8EC6-A4FB4E6479F4";
paths = (
{
closed = 1;
nodes = (
"517 3 LINE",
"321 2 OFFCURVE",
"468 2 OFFCURVE",
"439 1 CURVE SMOOTH",
"410 -1 OFFCURVE",
"381 -1 OFFCURVE",
"351 1 CURVE",
"350 1 LINE",
"344 16 OFFCURVE",
"335 35 OFFCURVE",
"325 56 CURVE SMOOTH",
"315 77 OFFCURVE",
"304 100 OFFCURVE",
"292 123 CURVE SMOOTH",
"280 146 OFFCURVE",
"267 169 OFFCURVE",
"253 192 CURVE SMOOTH",
"239 215 OFFCURVE",
"225 235 OFFCURVE",
"211 252 CURVE",
"209 255 LINE",
"208 239 OFFCURVE",
"206 221 OFFCURVE",
"206 199 CURVE SMOOTH",
"206 176 OFFCURVE",
"207 153 OFFCURVE",
"208 130 CURVE SMOOTH",
"209 106 OFFCURVE",
"210 83 OFFCURVE",
"211 62 CURVE SMOOTH",
"212 41 OFFCURVE",
"213 24 OFFCURVE",
"214 11 CURVE",
"203 6 OFFCURVE",
"188 3 OFFCURVE",
"170 2 CURVE SMOOTH",
"151 1 OFFCURVE",
"133 0 OFFCURVE",
"115 -1 CURVE",
"97 -1 OFFCURVE",
"81 -1 OFFCURVE",
"67 0 CURVE SMOOTH",
"52 1 OFFCURVE",
"43 1 OFFCURVE",
"40 0 CURVE",
"41 0 OFFCURVE",
"42 9 OFFCURVE",
"43 28 CURVE SMOOTH",
"44 46 OFFCURVE",
"44 70 OFFCURVE",
"44 100 CURVE SMOOTH",
"44 130 OFFCURVE",
"44 165 OFFCURVE",
"44 204 CURVE SMOOTH",
"44 243 OFFCURVE",
"44 283 OFFCURVE",
"44 325 CURVE",
"43 366 OFFCURVE",
"43 408 OFFCURVE",
"42 449 CURVE SMOOTH",
"41 490 OFFCURVE",
"40 527 OFFCURVE",
"39 562 CURVE SMOOTH",
"38 596 OFFCURVE",
"38 625 OFFCURVE",
"37 650 CURVE SMOOTH",
"36 674 OFFCURVE",
"34 690 OFFCURVE",
"33 699 CURVE",
"70 704 OFFCURVE",
"111 709 OFFCURVE",
"156 714 CURVE SMOOTH",
"201 719 OFFCURVE",
"247 718 OFFCURVE",
"296 713 CURVE",
"335 711 OFFCURVE",
"371 700 OFFCURVE",
"402 679 CURVE SMOOTH",
"433 658 OFFCURVE",
"458 633 OFFCURVE",
"475 602 CURVE SMOOTH",
"492 571 OFFCURVE",
"502 538 OFFCURVE",
"503 501 CURVE SMOOTH",
"504 464 OFFCURVE",
"494 428 OFFCURVE",
"473 393 CURVE",
"460 369 OFFCURVE",
"444 349 OFFCURVE",
"423 333 CURVE SMOOTH",
"402 317 OFFCURVE",
"375 308 OFFCURVE",
"343 306 CURVE",
"339 306 LINE",
"338 306 LINE",
"338 305 LINE",
"354 281 OFFCURVE",
"367 256 OFFCURVE",
"384 232 CURVE SMOOTH",
"401 207 OFFCURVE",
"417 183 OFFCURVE",
"433 158 CURVE SMOOTH",
"449 133 OFFCURVE",
"464 108 OFFCURVE",
"479 83 CURVE SMOOTH",
"494 57 OFFCURVE",
"506 30 OFFCURVE",
"516 3 CURVE"
);
},
{
closed = 1;
nodes = (
"360 385 OFFCURVE",
"271 576 OFFCURVE",
"248 575 CURVE SMOOTH",
"225 574 OFFCURVE",
"202 568 OFFCURVE",
"179 559 CURVE",
"180 550 OFFCURVE",
"180 541 OFFCURVE",
"181 530 CURVE",
"181 519 OFFCURVE",
"181 507 OFFCURVE",
"181 496 CURVE SMOOTH",
"181 485 OFFCURVE",
"181 474 OFFCURVE",
"182 463 CURVE",
"182 452 OFFCURVE",
"183 443 OFFCURVE",
"184 436 CURVE",
"185 436 LINE",
"200 435 OFFCURVE",
"217 434 OFFCURVE",
"235 433 CURVE SMOOTH",
"253 432 OFFCURVE",
"270 433 OFFCURVE",
"286 436 CURVE",
"299 439 OFFCURVE",
"309 445 OFFCURVE",
"316 456 CURVE",
"323 466 OFFCURVE",
"327 477 OFFCURVE",
"328 490 CURVE SMOOTH",
"329 502 OFFCURVE",
"328 514 OFFCURVE",
"324 527 CURVE SMOOTH",
"320 539 OFFCURVE",
"313 549 OFFCURVE",
"304 556 CURVE"
);
}
);
width = 518;
}
);
note = R;
rightKerningGroup = R;
unicode = 0052;
},
{
glyphname = S;
layers = (
{
hints = (
{
horizontal = 1;
place = "{-5, 704.13}";
type = Stem;
},
{
place = "{187, 125}";
type = Stem;
},
{
place = "{165, 135}";
type = Stem;
}
);
layerId = "9B0E9E80-6738-4704-8EC6-A4FB4E6479F4";
paths = (
{
closed = 1;
nodes = (
"462 474 LINE",
"285 312 OFFCURVE",
"414 468 OFFCURVE",
"387 467 CURVE SMOOTH",
"360 466 OFFCURVE",
"335 468 OFFCURVE",
"312 475 CURVE",
"316 493 OFFCURVE",
"312 508 OFFCURVE",
"301 520 CURVE SMOOTH",
"290 532 OFFCURVE",
"276 540 OFFCURVE",
"260 543 CURVE SMOOTH",
"244 546 OFFCURVE",
"229 545 OFFCURVE",
"214 538 CURVE SMOOTH",
"199 531 OFFCURVE",
"190 519 OFFCURVE",
"187 500 CURVE",
"186 495 OFFCURVE",
"185 491 OFFCURVE",
"186 487 CURVE",
"186 482 OFFCURVE",
"186 478 OFFCURVE",
"187 473 CURVE",
"192 457 OFFCURVE",
"201 446 OFFCURVE",
"213 441 CURVE SMOOTH",
"225 436 OFFCURVE",
"238 432 OFFCURVE",
"252 430 CURVE SMOOTH",
"287 426 OFFCURVE",
"320 415 OFFCURVE",
"351 396 CURVE SMOOTH",
"381 377 OFFCURVE",
"406 354 OFFCURVE",
"425 325 CURVE",
"437 310 OFFCURVE",
"446 293 OFFCURVE",
"452 276 CURVE SMOOTH",
"458 258 OFFCURVE",
"462 240 OFFCURVE",
"463 221 CURVE SMOOTH",
"464 202 OFFCURVE",
"462 184 OFFCURVE",
"459 165 CURVE",
"455 146 OFFCURVE",
"449 127 OFFCURVE",
"441 110 CURVE",
"433 89 OFFCURVE",
"422 72 OFFCURVE",
"409 57 CURVE SMOOTH",
"396 42 OFFCURVE",
"381 30 OFFCURVE",
"364 21 CURVE SMOOTH",
"347 12 OFFCURVE",
"328 5 OFFCURVE",
"309 1 CURVE",
"289 -4 OFFCURVE",
"269 -6 OFFCURVE",
"248 -5 CURVE SMOOTH",
"219 -4 OFFCURVE",
"190 1 OFFCURVE",
"161 11 CURVE SMOOTH",
"132 20 OFFCURVE",
"106 34 OFFCURVE",
"83 51 CURVE SMOOTH",
"60 68 OFFCURVE",
"42 90 OFFCURVE",
"29 115 CURVE SMOOTH",
"16 140 OFFCURVE",
"10 168 OFFCURVE",
"12 200 CURVE",
"12 203 LINE",
"12 206 LINE",
"35 207 OFFCURVE",
"61 210 OFFCURVE",
"89 209 CURVE",
"117 207 OFFCURVE",
"142 206 OFFCURVE",
"165 207 CURVE",
"166 186 OFFCURVE",
"175 170 OFFCURVE",
"191 159 CURVE SMOOTH",
"206 148 OFFCURVE",
"223 143 OFFCURVE",
"241 144 CURVE",
"258 144 OFFCURVE",
"274 150 OFFCURVE",
"287 161 CURVE SMOOTH",
"300 172 OFFCURVE",
"304 190 OFFCURVE",
"300 213 CURVE",
"298 229 OFFCURVE",
"292 242 OFFCURVE",
"282 252 CURVE",
"272 261 OFFCURVE",
"260 269 OFFCURVE",
"247 275 CURVE SMOOTH",
"233 281 OFFCURVE",
"218 286 OFFCURVE",
"202 289 CURVE SMOOTH",
"186 292 OFFCURVE",
"171 294 OFFCURVE",
"157 297 CURVE SMOOTH",
"144 300 OFFCURVE",
"131 304 OFFCURVE",
"120 310 CURVE SMOOTH",
"109 316 OFFCURVE",
"98 323 OFFCURVE",
"89 331 CURVE SMOOTH",
"58 360 OFFCURVE",
"39 393 OFFCURVE",
"30 428 CURVE SMOOTH",
"21 463 OFFCURVE",
"20 498 OFFCURVE",
"28 531 CURVE SMOOTH",
"36 564 OFFCURVE",
"51 595 OFFCURVE",
"74 622 CURVE SMOOTH",
"96 649 OFFCURVE",
"123 670 OFFCURVE",
"155 683 CURVE SMOOTH",
"171 690 OFFCURVE",
"189 694 OFFCURVE",
"208 697 CURVE",
"227 699 OFFCURVE",
"247 700 OFFCURVE",
"267 699 CURVE SMOOTH",
"286 698 OFFCURVE",
"306 695 OFFCURVE",
"325 690 CURVE SMOOTH",
"344 685 OFFCURVE",
"361 679 OFFCURVE",
"377 672 CURVE",
"409 655 OFFCURVE",
"434 631 OFFCURVE",
"451 598 CURVE SMOOTH",
"468 565 OFFCURVE",
"472 524 OFFCURVE",
"463 474 CURVE"
);
}
);
width = 485;
}
);
leftKerningGroup = S;
note = S;
rightKerningGroup = S;
unicode = 0053;
},
{
glyphname = Scaron;
layers = (
{
hints = (
{
horizontal = 1;
place = "{511.14, -20}";
target = down;
type = TopGhost;
},
{
place = "{140, 125}";
type = Stem;
},
{
place = "{118, 135}";
type = Stem;
}
);
layerId = "9B0E9E80-6738-4704-8EC6-A4FB4E6479F4";
paths = (
{
closed = 1;
nodes = (
"412 910 LINE",
"274 606 OFFCURVE",
"408 910 OFFCURVE",
"402 911 CURVE SMOOTH",
"396 912 OFFCURVE",
"388 913 OFFCURVE",
"378 914 CURVE SMOOTH",
"367 915 OFFCURVE",
"355 916 OFFCURVE",
"342 917 CURVE SMOOTH",
"328 918 OFFCURVE",
"313 917 OFFCURVE",
"297 915 CURVE",
"295 915 OFFCURVE",
"292 913 OFFCURVE",
"287 909 CURVE",
"282 904 OFFCURVE",
"278 899 OFFCURVE",
"273 894 CURVE",
"268 888 OFFCURVE",
"263 882 OFFCURVE",
"258 877 CURVE SMOOTH",
"253 872 OFFCURVE",
"249 868 OFFCURVE",
"246 866 CURVE",
"243 867 OFFCURVE",
"240 871 OFFCURVE",
"235 876 CURVE SMOOTH",
"230 881 OFFCURVE",
"225 886 OFFCURVE",
"220 892 CURVE",
"215 897 OFFCURVE",
"210 902 OFFCURVE",
"205 907 CURVE SMOOTH",
"200 912 OFFCURVE",
"197 914 OFFCURVE",
"194 915 CURVE",
"188 916 OFFCURVE",
"183 916 OFFCURVE",
"180 916 CURVE SMOOTH",
"176 916 OFFCURVE",
"171 916 OFFCURVE",
"165 916 CURVE",
"158 915 OFFCURVE",
"149 915 OFFCURVE",
"138 914 CURVE SMOOTH",
"126 913 OFFCURVE",
"109 912 OFFCURVE",
"87 911 CURVE",
"110 880 OFFCURVE",
"135 852 OFFCURVE",
"163 827 CURVE SMOOTH",
"191 802 OFFCURVE",
"220 775 OFFCURVE",
"249 748 CURVE"
);
},
{
closed = 1;
nodes = (
"415 474 LINE",
"336 561 OFFCURVE",
"367 468 OFFCURVE",
"340 467 CURVE SMOOTH",
"313 466 OFFCURVE",
"288 468 OFFCURVE",
"265 475 CURVE",
"269 493 OFFCURVE",
"265 508 OFFCURVE",
"254 520 CURVE SMOOTH",
"243 532 OFFCURVE",
"229 540 OFFCURVE",
"213 543 CURVE SMOOTH",
"197 546 OFFCURVE",
"182 545 OFFCURVE",
"167 538 CURVE SMOOTH",
"152 531 OFFCURVE",
"143 519 OFFCURVE",
"140 500 CURVE",
"139 495 OFFCURVE",
"138 491 OFFCURVE",
"139 487 CURVE",
"139 482 OFFCURVE",
"139 478 OFFCURVE",
"140 473 CURVE",
"145 457 OFFCURVE",
"154 446 OFFCURVE",
"166 441 CURVE SMOOTH",
"178 436 OFFCURVE",
"191 432 OFFCURVE",
"205 430 CURVE SMOOTH",
"240 426 OFFCURVE",
"273 415 OFFCURVE",
"304 396 CURVE SMOOTH",
"334 377 OFFCURVE",
"359 354 OFFCURVE",
"378 325 CURVE",
"390 310 OFFCURVE",
"399 293 OFFCURVE",
"405 276 CURVE SMOOTH",
"411 258 OFFCURVE",
"415 240 OFFCURVE",
"416 221 CURVE SMOOTH",
"417 202 OFFCURVE",
"415 184 OFFCURVE",
"412 165 CURVE",
"408 146 OFFCURVE",
"402 127 OFFCURVE",
"394 110 CURVE",
"386 89 OFFCURVE",
"375 72 OFFCURVE",
"362 57 CURVE SMOOTH",
"349 42 OFFCURVE",
"334 30 OFFCURVE",
"317 21 CURVE SMOOTH",
"300 12 OFFCURVE",
"281 5 OFFCURVE",
"262 1 CURVE",
"242 -4 OFFCURVE",
"222 -6 OFFCURVE",
"201 -5 CURVE SMOOTH",
"172 -4 OFFCURVE",
"143 1 OFFCURVE",
"114 11 CURVE SMOOTH",
"85 20 OFFCURVE",
"59 34 OFFCURVE",
"36 51 CURVE SMOOTH",
"13 68 OFFCURVE",
"-5 90 OFFCURVE",
"-18 115 CURVE SMOOTH",
"-31 140 OFFCURVE",
"-37 168 OFFCURVE",
"-35 200 CURVE",
"-35 203 LINE",
"-35 206 LINE",
"-12 207 OFFCURVE",
"14 210 OFFCURVE",
"42 209 CURVE",
"70 207 OFFCURVE",
"95 206 OFFCURVE",
"118 207 CURVE",
"119 186 OFFCURVE",
"128 170 OFFCURVE",
"144 159 CURVE SMOOTH",
"159 148 OFFCURVE",
"176 143 OFFCURVE",
"194 144 CURVE",
"211 144 OFFCURVE",
"227 150 OFFCURVE",
"240 161 CURVE SMOOTH",
"253 172 OFFCURVE",
"257 190 OFFCURVE",
"253 213 CURVE",
"251 229 OFFCURVE",
"245 242 OFFCURVE",
"235 252 CURVE",
"225 261 OFFCURVE",
"213 269 OFFCURVE",
"200 275 CURVE SMOOTH",
"186 281 OFFCURVE",
"171 286 OFFCURVE",
"155 289 CURVE SMOOTH",
"139 292 OFFCURVE",
"124 294 OFFCURVE",
"110 297 CURVE SMOOTH",
"97 300 OFFCURVE",
"84 304 OFFCURVE",
"73 310 CURVE SMOOTH",
"62 316 OFFCURVE",
"51 323 OFFCURVE",
"42 331 CURVE SMOOTH",
"11 360 OFFCURVE",
"-9 393 OFFCURVE",
"-18 428 CURVE SMOOTH",
"-27 463 OFFCURVE",
"-27 498 OFFCURVE",
"-19 531 CURVE SMOOTH",
"-11 564 OFFCURVE",
"4 595 OFFCURVE",
"27 622 CURVE SMOOTH",
"49 649 OFFCURVE",
"76 670 OFFCURVE",
"108 683 CURVE SMOOTH",
"124 690 OFFCURVE",
"142 694 OFFCURVE",
"161 697 CURVE",
"180 699 OFFCURVE",
"200 700 OFFCURVE",
"220 699 CURVE SMOOTH",
"239 698 OFFCURVE",
"259 695 OFFCURVE",
"278 690 CURVE SMOOTH",
"297 685 OFFCURVE",
"314 679 OFFCURVE",
"330 672 CURVE",
"362 655 OFFCURVE",
"387 631 OFFCURVE",
"404 598 CURVE SMOOTH",
"421 565 OFFCURVE",
"425 524 OFFCURVE",
"416 474 CURVE"
);
}
);
width = 485;
}
);
leftKerningGroup = S;
note = Scaron;
rightKerningGroup = S;
unicode = 0160;
},
{
glyphname = T;
layers = (
{
hints = (
{
horizontal = 1;
place = "{-1, 707}";
type = Stem;
},
{
place = "{9, 425}";
type = Stem;
}
);
layerId = "9B0E9E80-6738-4704-8EC6-A4FB4E6479F4";
paths = (
{
closed = 1;
nodes = (
"75 470 OFFCURVE",
"148 705 OFFCURVE",
"221 706 CURVE SMOOTH",
"293 706 OFFCURVE",
"363 702 OFFCURVE",
"432 695 CURVE",
"433 673 OFFCURVE",
"434 648 OFFCURVE",
"434 619 CURVE SMOOTH",
"433 590 OFFCURVE",
"431 564 OFFCURVE",
"428 540 CURVE",
"415 543 OFFCURVE",
"400 544 OFFCURVE",
"381 543 CURVE SMOOTH",
"362 542 OFFCURVE",
"337 541 OFFCURVE",
"306 540 CURVE SMOOTH",
"304 540 LINE",
"303 540 LINE",
"304 539 OFFCURVE",
"303 539 OFFCURVE",
"303 539 CURVE",
"302 538 OFFCURVE",
"302 538 OFFCURVE",
"302 537 CURVE",
"301 534 OFFCURVE",
"301 529 OFFCURVE",
"301 522 CURVE",
"300 515 OFFCURVE",
"300 504 OFFCURVE",
"300 489 CURVE SMOOTH",
"300 474 OFFCURVE",
"300 454 OFFCURVE",
"301 430 CURVE",
"301 405 OFFCURVE",
"301 374 OFFCURVE",
"302 336 CURVE SMOOTH",
"303 297 OFFCURVE",
"303 251 OFFCURVE",
"304 198 CURVE SMOOTH",
"305 144 OFFCURVE",
"306 81 OFFCURVE",
"307 8 CURVE SMOOTH",
"307 7 LINE",
"307 6 LINE",
"295 5 OFFCURVE",
"282 3 OFFCURVE",
"268 3 CURVE",
"253 2 OFFCURVE",
"239 2 OFFCURVE",
"225 2 CURVE SMOOTH",
"210 2 OFFCURVE",
"196 2 OFFCURVE",
"182 2 CURVE SMOOTH",
"168 2 OFFCURVE",
"155 1 OFFCURVE",
"143 -1 CURVE",
"142 2 OFFCURVE",
"142 14 OFFCURVE",
"143 35 CURVE SMOOTH",
"144 56 OFFCURVE",
"144 88 OFFCURVE",
"145 131 CURVE SMOOTH",
"145 173 OFFCURVE",
"145 227 OFFCURVE",
"144 293 CURVE SMOOTH",
"143 359 OFFCURVE",
"140 439 OFFCURVE",
"136 532 CURVE",
"135 533 LINE",
"127 537 OFFCURVE",
"117 540 OFFCURVE",
"105 541 CURVE SMOOTH",
"93 542 OFFCURVE",
"81 542 OFFCURVE",
"69 543 CURVE",
"57 543 OFFCURVE",
"46 543 OFFCURVE",
"36 543 CURVE SMOOTH",
"26 543 OFFCURVE",
"19 544 OFFCURVE",
"15 545 CURVE",
"14 548 OFFCURVE",
"13 554 OFFCURVE",
"12 565 CURVE SMOOTH",
"11 576 OFFCURVE",
"10 589 OFFCURVE",
"10 604 CURVE",
"9 619 OFFCURVE",
"9 635 OFFCURVE",
"9 652 CURVE SMOOTH",
"9 669 OFFCURVE",
"10 686 OFFCURVE",
"11 702 CURVE",
"11 703 OFFCURVE",
"11 703 OFFCURVE",
"11 703 CURVE SMOOTH",
"10 703 OFFCURVE",
"10 703 OFFCURVE",
"10 704 CURVE"
);
}
);
width = 443;
}
);
leftKerningGroup = T;
note = T;
rightKerningGroup = T;
unicode = 0054;
},
{
glyphname = U;
layers = (
{
hints = (
{
horizontal = 1;
place = "{-15.5, 697.5}";
type = Stem;
},
{
place = "{178.62, 141.38}";
type = Stem;
}
);
layerId = "9B0E9E80-6738-4704-8EC6-A4FB4E6479F4";
paths = (
{
closed = 1;
nodes = (
"224 449 OFFCURVE",
"343 674 OFFCURVE",
"357 676 CURVE",
"370 677 OFFCURVE",
"384 678 OFFCURVE",
"398 679 CURVE SMOOTH",
"412 680 OFFCURVE",
"425 679 OFFCURVE",
"438 678 CURVE SMOOTH",
"451 677 OFFCURVE",
"461 674 OFFCURVE",
"469 669 CURVE",
"473 584 OFFCURVE",
"474 498 OFFCURVE",
"473 411 CURVE SMOOTH",
"472 324 OFFCURVE",
"466 237 OFFCURVE",
"457 151 CURVE SMOOTH",
"452 107 OFFCURVE",
"435 70 OFFCURVE",
"407 39 CURVE SMOOTH",
"379 8 OFFCURVE",
"341 -9 OFFCURVE",
"293 -14 CURVE SMOOTH",
"265 -17 OFFCURVE",
"236 -16 OFFCURVE",
"206 -11 CURVE SMOOTH",
"176 -6 OFFCURVE",
"149 4 OFFCURVE",
"125 17 CURVE SMOOTH",
"100 30 OFFCURVE",
"80 47 OFFCURVE",
"64 69 CURVE",
"47 90 OFFCURVE",
"38 116 OFFCURVE",
"37 147 CURVE",
"37 235 OFFCURVE",
"38 324 OFFCURVE",
"40 413 CURVE SMOOTH",
"42 502 OFFCURVE",
"42 591 OFFCURVE",
"41 679 CURVE",
"40 680 LINE",
"41 680 LINE SMOOTH",
"51 680 OFFCURVE",
"62 680 OFFCURVE",
"75 681 CURVE SMOOTH",
"87 682 OFFCURVE",
"99 682 OFFCURVE",
"112 682 CURVE SMOOTH",
"125 682 OFFCURVE",
"137 682 OFFCURVE",
"149 681 CURVE SMOOTH",
"161 680 OFFCURVE",
"172 678 OFFCURVE",
"182 675 CURVE",
"182 674 LINE",
"175 513 OFFCURVE",
"178 349 OFFCURVE",
"191 183 CURVE",
"196 167 OFFCURVE",
"204 155 OFFCURVE",
"217 148 CURVE SMOOTH",
"229 141 OFFCURVE",
"242 137 OFFCURVE",
"255 138 CURVE SMOOTH",
"268 139 OFFCURVE",
"281 143 OFFCURVE",
"292 152 CURVE SMOOTH",
"303 161 OFFCURVE",
"311 173 OFFCURVE",
"314 188 CURVE",
"317 268 OFFCURVE",
"319 349 OFFCURVE",
"320 432 CURVE SMOOTH",
"320 515 OFFCURVE",
"321 595 OFFCURVE",
"323 672 CURVE"
);
}
);
width = 505;
}
);
leftKerningGroup = U;
note = U;
rightKerningGroup = U;
unicode = 0055;
},
{
glyphname = Uacute;
layers = (
{
hints = (
{
horizontal = 1;
place = "{681, 70}";
type = Stem;
},
{
place = "{178.62, 141.38}";
type = Stem;
}
);
layerId = "9B0E9E80-6738-4704-8EC6-A4FB4E6479F4";
paths = (
{
closed = 1;
nodes = (
"469 669 LINE",
"317 361 OFFCURVE",
"474 498 OFFCURVE",
"473 411 CURVE SMOOTH",
"472 324 OFFCURVE",
"466 237 OFFCURVE",
"457 151 CURVE SMOOTH",
"452 107 OFFCURVE",
"435 70 OFFCURVE",
"407 39 CURVE SMOOTH",
"379 8 OFFCURVE",
"341 -9 OFFCURVE",
"293 -14 CURVE SMOOTH",
"265 -17 OFFCURVE",
"236 -16 OFFCURVE",
"206 -11 CURVE SMOOTH",
"176 -6 OFFCURVE",
"149 4 OFFCURVE",
"125 17 CURVE SMOOTH",
"100 30 OFFCURVE",
"80 47 OFFCURVE",
"64 69 CURVE",
"47 90 OFFCURVE",
"38 116 OFFCURVE",
"37 147 CURVE",
"37 235 OFFCURVE",
"38 324 OFFCURVE",
"40 413 CURVE SMOOTH",
"42 502 OFFCURVE",
"42 591 OFFCURVE",
"41 679 CURVE",
"40 680 LINE",
"41 680 LINE SMOOTH",
"51 680 OFFCURVE",
"62 680 OFFCURVE",
"75 681 CURVE SMOOTH",
"87 682 OFFCURVE",
"99 682 OFFCURVE",
"112 682 CURVE SMOOTH",
"125 682 OFFCURVE",
"137 682 OFFCURVE",
"149 681 CURVE SMOOTH",
"161 680 OFFCURVE",
"172 678 OFFCURVE",
"182 675 CURVE",
"182 674 LINE",
"175 513 OFFCURVE",
"178 349 OFFCURVE",
"191 183 CURVE",
"196 167 OFFCURVE",
"204 155 OFFCURVE",
"217 148 CURVE SMOOTH",
"229 141 OFFCURVE",
"242 137 OFFCURVE",
"255 138 CURVE SMOOTH",
"268 139 OFFCURVE",
"281 143 OFFCURVE",
"292 152 CURVE SMOOTH",
"303 161 OFFCURVE",
"311 173 OFFCURVE",
"314 188 CURVE",
"317 268 OFFCURVE",
"319 349 OFFCURVE",
"320 432 CURVE SMOOTH",
"320 515 OFFCURVE",
"321 595 OFFCURVE",
"323 672 CURVE",
"332 673 OFFCURVE",
"343 674 OFFCURVE",
"356 675 CURVE SMOOTH",
"369 676 OFFCURVE",
"383 678 OFFCURVE",
"397 679 CURVE SMOOTH",
"411 680 OFFCURVE",
"425 680 OFFCURVE",
"438 679 CURVE SMOOTH",
"451 678 OFFCURVE",
"461 675 OFFCURVE",
"469 670 CURVE"
);
},
{
closed = 1;
nodes = (
"419 847 LINE",
"418 846 LINE",
"430 783 OFFCURVE",
"406 835 OFFCURVE",
"396 826 CURVE SMOOTH",
"386 817 OFFCURVE",
"376 808 OFFCURVE",
"365 799 CURVE",
"354 789 OFFCURVE",
"344 780 OFFCURVE",
"335 771 CURVE SMOOTH",
"326 762 OFFCURVE",
"320 755 OFFCURVE",
"317 750 CURVE",
"306 749 OFFCURVE",
"294 748 OFFCURVE",
"281 748 CURVE",
"267 747 OFFCURVE",
"254 747 OFFCURVE",
"241 748 CURVE SMOOTH",
"228 749 OFFCURVE",
"216 750 OFFCURVE",
"206 751 CURVE SMOOTH",
"195 752 OFFCURVE",
"188 753 OFFCURVE",
"183 754 CURVE",
"194 765 OFFCURVE",
"207 778 OFFCURVE",
"222 793 CURVE SMOOTH",
"236 808 OFFCURVE",
"251 823 OFFCURVE",
"266 839 CURVE SMOOTH",
"281 854 OFFCURVE",
"295 869 OFFCURVE",
"310 883 CURVE",
"325 896 OFFCURVE",
"338 908 OFFCURVE",
"350 917 CURVE"
);
}
);
width = 505;
}
);
leftKerningGroup = U;
note = Uacute;
rightKerningGroup = U;
unicode = 00DA;
},
{
glyphname = Ucircumflex;
layers = (
{
hints = (
{
horizontal = 1;
place = "{681, 74}";
type = Stem;
},
{
place = "{178.62, 141.38}";
type = Stem;
},
{
horizontal = 1;
place = "{645, 104}";
type = Stem;
}
);
layerId = "9B0E9E80-6738-4704-8EC6-A4FB4E6479F4";
paths = (
{
closed = 1;
nodes = (
"411 756 LINE",
"273 505 OFFCURVE",
"407 757 OFFCURVE",
"401 756 CURVE SMOOTH",
"395 755 OFFCURVE",
"387 753 OFFCURVE",
"377 752 CURVE SMOOTH",
"366 751 OFFCURVE",
"354 750 OFFCURVE",
"341 749 CURVE SMOOTH",
"327 748 OFFCURVE",
"312 749 OFFCURVE",
"296 751 CURVE",
"294 751 OFFCURVE",
"291 753 OFFCURVE",
"286 758 CURVE",
"281 762 OFFCURVE",
"277 767 OFFCURVE",
"272 773 CURVE",
"267 778 OFFCURVE",
"262 784 OFFCURVE",
"257 789 CURVE SMOOTH",
"252 794 OFFCURVE",
"248 798 OFFCURVE",
"245 800 CURVE",
"242 799 OFFCURVE",
"239 796 OFFCURVE",
"234 791 CURVE SMOOTH",
"229 786 OFFCURVE",
"224 780 OFFCURVE",
"219 775 CURVE",
"214 769 OFFCURVE",
"209 764 OFFCURVE",
"204 759 CURVE SMOOTH",
"199 754 OFFCURVE",
"196 752 OFFCURVE",
"193 751 CURVE",
"187 750 OFFCURVE",
"182 750 OFFCURVE",
"179 750 CURVE SMOOTH",
"175 750 OFFCURVE",
"170 750 OFFCURVE",
"164 751 CURVE",
"157 751 OFFCURVE",
"148 751 OFFCURVE",
"137 752 CURVE SMOOTH",
"125 753 OFFCURVE",
"108 754 OFFCURVE",
"86 755 CURVE",
"109 786 OFFCURVE",
"134 814 OFFCURVE",
"162 839 CURVE SMOOTH",
"190 864 OFFCURVE",
"219 891 OFFCURVE",
"248 918 CURVE"
);
},
{
closed = 1;
nodes = (
"469 669 LINE",
"399 667 OFFCURVE",
"474 498 OFFCURVE",
"473 411 CURVE SMOOTH",
"472 324 OFFCURVE",
"466 237 OFFCURVE",
"457 151 CURVE SMOOTH",
"452 107 OFFCURVE",
"435 70 OFFCURVE",
"407 39 CURVE SMOOTH",
"379 8 OFFCURVE",
"341 -9 OFFCURVE",
"293 -14 CURVE SMOOTH",
"265 -17 OFFCURVE",
"236 -16 OFFCURVE",
"206 -11 CURVE SMOOTH",
"176 -6 OFFCURVE",
"149 4 OFFCURVE",
"125 17 CURVE SMOOTH",
"100 30 OFFCURVE",
"80 47 OFFCURVE",
"64 69 CURVE",
"47 90 OFFCURVE",
"38 116 OFFCURVE",
"37 147 CURVE",
"37 235 OFFCURVE",
"38 324 OFFCURVE",
"40 413 CURVE SMOOTH",
"42 502 OFFCURVE",
"42 591 OFFCURVE",
"41 679 CURVE",
"40 680 LINE",
"41 680 LINE SMOOTH",
"51 680 OFFCURVE",
"62 680 OFFCURVE",
"75 681 CURVE SMOOTH",
"87 682 OFFCURVE",
"99 682 OFFCURVE",
"112 682 CURVE SMOOTH",
"125 682 OFFCURVE",
"137 682 OFFCURVE",
"149 681 CURVE SMOOTH",
"161 680 OFFCURVE",
"172 678 OFFCURVE",
"182 675 CURVE",
"182 674 LINE",
"175 513 OFFCURVE",
"178 349 OFFCURVE",
"191 183 CURVE",
"196 167 OFFCURVE",
"204 155 OFFCURVE",
"217 148 CURVE SMOOTH",
"229 141 OFFCURVE",
"242 137 OFFCURVE",
"255 138 CURVE SMOOTH",
"268 139 OFFCURVE",
"281 143 OFFCURVE",
"292 152 CURVE SMOOTH",
"303 161 OFFCURVE",
"311 173 OFFCURVE",
"314 188 CURVE",
"317 268 OFFCURVE",
"319 349 OFFCURVE",
"320 432 CURVE SMOOTH",
"320 515 OFFCURVE",
"321 595 OFFCURVE",
"323 672 CURVE",
"332 673 OFFCURVE",
"343 674 OFFCURVE",
"356 675 CURVE SMOOTH",
"369 676 OFFCURVE",
"383 678 OFFCURVE",
"397 679 CURVE SMOOTH",
"411 680 OFFCURVE",
"425 680 OFFCURVE",
"438 679 CURVE SMOOTH",
"451 678 OFFCURVE",
"461 675 OFFCURVE",
"469 670 CURVE"
);
}
);
width = 505;
}
);
leftKerningGroup = U;
note = Ucircumflex;
rightKerningGroup = U;
unicode = 00DB;
},
{
glyphname = Udieresis;
layers = (
{
hints = (
{
horizontal = 1;
place = "{681, 78}";
type = Stem;
},
{
place = "{178.62, 141.38}";
type = Stem;
},
{
place = "{214, 60.37}";
type = Stem;
},
{
horizontal = 1;
place = "{672, 87}";
type = Stem;
}
);
layerId = "9B0E9E80-6738-4704-8EC6-A4FB4E6479F4";
paths = (
{
closed = 1;
nodes = (
"212 758 LINE",
"115 759 LINE",
"112 759 LINE",
"73 513 OFFCURVE",
"110 774 OFFCURVE",
"110 784 CURVE",
"109 793 OFFCURVE",
"109 803 OFFCURVE",
"110 813 CURVE",
"110 823 OFFCURVE",
"110 832 OFFCURVE",
"111 841 CURVE",
"111 850 OFFCURVE",
"111 856 OFFCURVE",
"111 860 CURVE",
"117 862 OFFCURVE",
"125 864 OFFCURVE",
"136 865 CURVE SMOOTH",
"146 866 OFFCURVE",
"157 867 OFFCURVE",
"168 867 CURVE SMOOTH",
"179 867 OFFCURVE",
"189 867 OFFCURVE",
"199 866 CURVE SMOOTH",
"208 865 OFFCURVE",
"215 863 OFFCURVE",
"220 861 CURVE",
"220 860 OFFCURVE",
"220 856 OFFCURVE",
"219 847 CURVE SMOOTH",
"218 838 OFFCURVE",
"218 828 OFFCURVE",
"217 817 CURVE SMOOTH",
"216 805 OFFCURVE",
"216 794 OFFCURVE",
"215 783 CURVE SMOOTH",
"214 772 OFFCURVE",
"214 765 OFFCURVE",
"214 760 CURVE SMOOTH",
"214 759 LINE",
"214 758 LINE"
);
},
{
closed = 1;
nodes = (
"386 758 LINE",
"289 759 LINE",
"286 759 LINE",
"261 766 OFFCURVE",
"284 774 OFFCURVE",
"284 784 CURVE",
"283 793 OFFCURVE",
"283 803 OFFCURVE",
"284 813 CURVE",
"284 823 OFFCURVE",
"284 832 OFFCURVE",
"285 841 CURVE",
"285 850 OFFCURVE",
"285 856 OFFCURVE",
"285 860 CURVE",
"291 862 OFFCURVE",
"299 864 OFFCURVE",
"310 865 CURVE SMOOTH",
"320 866 OFFCURVE",
"331 867 OFFCURVE",
"342 867 CURVE SMOOTH",
"353 867 OFFCURVE",
"363 867 OFFCURVE",
"373 866 CURVE SMOOTH",
"382 865 OFFCURVE",
"389 863 OFFCURVE",
"394 861 CURVE",
"394 860 OFFCURVE",
"394 856 OFFCURVE",
"393 847 CURVE SMOOTH",
"392 838 OFFCURVE",
"392 828 OFFCURVE",
"391 817 CURVE SMOOTH",
"390 805 OFFCURVE",
"390 794 OFFCURVE",
"389 783 CURVE SMOOTH",
"388 772 OFFCURVE",
"388 765 OFFCURVE",
"388 760 CURVE SMOOTH",
"388 759 LINE",
"388 758 LINE"
);
},
{
closed = 1;
nodes = (
"469 669 LINE",
"446 614 OFFCURVE",
"474 498 OFFCURVE",
"473 411 CURVE SMOOTH",
"472 324 OFFCURVE",
"466 237 OFFCURVE",
"457 151 CURVE SMOOTH",
"452 107 OFFCURVE",
"435 70 OFFCURVE",
"407 39 CURVE SMOOTH",
"379 8 OFFCURVE",
"341 -9 OFFCURVE",
"293 -14 CURVE SMOOTH",
"265 -17 OFFCURVE",
"236 -16 OFFCURVE",
"206 -11 CURVE SMOOTH",
"176 -6 OFFCURVE",
"149 4 OFFCURVE",
"125 17 CURVE SMOOTH",
"100 30 OFFCURVE",
"80 47 OFFCURVE",
"64 69 CURVE",
"47 90 OFFCURVE",
"38 116 OFFCURVE",
"37 147 CURVE",
"37 235 OFFCURVE",
"38 324 OFFCURVE",
"40 413 CURVE SMOOTH",
"42 502 OFFCURVE",
"42 591 OFFCURVE",
"41 679 CURVE",
"40 680 LINE",
"41 680 LINE SMOOTH",
"51 680 OFFCURVE",
"62 680 OFFCURVE",
"75 681 CURVE SMOOTH",
"87 682 OFFCURVE",
"99 682 OFFCURVE",
"112 682 CURVE SMOOTH",
"125 682 OFFCURVE",
"137 682 OFFCURVE",
"149 681 CURVE SMOOTH",
"161 680 OFFCURVE",
"172 678 OFFCURVE",
"182 675 CURVE",
"182 674 LINE",
"175 513 OFFCURVE",
"178 349 OFFCURVE",
"191 183 CURVE",
"196 167 OFFCURVE",
"204 155 OFFCURVE",
"217 148 CURVE SMOOTH",
"229 141 OFFCURVE",
"242 137 OFFCURVE",
"255 138 CURVE SMOOTH",
"268 139 OFFCURVE",
"281 143 OFFCURVE",
"292 152 CURVE SMOOTH",
"303 161 OFFCURVE",
"311 173 OFFCURVE",
"314 188 CURVE",
"317 268 OFFCURVE",
"319 349 OFFCURVE",
"320 432 CURVE SMOOTH",
"320 515 OFFCURVE",
"321 595 OFFCURVE",
"323 672 CURVE",
"332 673 OFFCURVE",
"343 674 OFFCURVE",
"356 675 CURVE SMOOTH",
"369 676 OFFCURVE",
"383 678 OFFCURVE",
"397 679 CURVE SMOOTH",
"411 680 OFFCURVE",
"425 680 OFFCURVE",
"438 679 CURVE SMOOTH",
"451 678 OFFCURVE",
"461 675 OFFCURVE",
"469 670 CURVE"
);
}
);
width = 505;
}
);
leftKerningGroup = U;
note = Udieresis;
rightKerningGroup = U;
unicode = 00DC;
},
{
glyphname = Ugrave;
layers = (
{
hints = (
{
horizontal = 1;
place = "{-15.5, 932.5}";
type = Stem;
},
{
place = "{149.99, 14.01}";
type = Stem;
},
{
place = "{178.62, 141.38}";
type = Stem;
}
);
layerId = "9B0E9E80-6738-4704-8EC6-A4FB4E6479F4";
paths = (
{
closed = 1;
nodes = (
"95 847 LINE",
"164 917 LINE",
"121 602 OFFCURVE",
"189 896 OFFCURVE",
"204 883 CURVE",
"219 869 OFFCURVE",
"234 854 OFFCURVE",
"249 839 CURVE SMOOTH",
"264 823 OFFCURVE",
"278 808 OFFCURVE",
"293 793 CURVE SMOOTH",
"307 778 OFFCURVE",
"320 765 OFFCURVE",
"331 754 CURVE",
"326 753 OFFCURVE",
"319 752 OFFCURVE",
"308 751 CURVE SMOOTH",
"297 750 OFFCURVE",
"286 749 OFFCURVE",
"273 748 CURVE SMOOTH",
"260 747 OFFCURVE",
"246 747 OFFCURVE",
"233 748 CURVE",
"220 748 OFFCURVE",
"208 749 OFFCURVE",
"197 750 CURVE",
"194 755 OFFCURVE",
"188 762 OFFCURVE",
"179 771 CURVE SMOOTH",
"170 780 OFFCURVE",
"160 789 OFFCURVE",
"149 799 CURVE",
"138 808 OFFCURVE",
"128 817 OFFCURVE",
"118 826 CURVE SMOOTH",
"108 835 OFFCURVE",
"101 841 OFFCURVE",
"96 846 CURVE SMOOTH"
);
},
{
closed = 1;
nodes = (
"469 669 LINE",
"349 643 OFFCURVE",
"474 498 OFFCURVE",
"473 411 CURVE SMOOTH",
"472 324 OFFCURVE",
"466 237 OFFCURVE",
"457 151 CURVE SMOOTH",
"452 107 OFFCURVE",
"435 70 OFFCURVE",
"407 39 CURVE SMOOTH",
"379 8 OFFCURVE",
"341 -9 OFFCURVE",
"293 -14 CURVE SMOOTH",
"265 -17 OFFCURVE",
"236 -16 OFFCURVE",
"206 -11 CURVE SMOOTH",
"176 -6 OFFCURVE",
"149 4 OFFCURVE",
"125 17 CURVE SMOOTH",
"100 30 OFFCURVE",
"80 47 OFFCURVE",
"64 69 CURVE",
"47 90 OFFCURVE",
"38 116 OFFCURVE",
"37 147 CURVE",
"37 235 OFFCURVE",
"38 324 OFFCURVE",
"40 413 CURVE SMOOTH",
"42 502 OFFCURVE",
"42 591 OFFCURVE",
"41 679 CURVE",
"40 680 LINE",
"41 680 LINE SMOOTH",
"51 680 OFFCURVE",
"62 680 OFFCURVE",
"75 681 CURVE SMOOTH",
"87 682 OFFCURVE",
"99 682 OFFCURVE",
"112 682 CURVE SMOOTH",
"125 682 OFFCURVE",
"137 682 OFFCURVE",
"149 681 CURVE SMOOTH",
"161 680 OFFCURVE",
"172 678 OFFCURVE",
"182 675 CURVE",
"182 674 LINE",
"175 513 OFFCURVE",
"178 349 OFFCURVE",
"191 183 CURVE",
"196 167 OFFCURVE",
"204 155 OFFCURVE",
"217 148 CURVE SMOOTH",
"229 141 OFFCURVE",
"242 137 OFFCURVE",
"255 138 CURVE SMOOTH",
"268 139 OFFCURVE",
"281 143 OFFCURVE",
"292 152 CURVE SMOOTH",
"303 161 OFFCURVE",
"311 173 OFFCURVE",
"314 188 CURVE",
"317 268 OFFCURVE",
"319 349 OFFCURVE",
"320 432 CURVE SMOOTH",
"320 515 OFFCURVE",
"321 595 OFFCURVE",
"323 672 CURVE",
"332 673 OFFCURVE",
"343 674 OFFCURVE",
"356 675 CURVE SMOOTH",
"369 676 OFFCURVE",
"383 678 OFFCURVE",
"397 679 CURVE SMOOTH",
"411 680 OFFCURVE",
"425 680 OFFCURVE",
"438 679 CURVE SMOOTH",
"451 678 OFFCURVE",
"461 675 OFFCURVE",
"469 670 CURVE"
);
}
);
width = 505;
}
);
leftKerningGroup = U;
note = Ugrave;
rightKerningGroup = U;
unicode = 00D9;
},
{
glyphname = V;
layers = (
{
hints = (
{
horizontal = 1;
place = "{-3, 699}";
type = Stem;
},
{
place = "{163, 104.23}";
type = Stem;
}
);
layerId = "9B0E9E80-6738-4704-8EC6-A4FB4E6479F4";
paths = (
{
closed = 1;
nodes = (
"212 459 OFFCURVE",
"324 689 OFFCURVE",
"336 689 CURVE",
"348 688 OFFCURVE",
"360 688 OFFCURVE",
"373 688 CURVE SMOOTH",
"385 688 OFFCURVE",
"397 688 OFFCURVE",
"410 688 CURVE",
"422 687 OFFCURVE",
"434 686 OFFCURVE",
"445 684 CURVE",
"434 625 OFFCURVE",
"422 567 OFFCURVE",
"409 510 CURVE SMOOTH",
"396 453 OFFCURVE",
"382 397 OFFCURVE",
"368 341 CURVE SMOOTH",
"354 285 OFFCURVE",
"340 229 OFFCURVE",
"325 173 CURVE SMOOTH",
"310 116 OFFCURVE",
"295 59 OFFCURVE",
"279 1 CURVE",
"274 1 OFFCURVE",
"265 0 OFFCURVE",
"254 -1 CURVE SMOOTH",
"243 -2 OFFCURVE",
"230 -3 OFFCURVE",
"216 -3 CURVE SMOOTH",
"201 -3 OFFCURVE",
"187 -3 OFFCURVE",
"172 -2 CURVE SMOOTH",
"157 -1 OFFCURVE",
"144 2 OFFCURVE",
"133 5 CURVE",
"103 113 OFFCURVE",
"78 224 OFFCURVE",
"59 338 CURVE SMOOTH",
"40 451 OFFCURVE",
"25 566 OFFCURVE",
"16 681 CURVE",
"16 682 LINE",
"20 686 OFFCURVE",
"29 690 OFFCURVE",
"42 692 CURVE SMOOTH",
"55 694 OFFCURVE",
"70 695 OFFCURVE",
"85 696 CURVE",
"100 696 OFFCURVE",
"115 696 OFFCURVE",
"129 695 CURVE SMOOTH",
"143 694 OFFCURVE",
"153 693 OFFCURVE",
"158 692 CURVE",
"161 679 OFFCURVE",
"162 657 OFFCURVE",
"163 627 CURVE SMOOTH",
"164 597 OFFCURVE",
"165 561 OFFCURVE",
"168 519 CURVE SMOOTH",
"171 477 OFFCURVE",
"175 431 OFFCURVE",
"182 380 CURVE SMOOTH",
"188 329 OFFCURVE",
"198 277 OFFCURVE",
"211 223 CURVE",
"224 277 OFFCURVE",
"234 327 OFFCURVE",
"242 372 CURVE SMOOTH",
"250 417 OFFCURVE",
"257 458 OFFCURVE",
"263 496 CURVE SMOOTH",
"269 534 OFFCURVE",
"275 569 OFFCURVE",
"280 601 CURVE SMOOTH",
"285 633 OFFCURVE",
"292 663 OFFCURVE",
"299 691 CURVE",
"299 692 OFFCURVE",
"300 693 OFFCURVE",
"301 693 CURVE"
);
}
);
width = 440;
}
);
leftKerningGroup = V;
note = V;
rightKerningGroup = V;
unicode = 0056;
},
{
glyphname = W;
layers = (
{
hints = (
{
horizontal = 1;
place = "{2, 699}";
type = Stem;
},
{
place = "{170, 129}";
type = Stem;
}
);
layerId = "9B0E9E80-6738-4704-8EC6-A4FB4E6479F4";
paths = (
{
closed = 1;
nodes = (
"446 696 LINE",
"287 349 OFFCURVE",
"425 466 OFFCURVE",
"413 351 CURVE SMOOTH",
"400 236 OFFCURVE",
"389 121 OFFCURVE",
"380 5 CURVE",
"375 4 OFFCURVE",
"370 3 OFFCURVE",
"365 3 CURVE SMOOTH",
"359 3 OFFCURVE",
"353 3 OFFCURVE",
"346 3 CURVE SMOOTH",
"310 3 LINE",
"298 3 LINE",
"308 11 OFFCURVE",
"287 23 OFFCURVE",
"283 38 CURVE",
"278 53 OFFCURVE",
"274 69 OFFCURVE",
"269 86 CURVE SMOOTH",
"264 103 OFFCURVE",
"260 119 OFFCURVE",
"255 135 CURVE SMOOTH",
"250 151 OFFCURVE",
"245 164 OFFCURVE",
"239 173 CURVE",
"238 173 LINE",
"232 167 OFFCURVE",
"227 157 OFFCURVE",
"223 142 CURVE",
"218 127 OFFCURVE",
"214 111 OFFCURVE",
"210 94 CURVE SMOOTH",
"206 77 OFFCURVE",
"202 60 OFFCURVE",
"198 44 CURVE SMOOTH",
"194 28 OFFCURVE",
"189 16 OFFCURVE",
"184 7 CURVE",
"175 6 OFFCURVE",
"167 5 OFFCURVE",
"160 4 CURVE SMOOTH",
"153 3 OFFCURVE",
"144 2 OFFCURVE",
"135 2 CURVE SMOOTH",
"124 2 OFFCURVE",
"112 3 OFFCURVE",
"97 5 CURVE",
"96 5 LINE",
"80 119 OFFCURVE",
"64 234 OFFCURVE",
"49 349 CURVE SMOOTH",
"34 464 OFFCURVE",
"25 580 OFFCURVE",
"23 695 CURVE",
"23 696 LINE",
"33 697 OFFCURVE",
"44 699 OFFCURVE",
"55 700 CURVE SMOOTH",
"66 701 OFFCURVE",
"77 701 OFFCURVE",
"88 701 CURVE SMOOTH",
"101 701 OFFCURVE",
"115 701 OFFCURVE",
"128 700 CURVE SMOOTH",
"141 699 OFFCURVE",
"154 699 OFFCURVE",
"166 698 CURVE",
"169 669 OFFCURVE",
"170 636 OFFCURVE",
"170 599 CURVE SMOOTH",
"170 562 OFFCURVE",
"170 525 OFFCURVE",
"170 488 CURVE SMOOTH",
"170 451 OFFCURVE",
"171 414 OFFCURVE",
"173 378 CURVE SMOOTH",
"175 342 OFFCURVE",
"180 310 OFFCURVE",
"187 281 CURVE",
"196 311 OFFCURVE",
"204 341 OFFCURVE",
"211 370 CURVE SMOOTH",
"218 399 OFFCURVE",
"225 428 OFFCURVE",
"232 458 CURVE",
"233 459 OFFCURVE",
"233 460 OFFCURVE",
"233 461 CURVE SMOOTH",
"233 462 OFFCURVE",
"233 462 OFFCURVE",
"234 463 CURVE",
"237 461 OFFCURVE",
"241 452 OFFCURVE",
"246 435 CURVE SMOOTH",
"251 418 OFFCURVE",
"256 398 OFFCURVE",
"261 377 CURVE SMOOTH",
"266 356 OFFCURVE",
"271 335 OFFCURVE",
"276 314 CURVE SMOOTH",
"281 293 OFFCURVE",
"285 278 OFFCURVE",
"289 268 CURVE",
"292 297 OFFCURVE",
"294 330 OFFCURVE",
"295 367 CURVE SMOOTH",
"296 404 OFFCURVE",
"298 441 OFFCURVE",
"299 480 CURVE SMOOTH",
"300 519 OFFCURVE",
"301 557 OFFCURVE",
"302 594 CURVE SMOOTH",
"303 631 OFFCURVE",
"304 664 OFFCURVE",
"307 693 CURVE",
"307 694 LINE",
"318 696 OFFCURVE",
"330 698 OFFCURVE",
"342 699 CURVE SMOOTH",
"354 700 OFFCURVE",
"366 700 OFFCURVE",
"378 700 CURVE SMOOTH",
"401 700 OFFCURVE",
"423 699 OFFCURVE",
"445 697 CURVE"
);
}
);
width = 465;
}
);
leftKerningGroup = W;
note = W;
rightKerningGroup = W;
unicode = 0057;
},
{
glyphname = X;
layers = (
{
hints = (
{
horizontal = 1;
place = "{596.1, 102.9}";
type = Stem;
},
{
place = "{-1, 441}";
type = Stem;
}
);
layerId = "9B0E9E80-6738-4704-8EC6-A4FB4E6479F4";
paths = (
{
closed = 1;
nodes = (
"293 466 OFFCURVE",
"440 699 OFFCURVE",
"440 699 CURVE SMOOTH",
"439 699 OFFCURVE",
"439 699 OFFCURVE",
"439 698 CURVE",
"430 669 OFFCURVE",
"420 640 OFFCURVE",
"409 611 CURVE SMOOTH",
"398 582 OFFCURVE",
"388 552 OFFCURVE",
"378 523 CURVE SMOOTH",
"368 493 OFFCURVE",
"359 463 OFFCURVE",
"351 433 CURVE SMOOTH",
"342 402 OFFCURVE",
"336 372 OFFCURVE",
"331 341 CURVE",
"336 313 OFFCURVE",
"342 285 OFFCURVE",
"350 256 CURVE SMOOTH",
"358 227 OFFCURVE",
"366 199 OFFCURVE",
"375 171 CURVE SMOOTH",
"384 142 OFFCURVE",
"392 114 OFFCURVE",
"401 86 CURVE SMOOTH",
"410 57 OFFCURVE",
"417 29 OFFCURVE",
"424 2 CURVE",
"419 3 OFFCURVE",
"415 3 OFFCURVE",
"411 3 CURVE SMOOTH",
"407 3 OFFCURVE",
"403 3 OFFCURVE",
"398 3 CURVE SMOOTH",
"387 3 OFFCURVE",
"377 3 OFFCURVE",
"367 2 CURVE SMOOTH",
"356 1 OFFCURVE",
"345 1 OFFCURVE",
"334 1 CURVE SMOOTH",
"317 1 OFFCURVE",
"303 2 OFFCURVE",
"290 5 CURVE",
"289 6 LINE",
"282 22 OFFCURVE",
"275 40 OFFCURVE",
"270 59 CURVE SMOOTH",
"265 78 OFFCURVE",
"260 98 OFFCURVE",
"255 118 CURVE SMOOTH",
"250 138 OFFCURVE",
"246 158 OFFCURVE",
"241 177 CURVE SMOOTH",
"236 196 OFFCURVE",
"229 214 OFFCURVE",
"221 230 CURVE",
"220 231 LINE",
"212 211 OFFCURVE",
"204 192 OFFCURVE",
"199 173 CURVE SMOOTH",
"193 153 OFFCURVE",
"187 133 OFFCURVE",
"182 114 CURVE SMOOTH",
"177 94 OFFCURVE",
"171 75 OFFCURVE",
"166 56 CURVE",
"160 37 OFFCURVE",
"153 19 OFFCURVE",
"145 2 CURVE",
"138 1 OFFCURVE",
"130 1 OFFCURVE",
"122 1 CURVE",
"114 0 OFFCURVE",
"106 0 OFFCURVE",
"98 0 CURVE SMOOTH",
"83 0 OFFCURVE",
"67 0 OFFCURVE",
"52 1 CURVE SMOOTH",
"36 2 OFFCURVE",
"22 4 OFFCURVE",
"9 9 CURVE",
"16 34 OFFCURVE",
"24 60 OFFCURVE",
"33 88 CURVE SMOOTH",
"42 116 OFFCURVE",
"52 145 OFFCURVE",
"62 174 CURVE SMOOTH",
"71 203 OFFCURVE",
"81 232 OFFCURVE",
"90 261 CURVE SMOOTH",
"99 290 OFFCURVE",
"107 319 OFFCURVE",
"113 347 CURVE",
"102 406 OFFCURVE",
"85 463 OFFCURVE",
"64 520 CURVE SMOOTH",
"43 576 OFFCURVE",
"21 632 OFFCURVE",
"-1 689 CURVE",
"20 690 OFFCURVE",
"39 691 OFFCURVE",
"56 692 CURVE SMOOTH",
"73 693 OFFCURVE",
"87 693 OFFCURVE",
"99 693 CURVE SMOOTH",
"117 693 OFFCURVE",
"130 693 OFFCURVE",
"137 693 CURVE SMOOTH",
"144 693 OFFCURVE",
"149 691 OFFCURVE",
"151 688 CURVE",
"155 674 OFFCURVE",
"160 657 OFFCURVE",
"166 637 CURVE SMOOTH",
"172 617 OFFCURVE",
"178 597 OFFCURVE",
"184 576 CURVE SMOOTH",
"190 555 OFFCURVE",
"196 535 OFFCURVE",
"202 516 CURVE",
"207 496 OFFCURVE",
"212 480 OFFCURVE",
"217 467 CURVE",
"223 480 OFFCURVE",
"229 497 OFFCURVE",
"236 517 CURVE",
"242 537 OFFCURVE",
"248 558 OFFCURVE",
"254 579 CURVE SMOOTH",
"260 600 OFFCURVE",
"266 621 OFFCURVE",
"271 642 CURVE SMOOTH",
"276 663 OFFCURVE",
"281 680 OFFCURVE",
"286 695 CURVE",
"286 696 LINE",
"303 697 OFFCURVE",
"324 698 OFFCURVE",
"347 699 CURVE SMOOTH",
"370 700 OFFCURVE",
"401 700 OFFCURVE",
"439 700 CURVE SMOOTH",
"440 700 LINE"
);
}
);
width = 436;
}
);
leftKerningGroup = X;
note = X;
rightKerningGroup = X;
unicode = 0058;
},
{
glyphname = Y;
layers = (
{
hints = (
{
horizontal = 1;
place = "{-1, 21}";
target = up;
type = BottomGhost;
},
{
place = "{11, 439}";
type = Stem;
}
);
layerId = "9B0E9E80-6738-4704-8EC6-A4FB4E6479F4";
paths = (
{
closed = 1;
nodes = (
"450 692 LINE",
"281 401 OFFCURVE",
"409 573 OFFCURVE",
"384 516 CURVE SMOOTH",
"359 459 OFFCURVE",
"332 402 OFFCURVE",
"305 345 CURVE SMOOTH",
"278 288 OFFCURVE",
"251 231 OFFCURVE",
"225 174 CURVE SMOOTH",
"199 117 OFFCURVE",
"176 59 OFFCURVE",
"156 0 CURVE",
"152 1 OFFCURVE",
"148 1 OFFCURVE",
"144 1 CURVE SMOOTH",
"140 1 OFFCURVE",
"136 1 OFFCURVE",
"131 1 CURVE SMOOTH",
"117 1 OFFCURVE",
"102 1 OFFCURVE",
"85 -1 CURVE",
"68 -2 OFFCURVE",
"52 -2 OFFCURVE",
"37 -2 CURVE SMOOTH",
"33 -2 OFFCURVE",
"29 -2 OFFCURVE",
"25 -2 CURVE SMOOTH",
"21 -2 OFFCURVE",
"17 -2 OFFCURVE",
"13 -1 CURVE",
"11 -1 LINE",
"29 53 OFFCURVE",
"49 110 OFFCURVE",
"72 169 CURVE SMOOTH",
"95 228 OFFCURVE",
"119 286 OFFCURVE",
"142 345 CURVE",
"142 347 LINE",
"135 376 OFFCURVE",
"125 406 OFFCURVE",
"114 435 CURVE SMOOTH",
"103 464 OFFCURVE",
"91 492 OFFCURVE",
"79 521 CURVE SMOOTH",
"66 550 OFFCURVE",
"54 578 OFFCURVE",
"43 607 CURVE SMOOTH",
"32 636 OFFCURVE",
"23 664 OFFCURVE",
"16 692 CURVE",
"29 692 OFFCURVE",
"43 693 OFFCURVE",
"58 695 CURVE SMOOTH",
"73 697 OFFCURVE",
"87 698 OFFCURVE",
"102 698 CURVE SMOOTH",
"110 698 OFFCURVE",
"118 698 OFFCURVE",
"126 697 CURVE SMOOTH",
"134 696 OFFCURVE",
"142 693 OFFCURVE",
"149 690 CURVE",
"152 675 OFFCURVE",
"157 658 OFFCURVE",
"164 638 CURVE",
"170 618 OFFCURVE",
"177 598 OFFCURVE",
"184 577 CURVE SMOOTH",
"191 556 OFFCURVE",
"198 537 OFFCURVE",
"206 518 CURVE",
"213 499 OFFCURVE",
"220 484 OFFCURVE",
"226 471 CURVE",
"233 483 OFFCURVE",
"240 499 OFFCURVE",
"247 518 CURVE SMOOTH",
"254 537 OFFCURVE",
"261 556 OFFCURVE",
"268 577 CURVE SMOOTH",
"275 598 OFFCURVE",
"281 618 OFFCURVE",
"288 638 CURVE SMOOTH",
"295 658 OFFCURVE",
"301 675 OFFCURVE",
"307 688 CURVE",
"319 691 OFFCURVE",
"335 693 OFFCURVE",
"356 694 CURVE SMOOTH",
"376 695 OFFCURVE",
"395 695 OFFCURVE",
"412 695 CURVE SMOOTH",
"420 695 OFFCURVE",
"427 695 OFFCURVE",
"434 695 CURVE",
"441 694 OFFCURVE",
"446 694 OFFCURVE",
"450 693 CURVE"
);
}
);
width = 435;
}
);
leftKerningGroup = Y;
note = Y;
rightKerningGroup = Y;
unicode = 0059;
},
{
glyphname = Yacute;
layers = (
{
hints = (
{
horizontal = 1;
place = "{-2, 21}";
target = up;
type = BottomGhost;
},
{
horizontal = 1;
place = "{691, 126.01}";
type = Stem;
},
{
place = "{11, 437}";
type = Stem;
}
);
layerId = "9B0E9E80-6738-4704-8EC6-A4FB4E6479F4";
paths = (
{
closed = 1;
nodes = (
"448 688 LINE",
"280 399 OFFCURVE",
"407 570 OFFCURVE",
"382 513 CURVE SMOOTH",
"357 456 OFFCURVE",
"331 399 OFFCURVE",
"304 342 CURVE SMOOTH",
"277 285 OFFCURVE",
"250 229 OFFCURVE",
"224 172 CURVE SMOOTH",
"198 115 OFFCURVE",
"175 58 OFFCURVE",
"155 -1 CURVE",
"137 1 OFFCURVE",
"115 1 OFFCURVE",
"88 -1 CURVE SMOOTH",
"61 -3 OFFCURVE",
"36 -3 OFFCURVE",
"13 -2 CURVE",
"11 -2 LINE",
"29 52 OFFCURVE",
"49 108 OFFCURVE",
"72 167 CURVE SMOOTH",
"95 226 OFFCURVE",
"118 284 OFFCURVE",
"141 342 CURVE",
"141 344 LINE",
"134 373 OFFCURVE",
"125 403 OFFCURVE",
"114 432 CURVE SMOOTH",
"103 461 OFFCURVE",
"91 489 OFFCURVE",
"79 518 CURVE",
"66 546 OFFCURVE",
"54 574 OFFCURVE",
"43 603 CURVE SMOOTH",
"32 632 OFFCURVE",
"23 660 OFFCURVE",
"16 688 CURVE",
"27 688 OFFCURVE",
"39 689 OFFCURVE",
"52 690 CURVE SMOOTH",
"65 691 OFFCURVE",
"79 692 OFFCURVE",
"93 693 CURVE SMOOTH",
"106 694 OFFCURVE",
"120 694 OFFCURVE",
"133 693 CURVE SMOOTH",
"146 692 OFFCURVE",
"158 690 OFFCURVE",
"168 686 CURVE",
"175 656 OFFCURVE",
"184 626 OFFCURVE",
"194 596 CURVE SMOOTH",
"203 566 OFFCURVE",
"214 538 OFFCURVE",
"227 513 CURVE",
"240 537 OFFCURVE",
"254 565 OFFCURVE",
"268 596 CURVE SMOOTH",
"282 627 OFFCURVE",
"295 657 OFFCURVE",
"306 684 CURVE",
"306 684 OFFCURVE",
"307 684 OFFCURVE",
"308 685 CURVE",
"317 686 OFFCURVE",
"329 688 OFFCURVE",
"342 689 CURVE SMOOTH",
"355 690 OFFCURVE",
"369 690 OFFCURVE",
"383 691 CURVE",
"396 691 OFFCURVE",
"409 691 OFFCURVE",
"421 691 CURVE SMOOTH",
"433 691 OFFCURVE",
"442 690 OFFCURVE",
"448 689 CURVE"
);
},
{
closed = 1;
nodes = (
"385 847 LINE",
"384 846 LINE",
"401 789 OFFCURVE",
"372 835 OFFCURVE",
"362 826 CURVE SMOOTH",
"352 817 OFFCURVE",
"342 808 OFFCURVE",
"331 799 CURVE",
"320 789 OFFCURVE",
"310 780 OFFCURVE",
"301 771 CURVE SMOOTH",
"292 762 OFFCURVE",
"286 755 OFFCURVE",
"283 750 CURVE",
"272 749 OFFCURVE",
"260 748 OFFCURVE",
"247 748 CURVE",
"233 747 OFFCURVE",
"220 747 OFFCURVE",
"207 748 CURVE SMOOTH",
"194 749 OFFCURVE",
"182 750 OFFCURVE",
"172 751 CURVE SMOOTH",
"161 752 OFFCURVE",
"154 753 OFFCURVE",
"149 754 CURVE",
"160 765 OFFCURVE",
"173 778 OFFCURVE",
"188 793 CURVE SMOOTH",
"202 808 OFFCURVE",
"217 823 OFFCURVE",
"232 839 CURVE SMOOTH",
"247 854 OFFCURVE",
"261 869 OFFCURVE",
"276 883 CURVE",
"291 896 OFFCURVE",
"304 908 OFFCURVE",
"316 917 CURVE"
);
}
);
width = 434;
}
);
leftKerningGroup = Y;
note = Yacute;
rightKerningGroup = Y;
unicode = 00DD;
},
